<svg id="Layer_1" data-name="Layer 1" xmlns="http://www.w3.org/2000/svg" viewBox="0 0 227.03 66.28"><defs><style>.cls-1,.cls-2{fill:#25282a;}.cls-2{fill-rule:evenodd;}</style></defs><g id="Layer_2" data-name="Layer 2"><g id="Layer_1-2" data-name="Layer 1-2"><path class="cls-1" d="M38.9,46C38.37,57.18,31,67,19.11,67.32,5.07,67.67,5.92,55.94,9,46.15l2.78-8.82H7L3.37,48.94C-.18,60.45-3.4,81.65,14.68,81.82c20.36,0,27.81-18.19,29.71-33.27C61.6,51.27,75,43.88,86,37.49c8.12-4.68,15.16-8.79,20.65-8.11L110,18.8c.66-2.09-2-2.28-5.53-1.26-5.23,1.53-12.7,5.48-17,7.68-5.66,2.87-10.54,5.26-15.2,7.06-10.06,3.89-21.35,3.39-32.83,2.38Z" transform="translate(-0.61 -16.94)"/><path class="cls-1" d="M67.89,81.32c12.57-8.77,16.73-22.12,21-35.45L83.8,47.8C78.36,62.6,65,74.62,47.21,77.94l-1.48,3.43Z" transform="translate(-0.61 -16.94)"/><path class="cls-1" d="M107.6,69.85c-8.91-.31-10.52-8.27-6.41-21.5,1.82-5.86,2.57-7.68,4.39-13.54-2.17.94-4.45,1.71-6.62,2.66L93.31,56c-4.44,14.7-1.4,27.19,12,27.19C130,83.22,134.92,40,118.5,37.61c-6-.88-8.18,3.36-9.93,8.15l-1.89,5.18c-2.38,6.56,2.2,12,8.53,10.81a20,20,0,0,0,6.54-2.81C122,65.24,114.45,70.09,107.6,69.85Z" transform="translate(-0.61 -16.94)"/><path class="cls-1" d="M119.82,16.94,125,21.29c4.26,3.54,3.82,5.87,0,9.65l-4.5,4.47L111,26.46Z" transform="translate(-0.61 -16.94)"/><path class="cls-2" d="M200.12,17.12l23.64,23.64a13.34,13.34,0,0,1,0,18.82L200.12,83.22,176.49,59.58a13.34,13.34,0,0,1,0-18.82Z" transform="translate(-0.61 -16.94)"/><path class="cls-2" d="M174.89,61.19l9.87,9.87L172.6,83.22,149,59.58a13.36,13.36,0,0,1,0-18.82L172.6,17.12l12.16,12.17-9.86,9.87a15.62,15.62,0,0,0,0,22" transform="translate(-0.61 -16.94)"/></g></g></svg>