<svg id="Layer_1" data-name="Layer 1" xmlns="http://www.w3.org/2000/svg" viewBox="0 0 981.09 204.76"><defs><style>.cls-1{fill:#e08433;}.cls-1,.cls-4,.cls-5,.cls-6{fill-rule:evenodd;}.cls-2{fill:#fff;}.cls-3,.cls-4{fill:#345d9d;}.cls-5{fill:#ffb71b;}.cls-6{fill:#ffd600;}</style></defs><path class="cls-1" d="M229.82,20.48V141.17a42.92,42.92,0,0,1-42.71,43.12H0V63.59C0,39.88,19.22,20.48,42.71,20.48Z"/><polygon class="cls-2" points="90.4 67 78.47 57.41 69.3 68.5 81.24 78.08 90.4 67"/><path class="cls-2" d="M177.4,90.55a21.89,21.89,0,0,0-6-9.43,13.37,13.37,0,0,0-9.21-3.46,17.09,17.09,0,0,0-11.94,4.26q-4.69,4.26-8.95,14.18A25.16,25.16,0,0,1,139.2,100a4.33,4.33,0,0,1-2.5,1.6,23,23,0,0,1-5.17.42h-5.11a75,75,0,0,1-9-.37,6.55,6.55,0,0,1-4.21-2.08c-1-1.13-1.63-3-1.91-5.65l-1.6-13.1L96.05,83.63l4.58,39.74A32.49,32.49,0,0,1,91,126.25a84.72,84.72,0,0,1-12.78.85A35.69,35.69,0,0,1,67,125.5c-3.2-1.06-4.79-3-4.79-5.75q0-5.32,4.15-30.26L55.45,87.14,52.79,104.3q-2.46,14.17-2.45,18.11,0,11.19,6.5,16.84t21.42,5.64a68.2,68.2,0,0,0,15-1.81,38.27,38.27,0,0,0,13.8-5.86q5.76-4,5.76-10.33,0-5.44-.54-15a14.33,14.33,0,0,0,6,6.13,17.77,17.77,0,0,0,8.15,1.86H130a31.28,31.28,0,0,0,8.68-1,13.59,13.59,0,0,0,5.7-3.14l19.93,8.84a6.61,6.61,0,0,0,2.34.53,6.48,6.48,0,0,0,2.67-.63,15.65,15.65,0,0,0,3.19-2.14,19.52,19.52,0,0,0,3.89-3.46,7.15,7.15,0,0,0,1.44-2.93,46.59,46.59,0,0,0,1.6-12A40.21,40.21,0,0,0,177.4,90.55Zm-10.92,18.33-15.88-7.24a42.68,42.68,0,0,1,5.06-7,6.4,6.4,0,0,1,4.74-1.87,5.57,5.57,0,0,1,5.12,2.88,14.46,14.46,0,0,1,1.7,7.46A18.46,18.46,0,0,1,166.48,108.88Z"/><path class="cls-3" d="M399,89.79c-1.63,34.54-24.41,65-61.14,65.86-43.36,1.07-40.72-35.24-31.21-65.42L315.22,63H300.38L289.26,98.94c-11,35.47-21,101,34.92,101.5,62.91,0,85.91-56.2,91.78-102.8C469,106.06,510.4,83.22,544.59,63.5,569.66,49,591.41,36.33,608.37,38.44l10.3-32.68c2-6.47-6.29-7-17.08-3.9C585.43,6.57,562.35,18.8,549,25.57c-17.48,8.87-32.56,16.27-47,21.83-31.08,12-65.94,10.45-101.41,7.34Z"/><path class="cls-3" d="M488.59,198.89c38.83-27.1,51.65-68.35,64.72-109.53l-15.7,6c-16.69,45.7-57.93,82.83-112.91,93l-4.6,10.58Z"/><path class="cls-3" d="M611.12,163.46c-27.51-1-32.5-25.55-19.79-66.41,5.62-18.11,7.92-23.74,13.55-41.85-6.7,2.93-13.75,5.3-20.45,8.22L567.1,120.76c-13.72,45.41-4.33,84,37,84,76.34,0,91.48-133.39,40.75-140.89C626.44,61.15,619.61,74.25,614.22,89l-5.81,16c-7.36,20.25,6.79,37.11,26.34,33.39,6.8-1.28,14.77-5.05,20.21-8.61C655.82,149.22,632.4,164.21,611.12,163.46Z"/><path class="cls-3" d="M649,0l16.11,13.45c13.13,10.94,11.79,18.14,0,29.82l-13.91,13.8L621.79,29.42Z"/><path class="cls-4" d="M805,5.52,810.54,0l73.22,73.22a41.36,41.36,0,0,1,0,58.32l-73.22,73.22-73.22-73.22a41.36,41.36,0,0,1,0-58.32Z"/><path class="cls-5" d="M969.05,131.53l-73.21,73.23-28.4-28.42L853.2,162.1l-30.57-30.57a41.35,41.35,0,0,1,0-58.3l30.55-30.57L890.32,5.52,895.84,0l73.21,73.23a10.31,10.31,0,0,1,.73.75A41.31,41.31,0,0,1,969.05,131.53Z"/><circle class="cls-2" cx="895.94" cy="102.38" r="12.12"/><path class="cls-1" d="M822.63,73.23,895.84,0l28.4,28.42L821.9,130.78A41.31,41.31,0,0,1,822.63,73.23Z"/><circle class="cls-2" cx="850.28" cy="102.38" r="12.12"/><path class="cls-6" d="M969.05,131.53l-73.21,73.23-28.4-28.42L969.78,74A41.31,41.31,0,0,1,969.05,131.53Z"/><circle class="cls-2" cx="941.6" cy="102.38" r="12.12"/></svg>