<svg xmlns="http://www.w3.org/2000/svg" viewBox="0 0 15.76 12.61"><defs><style>.cls-1{fill:#fff;fill-rule:evenodd;}</style></defs><g id="Layer_2" data-name="Layer 2"><g id="Layer_1-2" data-name="Layer 1"><path class="cls-1" d="M5.69,8.4l1.89,1.89L5.25,12.61.74,8.1a2.54,2.54,0,0,1,0-3.59L5.25,0,7.58,2.33,5.69,4.21c-.1.11-.2.22-.29.34s-.16.24-.23.37a1.69,1.69,0,0,0-.12.27c0,.09-.07.18-.1.27a3.09,3.09,0,0,0-.11,1.13A3.69,3.69,0,0,0,5,7.15H5L5,7.39l.08.18h0l0,0,0,0,.09.16h0l.06.09a.44.44,0,0,0,.08.11.47.47,0,0,0,.06.09l.06.07.07.08,0,.06.05.05"/><path class="cls-1" d="M15.06,4.56l0,0L10.5,0,7.88,2.63,6,4.51a1.68,1.68,0,0,0-.25.29c-.08.11-.15.22-.21.32a2.29,2.29,0,0,0-.1.23c0,.08-.06.16-.08.23a2.48,2.48,0,0,0-.1,1,2.73,2.73,0,0,0,.1.48,1.72,1.72,0,0,0,.07.21,1,1,0,0,0,.07.15,1,1,0,0,1,0,.1l.08.13,0,.09a.86.86,0,0,1,.07.1l.06.07,0,.06L5.9,8l0,.06,0,0,4.5,4.51L15,8.1a2.55,2.55,0,0,0,0-3.54M8.23,6.84a.75.75,0,1,1,0-1.06.75.75,0,0,1,0,1.06m2.28.21a.75.75,0,1,1,.75-.74.75.75,0,0,1-.75.74m3.34-.21a.75.75,0,1,1,0-1.06.75.75,0,0,1,0,1.06"/></g></g></svg>