<svg id="Layer_1" data-name="Layer 1" xmlns="http://www.w3.org/2000/svg" viewBox="0 0 1877.77 392.84"><defs><style>.cls-1,.cls-2{fill:#fff;}.cls-1{fill-rule:evenodd;}</style></defs><g id="Layer_2" data-name="Layer 2"><g id="Layer_1-2" data-name="Layer 1-2"><path class="cls-1" d="M1612.83,291.61l58.88,58.53-72.64,72.64-141-141a79.33,79.33,0,0,1,.7-110.72l141-141,72.29,72.29-59.24,58.89a89.65,89.65,0,0,0-9.17,10.58,93,93,0,0,0-7.05,11.63,88.57,88.57,0,0,0-3.88,8.11,78.57,78.57,0,0,0-2.82,8.47,92,92,0,0,0-3.53,35.26,150.88,150.88,0,0,0,3.17,17.28h0c0,2.11,0,4.58,2.47,7a42.87,42.87,0,0,0,2.47,6h0l2.82,4.94h0v2.82a21.09,21.09,0,0,0,2.47,3.53l2.12,2.82v2.11l2.11,2.47h0Z" transform="translate(-44.72 -29.94)"/><path class="cls-1" d="M1904.44,171h0l-141-141-82.52,81.81L1622.35,171a62.34,62.34,0,0,0-7.76,9.17,79.3,79.3,0,0,0-6.35,9.87,40.63,40.63,0,0,0-3.17,7.06,60,60,0,0,0-2.47,7.4,79.34,79.34,0,0,0-3.17,30,104.54,104.54,0,0,0,3.17,15.17,22.56,22.56,0,0,0,2.12,6.34l2.11,4.94v2.82L1609,268l1.76,2.47,2.47,3.17v4.24h0l1.76,1.76h0l141,141.05,141-141A79.34,79.34,0,0,0,1904.44,171Zm-211.57,70.53a23.27,23.27,0,1,1-.12-32.92l.12.12a22.93,22.93,0,0,1-.64,32.41l-.42.39Zm70.53,7.05a23.28,23.28,0,1,1,23.27-23.27h0a23.27,23.27,0,0,1-22.18,24.31c-.6,0-1.2,0-1.8,0Zm105.78-7.05a23.27,23.27,0,1,1-.12-32.92l.12.12a22.92,22.92,0,0,1-2,32.36c-.16.15-.33.29-.51.44Z" transform="translate(-44.72 -29.94)"/><path class="cls-1" d="M352.21,208a11.29,11.29,0,0,0-8.82,3.52,101.85,101.85,0,0,0-9.87,13.4l30.32,13.75a31.35,31.35,0,0,0,0-10.93,27.73,27.73,0,0,0-1.76-14.1A10.21,10.21,0,0,0,352.21,208Z" transform="translate(-44.72 -29.94)"/><path class="cls-1" d="M126.53,69.46A82.51,82.51,0,0,0,44.72,152V382.58h359a82.15,82.15,0,0,0,81.81-81.8V69.46ZM195.29,140l22.92,18.34-17.63,21.15-22.92-18.33ZM385.71,252.11a15.29,15.29,0,0,1-2.47,5.65,32,32,0,0,1-7.76,6.34,18.65,18.65,0,0,1-6,4.23,15.17,15.17,0,0,1-4.94,0H360l-38.44-16.22a29.28,29.28,0,0,1-10.93,6,70.64,70.64,0,0,1-16.57,0h-6.7a35.13,35.13,0,0,1-15.87-3.53A30.66,30.66,0,0,1,259.82,243v28.56a23.63,23.63,0,0,1-10.93,20.1,74.87,74.87,0,0,1-26.45,10.93,121.58,121.58,0,0,1-28.56,3.53,63.89,63.89,0,0,1-41.26-10.58,41.62,41.62,0,0,1-12.34-32.44,261.61,261.61,0,0,1,4.59-35.27l5.64-30.67,20.8,4.58a564.41,564.41,0,0,0-8.11,58.18,11.29,11.29,0,0,0,9.17,10.93A68.11,68.11,0,0,0,194.23,274a164.66,164.66,0,0,0,24.33,0,53.68,53.68,0,0,0,18.34-5.65l-8.11-77.92,27.51-5.29,2.82,25A18.72,18.72,0,0,0,263,221.08a12,12,0,0,0,8.12,3.88,105.94,105.94,0,0,0,17.27,0h9.52a34.79,34.79,0,0,0,9.88,0,8.06,8.06,0,0,0,4.93-3.17,53.75,53.75,0,0,0,4.24-7.41,75.1,75.1,0,0,1,16.92-27.15,32.1,32.1,0,0,1,22.92-8.11,24.32,24.32,0,0,1,17.63,6.7,42,42,0,0,1,11.64,18,81.26,81.26,0,0,1,3.88,25.38,88.25,88.25,0,0,1-4.23,23.28Z" transform="translate(-44.72 -29.94)"/><path class="cls-2" d="M809.91,202A124.12,124.12,0,0,1,692.49,328.63c-83.22,0-77.93-67.7-59.6-125.53l16.22-52.19H620.55L599.4,219.67c-21.16,68.06-40.2,193.59,67,194.65,120.6,0,164.68-107.9,176.31-197.12,101.91,16.23,181.25-27.5,246.84-65.58,48.31-27.51,89.21-51.13,122-48l19.75-62.77c3.88-12.34-12.34-13.39-32.79-7.4A697.51,697.51,0,0,0,1097.65,79a977.16,977.16,0,0,1-90.27,42A434.69,434.69,0,0,1,813.08,135Z" transform="translate(-44.72 -29.94)"/><path class="cls-2" d="M981.64,411.5c74.4-52.19,99.08-131.18,124.12-211.57l-30,11.63A282.11,282.11,0,0,1,859.28,389.64l-8.82,20.45Z" transform="translate(-44.72 -29.94)"/><path class="cls-2" d="M1216.48,343.44c-52.54-1.76-62.06-49-37.73-127.29,10.58-35.27,15.16-45.49,26.09-80.4-13,5.64-26.44,10.23-39.49,15.87l-33.15,110c-26.44,87.09-8.11,161.14,70.53,161.14,146.69,0,176.31-256,78.28-270.46-35.26-4.93-48.31,20.1-58.89,48.31l-10.93,30.68a45.14,45.14,0,0,0,50.43,64.18,122.89,122.89,0,0,0,38.78-16.58C1302.52,316.29,1257.39,344.85,1216.48,343.44Z" transform="translate(-44.72 -29.94)"/><path class="cls-2" d="M1289.47,30l30.68,25.74c25.39,21.16,22.57,35.27,0,57.13l-26.45,26.45-56.77-52.9Z" transform="translate(-44.72 -29.94)"/></g></g></svg>