<?xml version="1.0" standalone="no"?>
<!DOCTYPE svg PUBLIC "-//W3C//DTD SVG 1.1//EN" "http://www.w3.org/Graphics/SVG/1.1/DTD/svg11.dtd" >
<svg xmlns="http://www.w3.org/2000/svg" xmlns:xlink="http://www.w3.org/1999/xlink" version="1.1">
<metadata>
Created by FontForge 20181214 at Thu Jan 28 11:31:17 2016
 By convertio
Copyright (c) 2015 by www.fontiran.com (Moslem Ebrahimi). All rights reserved.
</metadata>
<defs>
<font id="IRANSans-Regular" horiz-adv-x="0" >
  <font-face 
    font-family="IRANSans"
    font-weight="400"
    font-stretch="normal"
    units-per-em="2048"
    panose-1="0 0 5 0 0 0 0 0 0 0"
    ascent="1638"
    descent="-410"
    x-height="1062"
    cap-height="1466"
    bbox="-185 -1736 4983 2314"
    underline-thickness="102"
    underline-position="-409"
    unicode-range="U+000D-FEFC"
  />
<missing-glyph horiz-adv-x="1229" 
d="M1126 1444h-1024v-1806h1024v1806zM1012 1329v-1577h-795v1577h795z" />
    <glyph glyph-name="uniFDF2" unicode="&#xfedf;&#xfee0;&#x651;&#x6c1;" horiz-adv-x="2122" arabic-form="isolated" 
d="M1427 1895q0 75 -20 152l-73 -23q19 -69 19 -144q0 -79 -19 -143l72 -22q21 101 21 180zM1447 1371.5q36 -28.5 76 -28.5l6 1h8q9 0 21 3q94 24 94 172q0 60 -32 136q-25 59 -34 68l-70 -40q54 -94 54 -164q0 -40 -8 -61q-1 -1 -3 -8l-3 -7q-2 -2 -3 -5t-3 -5l-5 -3
q-3 -3 -5 -3q-8 -2 -17 -2q-36 0 -52 55q-26 89 -26 133l-83 3q-7 -66 -25 -120q-12 -34 -31.5 -54t-43.5 -20q-39 0 -39 77q0 17 1 30v27q0 5 5 47l-78 17l-5 -27q-7 -41 -7 -77q0 -81 31 -128.5t92 -47.5q85 0 135 101q14 -41 50 -69.5zM1707 1h17q114 0 184 43.5
t100 106.5t30 128q0 98 -69 1007l-194 -44q75 -892 75 -902q0 -35 -4 -58q-8 -52 -50.5 -73.5t-121.5 -21.5h-19q-47 1 -76 40t-29 95l-2 24q-6 61 -14 197l-46 647l-198 -21q42 -661 42 -834q0 -53 -4 -60q-38 -86 -157 -86l-80 2q-49 1 -80 42.5t-51 121.5t-38 215
q-25 194 -54 518l-196 -17q0 -29 10 -112l6 -60q-355 -140 -468 -380l-1 -5q-20 -45 -20 -94q0 -97 55 -161q101 -125 358 -125q96 0 220 18q53 -84 131 -121q47 -33 93 -33h10v-1h12q35 -3 67 -3v3h41q143 0 232 56q5 3 10 7.5t10 8.5q11 10 20 15q38 -36 98 -60.5
t120 -24.5q17 0 31 2zM763 341q-78 -9 -141 -9q-46 0 -77.5 3t-68.5 10q-77 15 -77 74l2 19q80 153 309 258q20 -163 53 -355z" />
    <glyph glyph-name="uniFDFC" unicode="&#x631;&#xfbfe;&#xfe8e;&#x644;" horiz-adv-x="3031" arabic-form="isolated" 
d="M172 297q-63 -175 -63 -373q0 -110 25 -188q45 -143 151.5 -238t262.5 -134q85 -20 164 -20q137 0 260 48q185 73 285.5 222t100.5 372q0 92 -2 188q-19 677 -51 1355l-196 -8q19 -419 26 -609q1 -57 9 -220l9 -249q9 -259 9 -457q0 -159 -82 -268q-58 -78 -159 -127.5
t-212 -49.5q-81 0 -150 25q-117 40 -185 130.5t-68 221.5q0 261 105 421l-179 80q-35 -50 -60 -122zM1777 210q-53 15 -73.5 48.5t-20.5 99.5v87q0 24 1 47v57v144q0 130 -1 169q0 447 -36 652l-196 -36q16 -78 25 -201q6 -94 8 -162.5t2 -178.5v-81v-17q1 -39 1 -167v-139
q0 -43 -1 -72l-2 -61v-19q0 -81 11 -128q54 -226 329 -249q11 -3 23 -3h146q46 0 97 3q130 8 221 69q166 111 166 323q0 102 -40 241t-99 268l-5 11l-4 7l-1 2l-178 -88l33 -75l29 -69q51 -128 66 -256q2 -18 2 -40q0 -109 -74.5 -155t-220.5 -46q-9 0 -17 1h-18h-67
q-66 2 -106 14zM2693 270q29 -130 29 -180q0 -93 -45 -184.5t-126 -175.5q-149 -153 -381 -270l87 -176q87 41 166 93q256 167 375.5 352t119.5 361q0 25 -1 31q-12 101 -32 192t-36 149t-56 188l-190 -60q55 -170 90 -320zM1494 -368l164 -163l162 162l-164 164zM1904 -369
l164 -164l162 163l-164 163z" />
    <glyph glyph-name="uniFEF5" unicode="&#xfedf;&#xfe82;" horiz-adv-x="1373" arabic-form="isolated" 
d="M144.5 1416q7.5 16 21.5 36q28 43 78 43q12 0 34 -5t64 -21q49 -18 85 -27.5t70 -9.5q75 0 139 40.5t108 105.5l10 15l-114 74q-26 -33 -35 -42q-15 -18 -45.5 -35.5t-55.5 -17.5h-6q-47 1 -124 33q-76 30 -133 30h-21q-58 0 -104 -36q-43 -33 -63.5 -64t-44.5 -88
l-16 -40l132 -41q13 34 20.5 50zM1182 1486l-6 40l-196 -19l103 -930q1 -6 1 -28q0 -36 -8 -73q-18 -84 -65 -156.5t-109 -111.5q-36 162 -110 344q-122 296 -371 688q-7 13 -27 39l-13 19q-29 41 -39 60l-163 -114l21 -30q247 -361 394 -704q90 -210 120 -372
q-95 -20 -180 -20q-63 0 -112 10l-34 -195q77 -12 153 -12q108 0 217 23q197 47 313.5 144t163.5 215t47 246l-2 42q-30 449 -98 895z" />
    <glyph glyph-name="uniFEF6" unicode="&#xfee0;&#xfe82;" horiz-adv-x="1470" arabic-form="final" 
d="M89.5 1449q7.5 16 21.5 36q28 43 78 43q12 0 34 -5t64 -21q49 -18 85 -27.5t70 -9.5q75 0 139 40.5t108 105.5l10 15l-114 74q-26 -33 -35 -42q-15 -18 -45.5 -35.5t-55.5 -17.5h-6q-47 1 -124 33q-77 30 -133 30h-21q-57 0 -104 -36q-43 -33 -63.5 -64t-44.5 -88
l-16 -40l132 -41q13 34 20.5 50zM1531.5 168q-28.5 28 -70.5 28h-9l-30 1q-2 0 -13 4q-19 4 -25 5q-72 15 -108 64t-41 137q-15 279 -55 702l-28 306l-6 56q-6 41 -6 60l-196 -21v-5q4 -31 5 -41q51 -506 82 -969l2 -30q0 -156 -167 -252q-34 158 -110 343
q-69 169 -184.5 376t-242.5 397q-8 12 -11 18l-9 12q-3 3 -3 4l-161 -114l3 -3q12 -21 17 -27q186 -273 338 -575q52 -104 102.5 -242.5t72.5 -258.5q-95 -20 -180 -20q-63 0 -112 10l-34 -195q77 -12 153 -12q108 0 217 23q134 33 228.5 84t167.5 133q38 -61 83 -94
q104 -72 211 -72h49q41 0 70 28.5t29 69.5q0 42 -28.5 70z" />
    <glyph glyph-name="uniFEF7" unicode="&#xfedf;&#xfe84;" horiz-adv-x="1269" arabic-form="isolated" 
d="M21 1342l227 126l52 28q58 31 98 55q48 28 92 59l-59 78q-16 -13 -42.5 -29t-42.5 -25q-15 -9 -44 -18.5t-52 -9.5q-43 0 -79 23.5t-49 58.5l1 -1q-8 22 -8 36q0 34 20 62.5t51 41.5v-2q25 12 62 12q44 0 92 -13l28 92q-76 19 -120 19q-65 0 -118 -26.5t-83 -75
t-30 -110.5q0 -67 37.5 -118t97.5 -76l-179 -100zM1080 1486l-6 40l-196 -19l103 -930q1 -6 1 -28q0 -36 -8 -73q-18 -84 -65 -156.5t-109 -111.5q-36 162 -110 344q-122 296 -371 688q-7 14 -27 39l-13 19q-28 40 -39 60l-163 -114l21 -30q247 -361 394 -704
q90 -210 120 -372q-95 -20 -180 -20q-63 0 -112 10l-34 -195q77 -12 153 -12q108 0 217 23q197 47 313.5 144t163.5 215t47 246l-2 42q-30 449 -98 895z" />
    <glyph glyph-name="uniFEF8" unicode="&#xfee0;&#xfe84;" horiz-adv-x="1417" arabic-form="final" 
d="M43 1351l227 126l52 28q58 31 98 55q48 28 92 59l-59 78q-16 -13 -42.5 -29t-42.5 -25q-15 -9 -44 -18.5t-52 -9.5q-43 0 -79 23.5t-49 58.5l1 -1q-8 22 -8 36q0 34 20 62.5t51 41.5v-2q26 12 62 12q44 0 92 -13l28 92q-76 19 -120 19q-65 0 -118 -26.5t-83 -75
t-30 -110.5q0 -67 37.5 -118t97.5 -76l-179 -100zM1478.5 168q-28.5 28 -70.5 28h-9l-30 1q-2 0 -13 4q-19 4 -25 5q-72 15 -108 64t-41 137q-15 279 -55 702l-28 306l-6 56q-6 41 -6 60l-196 -21l1 -5l2 -16l2 -25q51 -506 82 -969l2 -30q0 -156 -167 -252
q-34 158 -110 343q-69 169 -184.5 376t-242.5 397q-8 12 -11 18l-9 12q-3 3 -3 4l-161 -114l2 -3q1 -2 3 -4.5t5 -6.5q8 -14 10 -16q186 -273 338 -575q52 -104 102.5 -242.5t72.5 -258.5q-95 -20 -180 -20q-63 0 -112 10l-34 -195q77 -12 153 -12q108 0 217 23
q134 33 228.5 84t167.5 133q38 -61 83 -94q104 -72 211 -72h49q41 0 70 28.5t29 69.5q0 42 -28.5 70z" />
    <glyph glyph-name="uniFEF9" unicode="&#xfedf;&#xfe88;" horiz-adv-x="1280" arabic-form="isolated" 
d="M1080 1486l-6 40l-196 -19l103 -930q1 -6 1 -28q0 -36 -8 -73q-18 -84 -65 -156.5t-109 -111.5q-36 162 -110 344q-122 296 -371 688q-7 14 -27 39l-13 19q-28 40 -39 60l-163 -114l21 -30q247 -361 394 -704q90 -210 120 -372q-95 -20 -180 -20q-63 0 -112 10l-34 -195
q77 -12 153 -12q108 0 217 23q197 47 313.5 144t163.5 215t47 246l-2 42q-30 449 -98 895zM166 -748l227 126l52 28q58 31 98 55q48 28 92 59l-59 78q-16 -13 -42.5 -29t-42.5 -25q-15 -9 -44 -18.5t-52 -9.5q-43 0 -79 23.5t-49 58.5l1 -1q-8 22 -8 36q0 34 20 62.5
t51 41.5v-2q26 12 62 12q44 0 92 -13l28 92q-76 19 -120 19q-65 0 -118 -26.5t-83 -75t-30 -110.5q0 -67 37.5 -118t97.5 -76l-179 -100z" />
    <glyph glyph-name="uniFEFA" unicode="&#xfee0;&#xfe88;" horiz-adv-x="1417" arabic-form="final" 
d="M1478.5 168q-28.5 28 -70.5 28h-9l-30 1q-2 0 -13 4q-19 4 -25 5q-72 15 -108 64t-41 137q-15 279 -55 702l-28 306l-6 56q-6 41 -6 60l-196 -21l1 -5l2 -16l2 -25q51 -506 82 -969l2 -30q0 -156 -167 -252q-34 158 -110 343q-69 169 -184.5 376t-242.5 397q-8 12 -11 18
l-9 12q-3 3 -3 4l-161 -114l2 -3q1 -2 3 -4.5t5 -6.5q8 -14 10 -16q186 -273 338 -575q52 -104 102.5 -242.5t72.5 -258.5q-95 -20 -180 -20q-63 0 -112 10l-34 -195q77 -12 153 -12q108 0 217 23q134 33 228.5 84t167.5 133q38 -61 83 -94q104 -72 211 -72h49q41 0 70 28.5
t29 69.5q0 42 -28.5 70zM116 -743l227 126l52 28q58 31 98 55q48 28 92 59l-59 78q-16 -13 -42.5 -29t-42.5 -25q-15 -9 -44 -18.5t-52 -9.5q-43 0 -79 23.5t-49 58.5l1 -1q-8 22 -8 36q0 34 20 62.5t51 41.5v-2q26 12 62 12q44 0 92 -13l28 92q-76 19 -120 19
q-65 0 -118 -26.5t-83 -75t-30 -110.5q0 -67 37.5 -118t97.5 -76l-179 -100z" />
    <glyph glyph-name="uniFEFB" unicode="&#xfedf;&#xfe8e;" horiz-adv-x="1264" arabic-form="isolated" 
d="M1080 1486l-6 40l-196 -19l103 -930q1 -6 1 -28q0 -36 -8 -73q-18 -84 -65 -156.5t-109 -111.5q-36 162 -110 344q-122 296 -371 688q-7 14 -27 39l-13 19q-28 40 -39 60l-163 -114l21 -30q247 -361 394 -704q90 -210 120 -372q-95 -20 -180 -20q-63 0 -112 10l-34 -195
q77 -12 153 -12q108 0 217 23q197 47 313.5 144t163.5 215t47 246l-2 42q-30 449 -98 895z" />
    <glyph glyph-name="uniFEFC" unicode="&#xfee0;&#xfe8e;" horiz-adv-x="1399" arabic-form="final" 
d="M1478.5 168q-28.5 28 -70.5 28h-9l-30 1q-2 0 -13 4q-19 4 -25 5q-72 15 -108 64t-41 137q-15 279 -55 702l-28 306l-6 56q-6 41 -6 60l-196 -21l1 -5l2 -16l2 -25q51 -506 82 -969l2 -30q0 -156 -167 -252q-34 158 -110 343q-69 169 -184.5 376t-242.5 397q-8 12 -11 18
l-9 12q-3 3 -3 4l-161 -114l2 -3q1 -2 3 -4.5t5 -6.5q8 -14 10 -16q186 -273 338 -575q52 -104 102.5 -242.5t72.5 -258.5q-95 -20 -180 -20q-63 0 -112 10l-34 -195q77 -12 153 -12q108 0 217 23q134 33 228.5 84t167.5 133q38 -61 83 -94q104 -72 211 -72h49q41 0 70 28.5
t29 69.5q0 42 -28.5 70z" />
    <glyph glyph-name="uni06440671.isol" unicode="&#xfedf;&#xfb51;" horiz-adv-x="1280" 
d="M320 1660q-32 -33 -53.5 -63.5t-44.5 -73.5q-32 45 -90 45q-51 0 -121 -37l18 -68q62 41 100 41q21 0 34 -10q26 -36 68 -49.5t119 -13.5q67 0 130 17q66 17 108.5 54.5t42.5 86.5q0 60 -41 100t-101 40q-100 0 -169 -69zM285 1500q32 71 83.5 117.5t114.5 46.5
q35 0 57.5 -18t22.5 -48q-9 -101 -217 -101q-34 0 -61 3zM1080 1486l-6 40l-196 -19l103 -930q1 -6 1 -28q0 -36 -8 -73q-18 -84 -65 -156.5t-109 -111.5q-36 162 -110 344q-122 296 -371 688q-7 14 -27 39l-13 19q-28 40 -39 60l-163 -114l21 -30q247 -361 394 -704
q90 -210 120 -372q-95 -20 -180 -20q-63 0 -112 10l-34 -195q77 -12 153 -12q108 0 217 23q197 47 313.5 144t163.5 215t47 246l-2 42q-30 449 -98 895z" />
    <glyph glyph-name="uni06440671.fina" unicode="&#xfee0;&#xfb51;" horiz-adv-x="1417" 
d="M307 1655q-32 -33 -53.5 -63.5t-44.5 -73.5q-32 45 -90 45q-51 0 -121 -37l18 -68q62 41 100 41q21 0 34 -10q26 -36 68 -49.5t119 -13.5q67 0 130 17q66 17 108.5 54.5t42.5 86.5q0 60 -41 100t-101 40q-100 0 -169 -69zM272 1495q32 71 83.5 117.5t114.5 46.5
q35 0 57.5 -18t22.5 -48q-9 -101 -217 -101q-34 0 -61 3zM1478.5 168q-28.5 28 -70.5 28h-9l-30 1q-2 0 -13 4q-19 4 -25 5q-72 15 -108 64t-41 137q-15 279 -55 702l-28 306l-6 56q-6 41 -6 60l-196 -21l1 -5l2 -16l2 -25q51 -506 82 -969l2 -30q0 -156 -167 -252
q-34 158 -110 343q-69 169 -184.5 376t-242.5 397q-8 12 -11 18l-9 12q-3 3 -3 4l-161 -114l2 -3q1 -2 3 -4.5t5 -6.5q8 -14 10 -16q186 -273 338 -575q52 -104 102.5 -242.5t72.5 -258.5q-95 -20 -180 -20q-63 0 -112 10l-34 -195q77 -12 153 -12q108 0 217 23
q134 33 228.5 84t167.5 133q38 -61 83 -94q104 -72 211 -72h49q41 0 70 28.5t29 69.5q0 42 -28.5 70z" />
    <glyph glyph-name="tooman" unicode="&#xfe97;&#xfeee;&#xfee3;&#xfe8e;&#x646;" horiz-adv-x="5135" 
d="M1988 364v15v18v8q0 11 1 18v23v248q0 130 -1 169q0 445 -36 652l-196 -36q16 -78 25 -201q6 -94 8 -162.5t2 -178.5v-81v-17q1 -39 1 -167v-74q-1 -31 -1 -65q0 -43 -1 -73l-1 -60v-19q0 -43 1 -58q7 -159 109.5 -239.5t286.5 -82.5q3 -1 15 -1h1q225 0 388 163
q112 -81 203 -116q89 -37 172 -37q95 0 165 51q68 49 102 131t34 187q0 119 -41 221q-42 102 -124 163t-188 61q-128 0 -218 -110q-31 -36 -63 -93.5t-58 -116.5q-25 -57 -58.5 -113t-68.5 -95q-38 -44 -98 -71t-133 -29q-16 2 -19 2h-9q-73 2 -116.5 16t-64 46t-20.5 90z
M4247 1239l164 -163l162 162l-164 164zM4657 1238l164 -164l162 163l-164 163zM748 823l164 -164l163 163l-164 164zM4535 3q130 8 221 69q166 111 166 323q0 102 -40 241t-99 268l-5 11l-4 7l-1 2l-178 -88l33 -75l29 -69q51 -128 66 -256q2 -18 2 -40q0 -109 -74.5 -155
t-220.5 -46q-9 0 -17 1h-18h-152q-3 159 -53 295q-35 95 -93 176t-135.5 130.5t-167.5 49.5q-64 0 -124 -33q-87 -48 -146.5 -149t-78.5 -229q-6 -42 -6 -80q0 -126 65 -209q63 -77 168.5 -112t264.5 -35h100q-10 -74 -62.5 -153.5t-136.5 -145.5q-191 -150 -485 -210
l46 -193q206 32 380.5 126.5t292.5 242t156 333.5h210q46 0 97 3zM863 -506h10q142 7 262 40q217 61 342 218t132 393v34q0 119 -26.5 239.5t-69 223.5t-90.5 175l-166 -106q2 0 18 -30q136 -247 136 -501v-17q-7 -449 -546 -471h-2q-170 9 -283 82q-104 66 -142.5 156.5
t-38.5 195.5q0 81 21 179t53.5 182t64.5 126l-159 117q-49 -71 -90.5 -175.5t-65.5 -217.5t-24 -209q0 -192 78.5 -335.5t222.5 -221.5t334 -78h19zM3842 638q20 -10 30 -18t21 -19l15 -15q125 -142 137 -384q-85 -6 -138 -6q-253 0 -269 130q-2 18 -2 40q0 71 24.5 137
t61.5 106.5t72 40.5q24 0 48 -12zM2871 228q-75 30 -166 97l54 109q59 117 82 145q35 47 72 47q60 0 96 -40t50 -94.5t14 -104.5q0 -80 -27.5 -130t-83.5 -50q-38 0 -91 21z" />
    <glyph glyph-name="uni066E.init" unicode="&#x66e;" horiz-adv-x="715" 
d="M236 3q130 8 221 69q166 111 166 323q0 102 -40 241t-99 268l-5 11l-4 7l-1 2l-178 -88l33 -75l29 -69q51 -128 66 -256q2 -18 2 -40q0 -109 -74.5 -155t-220.5 -46q-9 0 -17 1h-18h-103q-41 0 -69.5 -29t-28.5 -69t28.5 -69t69.5 -29h146q46 0 97 3z" />
    <glyph glyph-name="uni066E.medi" unicode="&#x66e;" horiz-adv-x="705" 
d="M431 124q96 -124 274 -124q42 0 70 28t28 70t-28.5 70t-70.5 28q-35 0 -65 14q-28 13 -46 34t-30 54q-11 31 -17 61t-9 72l-10 115q-5 44 -14.5 99t-22.5 95l-188 -53q39 -138 39 -251q0 -127 -79.5 -183.5t-240.5 -56.5h-17q-42 0 -70 -28.5t-28 -69.5q0 -42 28 -70
t70 -28h17q283 0 410 124z" />
    <glyph glyph-name="uni066E.fina" unicode="&#x66e;" horiz-adv-x="2316" 
d="M2316 197q-284 0 -293 263v8q0 47 34 190l-190 52q-38 -131 -85 -214t-120 -139q-106 -86 -258.5 -123.5t-375.5 -37.5q-244 2 -398.5 50.5t-217.5 155.5q-37 59 -37 153q0 119 53 236l9 20l-173 95q-96 -196 -96 -362q0 -137 67 -252q90 -152 288 -222.5t505 -72.5
q569 0 833 276q23 -63 62 -109q125 -161 385 -164h8q41 0 70 28.5t29 69.5t-29 70t-70 29z" />
    <glyph glyph-name="uni066F.init" unicode="&#x66f;" horiz-adv-x="932" 
d="M752 212q62 74 83 214h1q5 52 5 84q0 154 -46 282q-33 91 -86 166t-125 121t-156 46q-60 0 -116 -30q-66 -36 -114.5 -106.5t-74 -154.5t-25.5 -160q0 -47 11 -88q32 -116 135.5 -177t261.5 -61h101l-16 -18q-28 -34 -79 -55t-142 -41q-172 -38 -371 -38q-42 0 -71 -28
t-29 -70q0 -40 28.5 -69t69.5 -29h17q565 7 738 212zM480 910q68 -51 109.5 -146t50.5 -216q-58 -2 -78 -2q-79 0 -132 7q-33 4 -54.5 12t-41.5 23q-39 29 -39 88q0 101 63 197q36 54 70 54q29 0 52 -17z" />
    <glyph glyph-name="uni066F.medi" unicode="&#x66f;" horiz-adv-x="1001" 
d="M497 71q231 -71 500 -71h9q43 0 71 27.5t28 70.5q0 41 -29 69.5t-70 28.5q-167 0 -287 24q53 57 84 139.5t31 171.5q0 65 -18 131q-34 121 -120.5 195.5t-212.5 80.5h-12q-93 0 -177.5 -64t-136 -172.5t-51.5 -232.5q0 -144 130 -258q-131 -15 -290 -15
q-43 0 -70.5 -27.5t-27.5 -70.5q0 -42 28 -70t70 -28h8q357 0 543 71zM544 714q38 -34 60.5 -90t22.5 -120q0 -77 -36.5 -133.5t-100.5 -84.5q-188 83 -188 183q0 73 27.5 135.5t69 99.5t82.5 37q33 0 63 -27z" />
    <glyph glyph-name="uni066F.fina" unicode="&#x66f;" horiz-adv-x="1570" 
d="M1641 167.5q-29 28.5 -70 28.5h-56q-36 0 -45 1q-13 332 -188 520q-117 129 -260 129q-66 0 -125 -33q-87 -50 -146 -149t-79 -226q-8 -50 -8 -85q0 -106 54 -185.5t146 -120.5q114 -50 368 -50h24q-16 -86 -66 -183q-132 -252 -433 -252q-147 0 -255 53t-166.5 152
t-58.5 236q0 33 3 67q18 177 130 387l-175 93q-157 -298 -157 -546q0 -80 17 -157q33 -149 123 -258t227.5 -167.5t311.5 -58.5q232 0 398 115q117 82 197.5 220t104.5 302h114q42 0 70.5 28t28.5 70q0 41 -29 69.5zM896 512q19 50 56 93t70 43q36 0 64 -21q84 -62 132 -174
t55 -257h-21q-10 -1 -23 -1t-24 1h-25h-15q-78 3 -118 7t-85 17q-98 29 -98 135q0 70 32 157z" />
    <glyph glyph-name="uni06AA.init" unicode="&#x6aa;" horiz-adv-x="2138" 
d="M1954 72l72 6l81 134l-6 13l-3 9q-6 9 -12 23q-107 227 -256 312q-97 61 -285 61q-117 0 -307 -23l-124 -15q-119 -11 -304 -11h-1q-289 0 -377 45q5 66 90 144q88 80 249.5 156.5t346.5 133.5l35 11l-13 50q-6 20 -12 45l-11 42q-12 41 -14 51q-1 -1 -41 -12
q-57 -17 -98 -31q-401 -140 -584 -312q-142 -133 -142 -282q0 -22 1 -29v-2q2 -28 20 -62q27 -52 96.5 -83t186 -44.5t292.5 -13.5q91 0 206 5l65 5q43 4 69 4l5 1l22 3q188 27 329 27q96 0 159 -17.5t104.5 -55.5t72.5 -101q-618 -47 -726 -52l-1208 -12v-195l1219 14
q297 15 803 58z" />
    <glyph glyph-name="uni06AA.medi" unicode="&#x6aa;" horiz-adv-x="2665" 
d="M604 -2q47 -1 111 -1h163q72 -1 161 -1q210 0 360 8q530 27 803 58q60 7 72 7h1q207 -69 410 -69v196q-151 0 -241.5 22t-133.5 79l-8 16t-5 9l-15 27q-97 166 -200 225q-70 44 -260 44q-52 0 -119.5 -3.5t-115.5 -8.5q-108 -11 -225 -24q-121 -11 -304 -11h-1
q-284 0 -377 46q4 66 90 144q88 80 250 157t346 134q31 10 36 10q-29 98 -51 187q-1 -1 -41 -12q-34 -10 -97 -31q-394 -130 -585 -312q-142 -132 -142 -282q0 -22 1 -29v-1q9 -82 82 -126.5t180.5 -60.5t254.5 -18h46q120 0 238 7l65 5q43 4 69 4h5l22 3q217 31 354 31
q70 0 119 -7q48 -7 69.5 -18.5t52.5 -48.5q46 -53 69 -104l-152 -13q-84 -8 -71 -7q-206 -20 -343 -26.5t-429 -6.5h-269q-65 0 -115 -1t-110 -1h-424l-223 2v-195h87q38 -1 84 -1q98 0 176 -1q77 -1 178 -1h102z" />
    <glyph glyph-name="uni06AA.fina" unicode="&#x6aa;" horiz-adv-x="2729" 
d="M2357 313q-3 6 -5 9l-15 27q-97 166 -200 225q-68 44 -260 44q-63 0 -123 -4q-67 -3 -123.5 -9t-74.5 -8l-36 -4q-87 -10 -102 -11q-121 -11 -305 -11h-1q-286 0 -377 46q5 68 89 144q88 80 250.5 157t347.5 134q31 10 35 10q-29 98 -51 187q-1 -1 -41 -12
q-34 -10 -97 -31q-394 -130 -585 -312q-142 -132 -142 -282q0 -22 1 -29v-1q8 -71 61 -112t151 -64q121 -26 305 -29h46q120 0 238 7l65 5q43 4 69 4h5l22 3q217 31 354 31q70 0 119 -7q47 -6 68 -18t53 -49q46 -54 70 -104q-907 -70 -1441 -70q-419 0 -670 43l-32 -192
q276 -45 740 -45q785 0 1493 77q60 7 71 7q12 -6 38 -13q207 -56 373 -56l1 196q-151 0 -242 22t-134 79z" />
    <glyph glyph-name="uniFB51" unicode="&#x671;" horiz-adv-x="678" arabic-form="final" 
d="M338 1839q-32 -33 -53.5 -63.5t-44.5 -73.5q-31 45 -90 45q-51 0 -121 -37l18 -68q62 41 100 41q21 0 34 -10q26 -36 68 -49.5t119 -13.5q67 0 130 17q66 17 108.5 54.5t42.5 86.5q0 60 -41 100t-101 40q-100 0 -169 -69zM303 1679q32 71 83.5 117.5t114.5 46.5
q35 0 57.5 -18t22.5 -48q-9 -101 -217 -101q-34 0 -61 3zM735.5 168q-28.5 28 -70.5 28h-9q-66 2 -106 14q-53 15 -73.5 48.5t-20.5 99.5v87q0 24 1 47v57v144q0 130 -1 169q0 447 -36 652l-196 -36q16 -78 25 -201q6 -94 8 -162.5t2 -178.5v-81v-17q1 -39 1 -167v-139
q0 -43 -1 -72l-2 -61v-19q0 -81 11 -128q60 -252 397 -252q41 0 70 28.5t29 69.5q0 42 -28.5 70z" />
    <glyph glyph-name="uniFB57" unicode="&#x67e;" horiz-adv-x="2238" arabic-form="final" 
d="M2236 197q-284 0 -293 263v8q0 47 34 190l-190 52q-38 -131 -85 -214t-120 -139q-106 -86 -258.5 -123.5t-375.5 -37.5q-244 2 -398.5 50.5t-217.5 155.5q-37 59 -37 153q0 119 53 236l9 20l-173 95q-96 -196 -96 -362q0 -137 67 -252q90 -152 288 -222.5t505 -72.5
q569 0 833 276q23 -63 62 -109q125 -161 385 -164h8q41 0 70 28.5t29 69.5t-29 70t-70 29zM1236 -461l164 164l-162 162l-164 -164zM799 -463l164 164l-162 163l-164 -164zM1022 -749l149 149l-148 148l-149 -149z" />
    <glyph glyph-name="uniFB58" unicode="&#x67e;" horiz-adv-x="864" arabic-form="initial" 
d="M-69.5 168q-28.5 -28 -28.5 -70t28.5 -70t69.5 -28h216q86 0 170 10q233 26 321 224q30 69 30 161q0 102 -40 241t-99 268l-5 11l-4 7l-1 2l-178 -88l33 -75l29 -69q51 -128 66 -256q3 -22 3 -42q0 -49 -21 -87q-21 -36 -53 -57.5t-82 -33.5q-47 -11 -92 -15.5t-106 -4.5
h-187q-41 0 -69.5 -28zM590 -512l164 164l-162 162l-164 -164zM153 -514l164 164l-162 163l-164 -164zM376 -800l149 149l-148 148l-149 -149z" />
    <glyph glyph-name="uniFB59" unicode="&#x67e;" horiz-adv-x="859" arabic-form="medial" 
d="M458 318q-48 -66 -144 -93.5t-245 -27.5h-76q-41 0 -69.5 -29t-28.5 -70q0 -42 28 -70t70 -28h76q375 0 509 128q98 -128 275 -128q42 0 70 28t28 70t-29 70t-71 28q-156 0 -166 235q-5 147 -48 312l-187 -53q39 -133 39 -250q0 -82 -31 -122zM581 -466l164 164l-162 162
l-164 -164zM144 -468l164 164l-162 163l-164 -164zM367 -754l149 149l-148 148l-149 -149z" />
    <glyph glyph-name="uniFB67" unicode="&#x679;" horiz-adv-x="2236" arabic-form="final" 
d="M1161 1139q-94 -15 -197 -112q-1 18 -1 59q0 25 -1 30q-5 35 -13 140q-5 68 -13 134l-3 24l-84 -16q30 -184 30 -352q0 -46 -12 -123q-18 -22 -56 -76q-56 16 -110 35l-32 -79q135 -54 272 -60h3q5 -1 25 -1h14q7 -1 15 -1q186 0 301 106l1 2q25 25 43 66t18 80
q0 65 -48.5 105.5t-120.5 40.5q-17 0 -31 -2zM1240 908q-91 -81 -226 -81q-53 0 -67 1h-2q-19 0 -40 3q96 127 174 181q65 44 119 44q31 0 55 -21t24 -54q0 -40 -37 -73zM2236 197q-284 0 -293 263v8q0 47 34 190l-190 52q-38 -131 -85 -214t-120 -139
q-106 -86 -258.5 -123.5t-375.5 -37.5q-244 2 -398.5 50.5t-217.5 155.5q-37 59 -37 153q0 119 53 236l9 20l-173 95q-96 -196 -96 -362q0 -137 67 -252q90 -152 288 -222.5t505 -72.5q569 0 833 276q23 -63 62 -109q125 -161 385 -164h8q41 0 70 28.5t29 69.5t-29 70
t-70 29z" />
    <glyph glyph-name="uniFB68" unicode="&#x679;" horiz-adv-x="744" arabic-form="initial" 
d="M446 1425q-94 -15 -197 -112q-1 18 -1 59q0 25 -1 30q-5 35 -13 140q-5 68 -13 134l-3 24l-84 -16q30 -184 30 -352q0 -46 -12 -123l-27 -37l-29 -39q-56 16 -110 35l-32 -79q135 -54 272 -60h3q5 -1 25 -1h14q7 -1 15 -1q186 0 301 106l1 2q25 25 43 66t18 80
q0 65 -48.5 105.5t-120.5 40.5q-17 0 -31 -2zM525 1194q-92 -81 -226 -81q-53 0 -67 1h-2q-19 0 -40 3q96 127 174 181q65 44 119 44q31 0 55 -21t24 -54q0 -40 -37 -73zM238 3q130 8 221 69q166 111 166 323q0 102 -40 241t-99 268l-5 11l-4 7l-1 2l-178 -88l33 -75l29 -69
q51 -128 66 -256q2 -18 2 -40q0 -109 -74.5 -155t-220.5 -46q-9 0 -17 1h-18h-103q-41 0 -69.5 -29t-28.5 -69t28.5 -69t69.5 -29h146q46 0 97 3z" />
    <glyph glyph-name="uniFB69" unicode="&#x679;" horiz-adv-x="859" arabic-form="medial" 
d="M545 1275q-94 -15 -197 -112q-1 18 -1 59q0 25 -1 30q-5 35 -13 140q-5 68 -13 134l-3 24l-84 -16q30 -185 30 -352q0 -46 -12 -123q-38 -54 -56 -76q-56 16 -110 35l-32 -79q135 -54 272 -60h3q5 -1 25 -1h14q7 -1 15 -1q186 0 301 106l1 2q25 25 43 66t18 80
q0 65 -48.5 105.5t-120.5 40.5q-17 0 -31 -2zM624 1044q-91 -81 -226 -81q-53 0 -67 1h-2q-19 0 -40 3q96 127 174 181q65 44 119 44q31 0 55 -21t24 -54q0 -40 -37 -73zM458 318q-48 -66 -144 -93.5t-245 -27.5h-76q-41 0 -69.5 -29t-28.5 -70q0 -42 28 -70t70 -28h76
q375 0 509 128q98 -128 275 -128q42 0 70 28t28 70t-29 70t-71 28q-156 0 -166 235q-5 147 -48 312l-187 -53q39 -133 39 -250q0 -82 -31 -122z" />
    <glyph glyph-name="uniFB6A" unicode="&#x6a4;" horiz-adv-x="1975" arabic-form="isolated" 
d="M1597 1788l-149 149l-148 -148l149 -149zM1385 1487l-164 164l-162 -163l164 -164zM1824 1485l-164 164l-162 -162l164 -164zM1474 1132q-69 0 -124 -34q-66 -40 -112.5 -113t-69.5 -155t-23 -149q0 -47 11 -89q32 -116 134.5 -176.5t261.5 -60.5h99q-32 -36 -86 -64
q-184 -103 -571 -103q-409 0 -572 128q-61 47 -90 104t-29 141q0 124 55 233l9 19l-174 95q-2 -7 -15 -32q-10 -21 -28 -72q-42 -126 -46 -228v-13q-1 -5 -1 -12q0 -133 68 -246q178 -304 784 -304q114 0 223 9q445 38 600 193q57 57 82.5 132.5t25.5 187.5q0 139 -48 273.5
t-124 216.5q-107 119 -240 119zM1340 745q12 57 38 106t60 72q16 11 35 11q48 0 94 -54q45 -49 71.5 -125.5t48.5 -199.5q-48 -4 -92 -4q-46 0 -81 3q-36 2 -71 12t-57 25q-23 16 -37 43.5t-14 64.5q0 16 5 46z" />
    <glyph glyph-name="uniFB6B" unicode="&#x6a4;" horiz-adv-x="2150" arabic-form="final" 
d="M1783 1575l-149 149l-148 -148l149 -149zM1571 1274l-164 164l-162 -163l164 -164zM2010 1272l-164 164l-162 -162l164 -164zM1966.5 737.5q-39.5 91.5 -116 146t-183.5 54.5q-78 0 -145 -37q-106 -57 -169.5 -172t-63.5 -260q0 -151 137 -264q-171 -34 -397 -34
q-98 0 -173 5t-149 19q-80 15 -139.5 38t-109.5 60q-57 43 -88.5 100t-31.5 144q0 126 55 235l9 19l-174 95q-2 -7 -15 -32q-74 -153 -74 -308q0 -153 67 -263q100 -170 316.5 -240.5t487.5 -70.5q136 0 265.5 14t228.5 34q36 7 100 28q61 20 77 24q215 -72 471 -72
q42 0 70.5 28t28.5 70q0 41 -29 69.5t-70 28.5q-115 0 -251 24q105 105 105 316q0 110 -39.5 201.5zM1533 376q-45 47 -45 93q0 75 27 137t69 97.5t83 35.5q47 0 82 -30q58 -51 58 -173q0 -94 -32 -152t-102 -98l-13 7q-82 36 -127 83z" />
    <glyph glyph-name="uniFB6C" unicode="&#x6a4;" horiz-adv-x="936" arabic-form="initial" 
d="M581 1738l-149 149l-148 -148l149 -149zM369 1437l-164 164l-162 -163l164 -164zM808 1435l-164 164l-162 -162l164 -164zM752 212q62 74 83 214h1q5 52 5 84q0 154 -46 282q-33 91 -86 166t-125 121t-156 46q-60 0 -116 -30q-66 -36 -114.5 -106.5t-74 -154.5
t-25.5 -160q0 -47 11 -88q32 -116 135.5 -177t261.5 -61h101l-16 -18q-28 -34 -79 -55t-142 -41q-172 -38 -371 -38q-42 0 -71 -28t-29 -70q0 -40 28.5 -69t69.5 -29h17q565 7 738 212zM480 910q68 -51 109.5 -146t50.5 -216q-58 -2 -78 -2q-79 0 -132 7q-33 4 -54.5 12
t-41.5 23q-39 29 -39 88q0 101 63 197q36 54 70 54q29 0 52 -17z" />
    <glyph glyph-name="uniFB6D" unicode="&#x6a4;" horiz-adv-x="1078" arabic-form="medial" 
d="M666 1562l-149 149l-148 -148l149 -149zM454 1261l-164 164l-162 -163l164 -164zM893 1259l-164 164l-162 -162l164 -164zM562 71q231 -71 500 -71h9q43 0 71 27.5t28 70.5q0 41 -29 69.5t-70 28.5q-167 0 -287 24q53 57 84 139.5t31 171.5q0 65 -18 131
q-34 121 -120.5 195.5t-212.5 80.5h-12q-93 0 -177.5 -64t-136 -172.5t-51.5 -232.5q0 -144 130 -258q-130 -15 -290 -15q-43 0 -70.5 -27.5t-27.5 -70.5q0 -42 28 -70t70 -28h8q357 0 543 71zM609 714q38 -34 60.5 -90t22.5 -120q0 -77 -36.5 -133.5t-100.5 -84.5
q-188 83 -188 183q0 73 27.5 135.5t69 99.5t82.5 37q33 0 63 -27z" />
    <glyph glyph-name="uniFB7B" unicode="&#x686;" horiz-adv-x="1738" arabic-form="final" 
d="M632 -530q-132 70 -191 172.5t-59 221.5q0 82 26 148q52 133 187 236q196 146 572 191q-1 -5 -1 -18t1 -20q3 -67 24 -125q52 -144 185 -210t356 -66q41 0 70 28t29 68q0 42 -28.5 71t-70.5 29q-62 0 -117 5q-53 5 -101.5 19.5t-78.5 38.5q-33 25 -52 68t-19 99
q0 13 2 31q102 5 160 5q16 0 27 -1l19 -1h18l38 192q-107 36 -226 88t-273 128l-50 25q-106 51 -166 77t-123.5 42.5t-128.5 16.5q-158 0 -292 -110q-62 -51 -118 -127t-70 -119l184 -76q25 61 88 132q98 101 210 101q65 0 141 -29.5t204 -94.5q22 -10 33 -16l108 -52
q-559 -67 -811 -360q-100 -139 -133 -272q-20 -83 -20 -161q0 -148 69.5 -270.5t191.5 -211.5q208 -154 498 -154q394 0 635 216l-129 152q-194 -182 -494 -182q-184 0 -324 75zM1115 -201l154 153l-152 152l-153 -154zM707 -203l153 153l-151 153l-153 -154zM915 -470
l140 139l-139 138l-139 -139z" />
    <glyph glyph-name="uniFB7C" unicode="&#x686;" horiz-adv-x="1559" arabic-form="initial" 
d="M496 28q377 74 788 282q177 90 283 133l-38 190q-61 0 -121 13t-134 39q-65 22 -100.5 37.5t-130.5 60.5q-146 69 -200 91q-41 16 -99 29t-110 13q-95 0 -184 -47q-76 -40 -148.5 -121.5t-121.5 -177.5q-7 -15 -9 -17l180 -81q0 4 10 20q41 70 70 104q49 60 96.5 91.5
t106.5 31.5q54 0 111 -21t205 -90l29 -13q150 -68 235 -99q-288 -145 -538 -222.5t-479 -77.5h-198q-42 0 -71 -28t-29 -70q0 -43 28.5 -70.5t71.5 -27.5h198q156 0 299 28zM969 -455l164 164l-162 162l-164 -164zM532 -457l164 164l-162 163l-164 -164zM755 -743l149 149
l-148 148l-149 -149z" />
    <glyph glyph-name="uniFB7D" unicode="&#x686;" horiz-adv-x="1663" arabic-form="medial" 
d="M448 22q168 31 326.5 90.5t359.5 159.5q53 -133 187.5 -202.5t331.5 -69.5h14q42 0 70.5 27.5t28.5 69.5t-28 70.5t-71 28.5h-14q-134 0 -225.5 41t-114.5 123q94 46 182 84l-39 189q-66 0 -122 13q-86 19 -181 57.5t-214 96.5q-118 56 -210 86.5t-168 30.5
q-95 0 -183 -48q-79 -43 -151.5 -123.5t-120.5 -174.5q-7 -13 -7 -16l181 -82q54 104 121 174.5t160 70.5q29 0 69 -10q111 -26 276 -107q168 -82 236 -105l-156 -77q-58 -29 -147.5 -68t-158.5 -63q-264 -92 -497 -92h-183q-42 0 -70.5 -28t-28.5 -71q0 -41 29 -69t70 -28
l183 -1q141 0 265 23zM968 -461l164 164l-162 162l-164 -164zM531 -463l164 164l-162 163l-164 -164zM754 -749l149 149l-148 148l-149 -149z" />
    <glyph glyph-name="uniFB89" unicode="&#x688;" horiz-adv-x="1264" arabic-form="final" 
d="M738 1693q-94 -15 -197 -112q-1 18 -1 59q0 25 -1 30q-5 35 -13 140q-5 68 -13 134l-3 24l-84 -16q30 -185 30 -352q0 -46 -12 -123q-38 -54 -56 -76q-56 16 -110 35l-32 -79q135 -54 272 -60h3q5 -1 25 -1h14q7 -1 15 -1q186 0 301 106l1 2q25 25 43 66t18 80
q0 65 -48.5 105.5t-120.5 40.5q-17 0 -31 -2zM817 1462q-92 -81 -226 -81q-53 0 -67 1h-2q-19 0 -40 3q96 127 174 181q65 44 119 44q31 0 55 -21t24 -54q0 -40 -37 -73zM1262 0q41 0 70 28.5t29 69.5t-29 69.5t-70 28.5q-66 0 -108 16q-22 8 -38 21q-19 13 -29.5 25
t-21.5 33q-11 20 -18 36.5t-16 40.5l-16 41q-237 569 -306 739l-182 -76l316 -760q-50 -50 -124 -81t-154 -31q-41 0 -83 9q-126 28 -242 135l-113 -159q179 -185 404 -185q124 0 221.5 33t187.5 100q103 -133 322 -133z" />
    <glyph glyph-name="uniFB8B" unicode="&#x698;" horiz-adv-x="871" arabic-form="final" 
d="M595 1296l-149 149l-148 -148l149 -149zM383 995l-164 164l-162 -163l164 -164zM822 993l-164 164l-162 -162l164 -164zM945.5 27.5q28.5 27.5 28.5 69.5t-28 70.5t-71 28.5h-5q-55 0 -94 24t-78 76q-44 57 -77.5 133t-72.5 197l-188 -58q93 -284 116 -462l2 -38
q0 -55 -13 -98q-38 -140 -166 -272t-371 -259l86 -177q187 94 320 206q166 140 253.5 291t87.5 310v4q73 -73 199 -73h1q42 0 70.5 27.5z" />
    <glyph glyph-name="uniFB8D" unicode="&#x691;" horiz-adv-x="826" arabic-form="final" 
d="M516 1207q-94 -15 -197 -112q-1 18 -1 59q0 25 -1 30q-5 35 -13 140q-5 68 -13 134l-3 24l-84 -16q30 -184 30 -352q0 -46 -12 -123l-28 -38l-28 -38q-56 16 -110 35l-32 -79q135 -54 272 -60h3q5 -1 25 -1h14q7 -1 15 -1q186 0 301 106l1 2q25 25 43 66t18 80
q0 65 -48.5 105.5t-120.5 40.5q-17 0 -31 -2zM595 976q-91 -81 -226 -81q-53 0 -67 1h-2q-19 0 -40 3q96 127 174 181q65 44 119 44q31 0 55 -21t24 -54q0 -40 -37 -73zM895.5 27.5q28.5 27.5 28.5 69.5t-28 70.5t-71 28.5h-5q-55 0 -94 24t-78 76q-44 57 -77.5 133
t-72.5 197l-188 -58q93 -284 116 -462l2 -38q0 -55 -13 -98q-38 -140 -166 -272t-371 -259l86 -177q187 94 320 206q166 140 253.5 291t87.5 310v4q73 -73 199 -73h1q42 0 70.5 27.5z" />
    <glyph glyph-name="uniFB8F" unicode="&#x6a9;" horiz-adv-x="2321" arabic-form="final" 
d="M2390 28.5q28 28.5 28 69.5q0 42 -28 70t-70 28h-8q-255 3 -372 193q-34 55 -79 173q-44 116 -78 172q-139 230 -405 415l792 334l-75 182l-897 -386l-22 -206q139 -109 241 -202q110 -102 182 -209.5t72 -192.5q0 -75 -45 -123t-133 -81q-168 -68 -429 -68l-98 2
q-589 0 -688 203q-19 37 -19 86q0 115 87 250l-158 118q-34 -57 -47 -80.5t-35 -70.5q-47 -97 -47 -201q0 -94 41 -187q0 -3 1 -4q35 -67 86.5 -115t127.5 -87l74 -29q216 -82 568 -82h92q343 0 549 94q138 65 194 156q85 -119 220 -184.5t308 -65.5q42 0 70 28.5z" />
    <glyph glyph-name="uniFB90" unicode="&#x6a9;" horiz-adv-x="1023" arabic-form="initial" 
d="M-77 168.5q-31 -27.5 -31 -71.5q0 -42 31 -69.5t77 -27.5h323q55 0 87 7q263 48 338 281q20 65 20 137q0 106 -38 205.5t-114 201.5q-70 93 -136.5 159.5t-174.5 157.5l716 301l-77 182l-822 -352l-23 -205q260 -208 411 -427q70 -101 70 -196q0 -38 -8 -73
q-9 -34 -23.5 -58.5t-37.5 -43.5q-26 -21 -50 -33.5t-57 -21.5q-38 -9 -68 -14t-73 -8q-59 -4 -158 -4h-105q-46 0 -77 -27.5z" />
    <glyph glyph-name="uniFB91" unicode="&#x6a9;" horiz-adv-x="1209" arabic-form="medial" 
d="M721 219q84 -111 196 -165t273 -54h8q42 0 70 28t28 70q0 41 -28 69.5t-70 28.5h-42q-76 2 -140 32t-105 75q-37 39 -71 95.5t-108 195.5q-67 126 -105 189q-126 216 -319 370l793 333l-77 182l-884 -381l-26 -221q255 -196 388 -433q71 -127 71 -219q0 -54 -26 -98
q-32 -53 -87.5 -86.5t-119.5 -33.5h-339q-42 0 -70.5 -28t-28.5 -70q0 -41 29 -69.5t70 -28.5h326q281 10 394 219z" />
    <glyph glyph-name="uniFB93" unicode="&#x6af;" horiz-adv-x="2309" arabic-form="final" 
d="M1181 1542l-7 -128l873 380l-47 101zM2390 28.5q28 28.5 28 69.5q0 42 -28 70t-70 28h-8q-255 3 -372 193q-34 55 -79 173q-44 116 -78 172q-139 230 -405 415l792 334l-75 182l-897 -386l-22 -206q139 -109 241 -202q110 -102 182 -209.5t72 -192.5q0 -75 -45 -123
t-133 -81q-168 -68 -429 -68l-98 2q-589 0 -688 203q-19 37 -19 86q0 115 87 250l-158 118q-34 -57 -47 -80.5t-35 -70.5q-47 -97 -47 -201q0 -94 41 -187q0 -3 1 -4q35 -67 86.5 -115t127.5 -87l74 -29q216 -82 568 -82h92q343 0 549 94q138 65 194 156q85 -119 220 -184.5
t308 -65.5q42 0 70 28.5z" />
    <glyph glyph-name="uniFB94" unicode="&#x6af;" horiz-adv-x="1022" arabic-form="initial" 
d="M117 1548l-7 -128l804 340l-47 101zM-73 168.5q-31 -27.5 -31 -71.5q0 -42 31 -69.5t77 -27.5h323q55 0 87 7q263 48 338 281q20 65 20 137q0 106 -38 205.5t-114 201.5q-70 93 -136.5 159.5t-174.5 157.5l716 301l-77 182l-822 -352l-23 -205q260 -208 411 -427
q70 -101 70 -196q0 -38 -8 -73q-9 -34 -23.5 -58.5t-37.5 -43.5q-26 -21 -50 -33.5t-57 -21.5q-38 -9 -68 -14t-73 -8q-59 -4 -158 -4h-105q-46 0 -77 -27.5z" />
    <glyph glyph-name="uniFB95" unicode="&#x6af;" horiz-adv-x="1187" arabic-form="medial" 
d="M157 1577l-7 -128l804 340l-47 101zM721 219q84 -111 196 -165t273 -54h8q42 0 70 28t28 70q0 41 -28 69.5t-70 28.5h-42q-76 2 -140 32t-105 75q-37 39 -71 95.5t-108 195.5q-67 126 -105 189q-126 216 -319 370l793 333l-77 182l-884 -381l-26 -221q255 -196 388 -433
q71 -127 71 -219q0 -54 -26 -98q-32 -53 -87.5 -86.5t-119.5 -33.5h-339q-42 0 -70.5 -28t-28.5 -70q0 -41 29 -69.5t70 -28.5h326q281 10 394 219z" />
    <glyph glyph-name="uniFB9F" unicode="&#x6ba;" horiz-adv-x="1709" arabic-form="final" 
d="M1707 196q-91 0 -157 48q-55 40 -98.5 98.5t-97.5 158.5q-44 94 -71 136l-167 -106q0 -2 6 -10q11 -14 31 -58l23 -50q94 -219 94 -416v-16q-7 -445 -544 -471q-2 -1 -10 -1h-24q-165 0 -269 75q-164 119 -164 363q0 124 40 257q17 59 27 86q11 33 31.5 76t40.5 67
l-160 116q-26 -37 -60 -107q-116 -240 -116 -492q0 -188 72 -326q77 -148 220 -229.5t339 -81.5h41q341 18 534 183q98 84 150 211.5t52 290.5l-2 64q107 -62 239 -62q42 0 70.5 28t28.5 70t-28 70t-71 28z" />
    <glyph glyph-name="uniFBA5" unicode="&#x6c0;" horiz-adv-x="1090" arabic-form="final" 
d="M355 1066l227 126l52 28q58 31 98 55q48 28 92 59l-59 78q-16 -13 -42.5 -29t-42.5 -25q-15 -9 -44 -18.5t-52 -9.5q-42 0 -78.5 24t-49.5 58l1 -1q-8 22 -8 36q0 33 20.5 62.5t50.5 41.5v-2q27 12 62 12q46 0 92 -13l28 92q-76 19 -120 19q-65 0 -118 -26.5t-83 -75
t-30 -110.5q0 -67 37.5 -118t97.5 -76l-179 -100zM892.5 38.5q78.5 -38.5 197.5 -38.5q42 0 70.5 28t28.5 70q0 41 -29 69.5t-70 28.5q-81 0 -123.5 28t-60.5 92q-40 140 -71 446q-3 25 -10 104q-12 143 -25 228l-196 -41v-4q3 -13 4 -33q1 -21 7 -66q1 -15 2 -26t2 -19
q-348 -127 -467 -370q-20 -48 -20 -103q0 -102 53 -167q101 -125 359 -125q106 0 219 19q51 -82 129.5 -120.5zM695 348q-81 -14 -143 -14q-47 0 -80 3.5t-69 12.5q-38 10 -59 33t-21 56q0 29 17 61q19 35 49 62l29 25q12 11 36 24q33 19 35 20q11 8 39 21q19 9 28.5 13
t16.5 7l33 14l36 16q32 -249 53 -354z" />
    <glyph glyph-name="uniFBA6" unicode="&#x6c1;" horiz-adv-x="983" arabic-form="isolated" 
d="M586 8q307 61 307 339q0 102 -61 225q-53 107 -133.5 203t-205.5 216l-38 34q-34 30 -36 32l-126 -153q0 -1 18 -16l48 -42q-63 -57 -117 -122q-163 -196 -163 -377q0 -103 49 -179t145.5 -122t211.5 -46q58 0 101 8zM496 200l-11 -1q-15 0 -21 1q-92 10 -140 44t-48 103
q0 51 24 103q60 131 197 254l2 -1l1 -1l1 -2q97 -110 146 -199t49 -154q0 -73 -49.5 -110t-136.5 -37h-14z" />
    <glyph glyph-name="uniFBA8" unicode="&#x6c1;" horiz-adv-x="728" arabic-form="initial" 
d="M198 3q130 8 221 69q166 111 166 323q0 102 -40 241t-99 268l-5 11l-4 7l-1 2l-178 -88l33 -75l29 -69q51 -128 66 -256q2 -18 2 -40q0 -109 -74.5 -155t-220.5 -46q-9 0 -17 1h-18h-58q-41 0 -69.5 -28t-28.5 -70t28.5 -70t69.5 -28h101q46 0 97 3zM580 14l-73 45
q-80 -106 -119 -195t-39 -173q0 -54 33.5 -90.5t87.5 -41.5q10 0 27 11q31 20 60 54.5t48 72.5q-29 9 -44.5 16t-32.5 18q-34 21 -34 68q0 96 86 215z" />
    <glyph glyph-name="uniFBA9" unicode="&#x6c1;" horiz-adv-x="1011" arabic-form="medial" 
d="M1015 196h-63q-121 0 -212 -38.5t-142 -111.5q-90 -129 -124 -316q-131 149 -131 375q0 84 18 180l-181 64q-7 -12 -22 -53q-12 -32 -20 -48q-14 -31 -48.5 -41.5t-101.5 -10.5v-196q83 0 164 23q35 -371 352 -569l149 84v28q0 220 103 368q46 66 197 66h62q41 0 69.5 29
t28.5 69q0 41 -28 69q-29 29 -70 29zM942 -115l-74 45q-37 -47 -64 -92q-43 -71 -63 -127.5t-20 -126.5q0 -54 33 -90t87 -41q9 1 27 11q33 18 62 52.5t47 73.5q-31 10 -46 16.5t-31 17.5q-34 23 -34 69q0 89 76 192z" />
    <glyph glyph-name="uniFBAB" unicode="&#x6be;" horiz-adv-x="1169" arabic-form="final" 
d="M948 -172q24 48 49 83t69.5 61t97.5 28h8q41 0 70 28.5t29 69.5t-29 69.5t-70 28.5q-66 0 -120 -19q-90 -30 -164.5 -100.5t-117.5 -162.5q-34 -64 -46 -137q-88 117 -137 238q205 36 320.5 163t115.5 332q0 156 -90 282q-1 2 -7 8q-15 17 -48 53q-22 22 -58.5 41.5
t-68.5 19.5q-34 0 -64 -15q-60 -29 -103 -72q-243 -243 -243 -554q0 -29 4 -76l-211 -84l-8 -3q-25 -9 -36.5 -15t-24.5 -16q-29 -22 -29 -65q0 -42 28 -70t70 -28l248 84l9 -25q55 -164 175.5 -320.5t312.5 -312.5l125 152l-25 21l1 2q-33 41 -48 80t-15 92q0 73 31 139z
M774 672q51 -70 51 -166q0 -225 -221 -285q-9 -3 -31 -6l-31 -7l-2 50q0 95 27 173q66 191 179 274q9 -7 28 -33z" />
    <glyph glyph-name="uniFBAC" unicode="&#x6be;" horiz-adv-x="1510" arabic-form="initial" 
d="M562 57q147 -60 338 -60q200 0 306 61l-1 -1q98 52 153.5 134.5t55.5 190.5q0 132 -92 260q-66 86 -236 179q-82 45 -139.5 72t-180.5 80l-348 143l-95 -180l79 -31q-60 -28 -103 -73q-127 -133 -127 -309q0 -72 38.5 -152t111.5 -159q-96 -16 -315 -16h-9
q-43 0 -72.5 -27.5t-29.5 -69.5q0 -43 29 -71t73 -28h9q375 0 555 57zM696.5 391.5q-54.5 -81.5 -144.5 -120.5q-43 28 -72 55q-57 50 -86 100t-29 114q0 47 19 94q28 73 78.5 118t117.5 45q85 0 128 -58t43 -160q0 -106 -54.5 -187.5zM1094.5 612q64.5 -54 98.5 -111
t34 -107q0 -40 -18 -78q-30 -62 -103 -94.5t-177 -32.5h-48q-46 0 -92 7q77 82 122 186.5t45 188.5q0 91 -13 136q87 -41 151.5 -95z" />
    <glyph glyph-name="uniFBAD" unicode="&#x6be;" horiz-adv-x="1003" arabic-form="medial" 
d="M738 -196q25 58 66 101q89 92 193 95h8q42 0 70.5 28t28.5 70t-28.5 70t-70.5 28q-58 0 -115 -18q-88 -28 -167 -86t-129 -144.5t-50 -191.5q0 -23 1 -30q-28 17 -61 56q-68 82 -131 233q149 24 254.5 101.5t147.5 199.5q29 60 29 160q0 136 -45 247t-123 162
q-44 29 -98 29q-70 0 -132 -42q-75 -51 -138 -153.5t-100.5 -231t-37.5 -253.5q0 -29 1 -38h-112q-42 0 -70 -28.5t-28 -69.5q0 -42 28 -70t70 -28h149l9 -25q132 -402 513 -633l125 152q-82 82 -82 191q0 61 25 119zM598 510q0 -56 -22 -115q-32 -86 -92.5 -137.5
t-144.5 -51.5l-31 2q-3 21 -3 44t3 50q20 170 96 306q51 91 108 97q86 -62 86 -195z" />
    <glyph glyph-name="uniFBAF" unicode="&#x6d2;" horiz-adv-x="1429" arabic-form="final" 
d="M1429 196h-523q-24 0 -89 -4q-218 -12 -334 -33.5t-218 -69.5q-98 -46 -144 -112t-46 -135q0 -45 20 -87q43 -92 177 -148q199 -83 621 -83q91 0 310 10l72 5q48 4 77 4l-20 194l-36 -3q-177 -15 -390 -15q-192 0 -347 17q-6 1 -25.5 4t-40.5 5q-13 1 -32.5 4t-34.5 7
l-32 7q-21 5 -32 9l-28 10q-32 11 -50 26l-6 5q-5 3 -9.5 7.5t-7.5 6.5q-9 7 -9 16q0 7 4 12q3 6 6.5 10t11.5 9l12 10q58 49 233 78q248 38 425 38h485q41 0 69.5 29t28.5 69q0 41 -28 69q-29 29 -70 29z" />
    <glyph glyph-name="uniFBB1" unicode="&#x6d3;" horiz-adv-x="1455" arabic-form="final" 
d="M294 207l227 126l52 28q58 31 98 55q48 28 92 59l-59 78q-16 -13 -42.5 -29t-42.5 -25q-15 -9 -44 -18.5t-52 -9.5q-42 0 -78.5 24t-49.5 58l1 -1q-8 22 -8 36q0 33 20.5 62.5t50.5 41.5v-2q27 12 62 12q46 0 92 -13l28 92q-76 19 -120 19q-65 0 -118 -26.5t-83 -75
t-30 -110.5q0 -67 37.5 -118t97.5 -76l-179 -100zM1451 196h-523q-24 0 -89 -4q-218 -12 -334 -33.5t-218 -69.5q-98 -46 -144 -112t-46 -135q0 -45 20 -87q43 -92 177 -148q199 -83 621 -83q91 0 310 10l72 5q48 4 77 4l-20 194l-36 -3q-177 -15 -390 -15q-192 0 -347 17
q-6 1 -25.5 4t-40.5 5q-13 1 -32.5 4t-34.5 7l-32 7q-21 5 -32 9l-28 10q-32 11 -50 26l-6 5q-5 3 -9.5 7.5t-7.5 6.5q-9 7 -9 16q0 7 4 12q3 7 6.5 10.5t11.5 8.5l12 10q58 49 233 78q248 38 425 38h485q41 0 69.5 29t28.5 69q0 41 -28 69q-29 29 -70 29z" />
    <glyph glyph-name="uniFBE8" unicode="&#x649;" horiz-adv-x="708" arabic-form="initial" 
d="M236 3q130 8 221 69q166 111 166 323q0 102 -40 241t-99 268l-5 11l-4 7l-1 2l-178 -88l33 -75l29 -69q51 -128 66 -256q2 -18 2 -40q0 -109 -74.5 -155t-220.5 -46q-9 0 -17 1h-18h-103q-41 0 -69.5 -29t-28.5 -69t28.5 -69t69.5 -29h146q46 0 97 3z" />
    <glyph glyph-name="uniFBE9" unicode="&#x649;" horiz-adv-x="705" arabic-form="medial" 
d="M431 124q96 -124 274 -124q42 0 70 28t28 70t-28.5 70t-70.5 28q-35 0 -65 14q-28 13 -46 34t-30 54q-11 31 -17 61t-9 72l-10 115q-5 44 -14.5 99t-22.5 95l-188 -53q39 -138 39 -251q0 -127 -79.5 -183.5t-240.5 -56.5h-17q-42 0 -70 -28.5t-28 -69.5q0 -42 28 -70
t70 -28h17q283 0 410 124z" />
    <glyph glyph-name="uniFBFD" unicode="&#x6cc;" horiz-adv-x="1686" arabic-form="final" 
d="M1786 28.5q29 28.5 29 69.5t-29 69.5t-70 28.5l-770 1l-15 -194l22 -4q13 -2 41 -9q252 -58 348 -136l23 -19q8 -7 16 -20.5t8 -24.5q0 -88 -119 -150q-85 -43 -203.5 -69t-236.5 -26l-114 2q-182 4 -301.5 89t-119.5 312q0 50 5 95q24 218 152 535l-183 74
q-81 -194 -126 -373t-45 -328q0 -222 97 -361q76 -127 234.5 -184.5t400.5 -57.5q188 0 350 46q177 49 290.5 149.5t115.5 246.5q0 66 -27.5 115t-81.5 95h239q41 0 70 28.5z" />
    <glyph glyph-name="uniFBFE" unicode="&#x6cc;" horiz-adv-x="868" arabic-form="initial" 
d="M-120.5 168q-28.5 -28 -28.5 -70t28.5 -70t69.5 -28h216q86 0 170 10q233 26 321 224q30 69 30 161q0 102 -40 241t-99 268l-5 11l-4 7l-1 2l-178 -88l33 -75l29 -69q51 -128 66 -256q3 -22 3 -42q0 -49 -21 -87q-21 -36 -53 -57.5t-82 -33.5q-47 -11 -92 -15.5
t-106 -4.5h-187q-41 0 -69.5 -28zM7 -344l164 -163l162 162l-164 164zM417 -345l164 -164l162 163l-164 163z" />
    <glyph glyph-name="uniFBFF" unicode="&#x6cc;" horiz-adv-x="860" arabic-form="medial" 
d="M458 318q-48 -66 -144 -93.5t-245 -27.5h-76q-41 0 -69.5 -29t-28.5 -70q0 -42 28 -70t70 -28h76q375 0 509 128q98 -128 275 -128q42 0 70 28t28 70t-29 70t-71 28q-156 0 -166 235q-5 147 -48 312l-187 -53q39 -133 39 -250q0 -82 -31 -122zM-15 -379l164 -163l162 162
l-164 164zM395 -380l164 -164l162 163l-164 163z" />
    <glyph glyph-name="uniFC5E" unicode="&#xfc5e;" arabic-form="isolated" 
d="M471.5 1933q-18.5 41 -51 64.5t-73.5 23.5q-33 0 -69 -18q-46 -22 -75.5 -60t-29.5 -84q0 -60 42.5 -103t113.5 -66l5 -4q-70 -48 -203 -88q7 32 7 75q0 57 -34.5 94.5t-88.5 37.5q-35 0 -71.5 -17.5t-62.5 -43.5l61 -61q37 37 74 37q39 -4 39 -57q0 -25 -8.5 -56.5
t-18.5 -47.5l46 -65l28 7l125 38q50 16 108 47t92 65l47 -14l25 83q-5 1 -15 4t-13 4q19 66 19 115t-18.5 90zM390 1756l-24 11l-40 20q-35 16 -50 31.5t-15 38.5q0 18 13.5 35.5t34 29t38.5 11.5q55 0 55 -90q0 -37 -12 -87zM474 1307q0 -71 -63 -76q-29 0 -45 25
q-27 39 -40 153q0 1 -5 1q-13 0 -72 -8l1 -16v-20q0 -74 -19 -111.5t-67 -37.5q-29 0 -47.5 14.5t-18.5 40.5q0 48 25 105l-77 36q-13 -23 -23.5 -62t-10.5 -72q0 -66 41 -104.5t114 -42.5h6q79 0 125 67q42 -52 109 -52q43 0 79 22t56.5 59.5t20.5 81.5q0 37 -15 81
q-14 39 -26 61.5t-40 64.5l-71 -49q63 -76 63 -161z" />
    <glyph glyph-name="uniFC5F" unicode="&#xfc5f;" arabic-form="isolated" 
d="M403 1838q0 -71 -63 -76q-29 0 -45 25q-27 39 -40 153q0 1 -5 1q-13 0 -72 -8l1 -16v-20q0 -74 -19 -111.5t-67 -37.5q-29 0 -47.5 14.5t-18.5 40.5q0 48 25 105l-77 36q-13 -23 -23.5 -62t-10.5 -72q0 -66 41 -104.5t114 -42.5h6q79 0 125 67q42 -52 109 -52q43 0 79 22
t56.5 59.5t20.5 81.5q0 38 -15 81q-14 39 -26 61.5t-40 64.5l-71 -49q63 -77 63 -161zM8 1492v-111l422 174v104zM8 1233v-111l422 174v104z" />
    <glyph glyph-name="uniFC60" unicode="&#xfc60;" arabic-form="isolated" 
d="M41 1599v-111l467 196v104zM467 1306q0 -71 -63 -76q-29 0 -45 25q-27 39 -40 153q0 1 -5 1q-13 0 -72 -8l1 -16v-20q0 -74 -19 -111.5t-67 -37.5q-29 0 -47.5 14.5t-18.5 40.5q0 48 25 105l-77 36q-13 -23 -23.5 -62t-10.5 -72q0 -66 41 -104.5t114 -42.5h6q79 0 125 67
q42 -52 109 -52q43 0 79 22t56.5 59.5t20.5 81.5q0 37 -15 81q-14 39 -26 61.5t-40 64.5l-71 -49q63 -76 63 -161z" />
    <glyph glyph-name="uniFC61" unicode="&#xfc61;" arabic-form="isolated" 
d="M413.5 1960q-39.5 50 -104.5 50q-44 0 -84 -24.5t-64.5 -62t-24.5 -74.5q0 -52 27 -83q19 -22 30 -32t33 -21q36 -19 74 -36q-96 -72 -272 -122l24 -84q101 24 190 69.5t147 103.5l27 -9l21 -7l25 83q-3 1 -13 4t-15 4q19 57 19 116q0 75 -39.5 125zM364 1836
q0 -36 -11 -89l-24 11l-30 15q-27 13 -34 17q-13 7 -25.5 20.5t-16.5 27.5q-1 2 -1 9t1.5 13t3.5 6q12 25 34.5 42t47.5 17q55 0 55 -89zM461 1300q0 -71 -63 -76q-29 0 -45 25q-27 39 -40 153q0 1 -5 1q-13 0 -72 -8l1 -16v-20q0 -74 -19 -111.5t-67 -37.5
q-29 0 -47.5 14.5t-18.5 40.5q0 48 25 105l-77 36q-13 -23 -23.5 -62t-10.5 -72q0 -66 41 -104.5t114 -42.5h6q79 0 125 67q42 -52 109 -52q43 0 79 22t56.5 59.5t20.5 81.5q0 38 -15 81q-14 39 -26 61.5t-40 64.5l-71 -49q63 -76 63 -161z" />
    <glyph glyph-name="uniFC62" unicode="&#xfc62;" arabic-form="isolated" 
d="M418 1586q0 -71 -63 -76q-29 0 -45 25q-27 39 -40 153q0 1 -5 1q-13 0 -72 -8l1 -16v-20q0 -74 -19 -111.5t-67 -37.5q-29 0 -47.5 14.5t-18.5 40.5q0 48 25 105l-77 36q-13 -23 -23.5 -62t-10.5 -72q0 -66 41 -104.5t114 -42.5h6q79 0 125 67q42 -52 109 -52q43 0 79 22
t56.5 59.5t20.5 81.5q0 38 -15 81q-14 39 -26 61.5t-40 64.5l-71 -49q63 -76 63 -161zM0 1221v-111l455 188v104z" />
    <glyph glyph-name="uniFC63" unicode="&#xfc63;" arabic-form="isolated" 
d="M317 1679q0 84 -23 161l-87 -24q22 -75 22 -155q0 -79 -22 -152l86 -25q24 110 24 195zM462 1300q0 -71 -63 -76q-29 0 -45 25q-27 39 -40 153q0 1 -5 1q-13 0 -72 -8l1 -16v-20q0 -74 -19 -111.5t-67 -37.5q-29 0 -47.5 14.5t-18.5 40.5q0 48 25 105l-77 36
q-13 -23 -23.5 -62t-10.5 -72q0 -66 41 -104.5t114 -42.5h6q79 0 125 67q42 -52 109 -52q43 0 79 22t56.5 59.5t20.5 81.5q0 37 -15 81q-14 39 -26 61.5t-40 64.5l-71 -49q63 -76 63 -161z" />
    <glyph glyph-name="uniFE70" unicode="&#xfe70;" arabic-form="isolated" 
d="M4 1484v-111l422 174v104zM4 1225v-111l422 174v104z" />
    <glyph glyph-name="uniFE72" unicode="&#xfe72;" arabic-form="isolated" 
d="M405.5 1574q-18.5 41 -51 64.5t-73.5 23.5q-33 0 -69 -18q-46 -22 -75.5 -60t-29.5 -84q0 -60 42.5 -103t113.5 -66l5 -4q-70 -48 -203 -88q7 32 7 75q0 57 -34.5 94.5t-88.5 37.5q-35 0 -71.5 -17.5t-62.5 -43.5l61 -61q37 37 74 37q39 -4 39 -57q0 -25 -8.5 -56.5
t-18.5 -47.5l46 -65l28 7l125 38q50 16 108 47t92 65l47 -14l25 83q-5 1 -15 4t-13 4q19 66 19 115t-18.5 90zM324 1397l-24 11l-40 20q-35 16 -50 31.5t-15 38.5q0 18 13.5 35.5t34 29t38.5 11.5q55 0 55 -90q0 -37 -12 -87z" />
    <glyph glyph-name="uniFE74" unicode="&#xfe74;" arabic-form="isolated" 
d="M6 -318v-111l422 174v104zM6 -577v-111l422 174v104z" />
    <glyph glyph-name="uniFE76" unicode="&#xfe76;" arabic-form="isolated" 
d="M0 1243v-111l467 196v104z" />
    <glyph glyph-name="uniFE78" unicode="&#xfe78;" arabic-form="isolated" 
d="M354.5 1612q-39.5 50 -104.5 50q-44 0 -84 -24.5t-64.5 -62t-24.5 -74.5q0 -52 27 -83q19 -22 30 -32t33 -21q36 -19 74 -36q-96 -72 -272 -122l24 -84q101 24 190 69.5t147 103.5l27 -9l21 -7l25 83q-3 1 -13 4t-15 4q19 57 19 116q0 75 -39.5 125zM305 1488
q0 -36 -11 -89l-24 11l-30 15q-27 13 -34 17q-13 7 -25.5 20.5t-16.5 27.5q-1 2 -1 9t1.5 13t3.5 6q12 25 34.5 42t47.5 17q55 0 55 -89z" />
    <glyph glyph-name="uniFE7A" unicode="&#xfe7a;" arabic-form="isolated" 
d="M9 -328v-111l455 188v104z" />
    <glyph glyph-name="uniFE7C" unicode="&#xfe7c;" arabic-form="isolated" 
d="M462 1307q0 -71 -63 -76q-29 0 -45 25q-27 39 -40 153q0 1 -5 1q-13 0 -72 -8l1 -16v-20q0 -74 -19 -111.5t-67 -37.5q-29 0 -47.5 14.5t-18.5 40.5q0 48 25 105l-77 36q-13 -23 -23.5 -62t-10.5 -72q0 -66 41 -104.5t114 -42.5h6q79 0 125 67q42 -52 109 -52q43 0 79 22
t56.5 59.5t20.5 81.5q0 37 -15 81q-14 39 -26 61.5t-40 64.5l-71 -49q63 -76 63 -161z" />
    <glyph glyph-name="uniFE7E" unicode="&#xfe7e;" arabic-form="isolated" 
d="M128 1540q-55 -29 -89 -81.5t-34 -118.5q0 -37 15 -76q25 -65 73.5 -104.5t113.5 -39.5q41 0 78 19q54 28 88.5 82t34.5 119q0 41 -14 77q-25 63 -74 102.5t-113 39.5q-42 0 -79 -19zM170 1238q-59 38 -59 102q0 43 29 77.5t67 34.5t66.5 -34.5t28.5 -77.5q0 -28 -13 -54
t-35 -42.5t-47 -16.5q-20 0 -37 11z" />
    <glyph glyph-name="uniFE82" unicode="&#x622;" horiz-adv-x="684" arabic-form="final" 
d="M100.5 1589q7.5 16 21.5 36q28 43 78 43q12 0 34 -5t64 -21q49 -18 85 -27.5t70 -9.5q75 0 139 40.5t108 105.5l10 15l-114 74q-26 -33 -35 -42q-15 -18 -45.5 -35.5t-55.5 -17.5h-6q-47 1 -124 33q-76 30 -133 30h-21q-57 0 -104 -36q-43 -33 -63.5 -64t-44.5 -88
l-16 -40l132 -41q13 34 20.5 50zM735.5 168q-28.5 28 -70.5 28h-9q-66 2 -106 14q-53 15 -73.5 48.5t-20.5 99.5v87q0 24 1 47v57v144q0 130 -1 169q0 447 -36 652l-196 -36q16 -78 25 -201q6 -94 8 -162.5t2 -178.5v-81v-17q1 -39 1 -167v-139q0 -43 -1 -72l-2 -61v-19
q0 -81 11 -128q60 -252 397 -252q41 0 70 28.5t29 69.5q0 42 -28.5 70z" />
    <glyph glyph-name="uniFE84" unicode="&#x623;" horiz-adv-x="673" arabic-form="final" 
d="M87 1518l227 126l52 28q58 31 98 55q48 28 92 59l-59 78q-16 -13 -42.5 -29t-42.5 -25q-15 -9 -44 -18.5t-52 -9.5q-43 0 -79 23.5t-49 58.5l1 -1q-8 22 -8 36q0 34 20 62.5t51 41.5v-2q25 12 62 12q44 0 92 -13l28 92q-76 19 -120 19q-65 0 -118 -26.5t-83 -75
t-30 -110.5q0 -67 37.5 -118t97.5 -76l-179 -100zM735.5 168q-28.5 28 -70.5 28h-9q-66 2 -106 14q-53 15 -73.5 48.5t-20.5 99.5v87q0 24 1 47v57v144q0 130 -1 169q0 447 -36 652l-196 -36q16 -78 25 -201q6 -94 8 -162.5t2 -178.5v-81v-17q1 -39 1 -167v-139
q0 -43 -1 -72l-2 -61v-19q0 -81 11 -128q60 -252 397 -252q41 0 70 28.5t29 69.5q0 42 -28.5 70z" />
    <glyph glyph-name="uniFE86" unicode="&#x624;" horiz-adv-x="1058" arabic-form="final" 
d="M243 892l227 126l52 28q58 31 98 55q48 28 92 59l-59 78q-16 -13 -42.5 -29t-42.5 -25q-15 -9 -44 -18.5t-52 -9.5q-42 0 -78.5 24t-49.5 58l1 -1q-8 22 -8 36q0 33 20.5 62.5t50.5 41.5v-2q27 12 62 12q46 0 92 -13l28 92q-76 19 -120 19q-65 0 -118 -26.5t-83 -75
t-30 -110.5q0 -67 37.5 -118t97.5 -76l-179 -100zM1115 168q-28 28 -72 28h-75q-3 159 -53 295q-35 95 -93 176t-135.5 130.5t-167.5 49.5q-64 0 -124 -33q-87 -48 -146.5 -149t-78.5 -229q-6 -42 -6 -80q0 -126 65 -209q63 -77 168.5 -112t264.5 -35h100
q-10 -74 -62.5 -153.5t-136.5 -145.5q-191 -150 -485 -210l46 -193q206 32 380.5 126.5t292.5 242t156 333.5h90q42 0 71 27.5t29 69.5q0 43 -28 71zM567 638q20 -10 30 -18t21 -19l15 -15q125 -142 137 -384q-85 -6 -138 -6q-253 0 -269 130q-2 18 -2 40q0 71 24.5 137
t61.5 106.5t72 40.5q24 0 48 -12z" />
    <glyph glyph-name="uniFE88" unicode="&#x625;" horiz-adv-x="620" arabic-form="final" 
d="M681.5 168q-28.5 28 -70.5 28h-9q-66 2 -106 14q-53 15 -73.5 48.5t-20.5 99.5v87q0 24 1 47v57v144q0 130 -1 169q0 447 -36 652l-196 -36q16 -78 25 -201q6 -94 8 -162.5t2 -178.5v-81v-17q1 -39 1 -167v-139q0 -43 -1 -72l-2 -61v-19q0 -81 11 -128q60 -252 397 -252
q41 0 70 28.5t29 69.5q0 42 -28.5 70zM193 -654l227 126l52 28q58 31 98 55q48 28 92 59l-59 78q-16 -13 -42.5 -29t-42.5 -25q-15 -9 -44 -18.5t-52 -9.5q-43 0 -79 23.5t-49 58.5l1 -1q-8 22 -8 36q0 34 20 62.5t51 41.5v-2q26 12 62 12q44 0 92 -13l28 92q-76 19 -120 19
q-65 0 -118 -26.5t-83 -75t-30 -110.5q0 -67 37.5 -118t97.5 -76l-179 -100z" />
    <glyph glyph-name="uniFE8A" unicode="&#x626;" horiz-adv-x="1683" arabic-form="final" 
d="M627 162l227 126l52 28q58 31 98 55q48 28 92 59l-59 78q-16 -13 -42.5 -29t-42.5 -25q-15 -9 -44 -18.5t-52 -9.5q-42 0 -78.5 24t-49.5 58l1 -1q-8 22 -8 36q0 33 20.5 62.5t50.5 41.5v-2q27 12 62 12q46 0 92 -13l28 92q-76 19 -120 19q-65 0 -118 -26.5t-83 -75
t-30 -110.5q0 -67 37.5 -118t97.5 -76l-179 -100zM1786 28.5q29 28.5 29 69.5t-29 69.5t-70 28.5l-770 1l-15 -194l22 -4q13 -2 41 -9q252 -58 348 -136l23 -19q8 -7 16 -20.5t8 -24.5q0 -88 -119 -150q-85 -43 -203.5 -69t-236.5 -26l-114 2q-182 4 -301.5 89t-119.5 312
q0 50 5 95q24 218 152 535l-183 74q-81 -194 -126 -373t-45 -328q0 -222 97 -361q76 -127 234.5 -184.5t400.5 -57.5q188 0 350 46q177 49 290.5 149.5t115.5 246.5q0 66 -27.5 115t-81.5 95h239q41 0 70 28.5z" />
    <glyph glyph-name="uniFE8B" unicode="&#x626;" horiz-adv-x="722" arabic-form="initial" 
d="M168 943l227 126l52 28q58 31 98 55q48 28 92 59l-59 78q-16 -13 -42.5 -29t-42.5 -25q-15 -9 -44 -18.5t-52 -9.5q-42 0 -78.5 24t-49.5 58l1 -1q-8 22 -8 36q0 33 20.5 62.5t50.5 41.5v-2q27 12 62 12q46 0 92 -13l28 92q-76 19 -120 19q-65 0 -118 -26.5t-83 -75
t-30 -110.5q0 -67 37.5 -118t97.5 -76l-179 -100zM236 3q130 8 221 69q166 111 166 323q0 102 -40 241t-99 268l-5 11l-4 7l-1 2l-178 -88l33 -75l29 -69q51 -128 66 -256q2 -18 2 -40q0 -109 -74.5 -155t-220.5 -46q-9 0 -17 1h-18h-103q-41 0 -69.5 -29t-28.5 -69
t28.5 -69t69.5 -29h146q46 0 97 3z" />
    <glyph glyph-name="uniFE8C" unicode="&#x626;" horiz-adv-x="715" arabic-form="medial" 
d="M156 826l227 126l52 28q58 31 98 55q48 28 92 59l-59 78q-16 -13 -42.5 -29t-42.5 -25q-15 -9 -44 -18.5t-52 -9.5q-42 0 -78.5 24t-49.5 58l1 -1q-8 22 -8 36q0 33 20.5 62.5t50.5 41.5v-2q27 12 62 12q46 0 92 -13l28 92q-76 19 -120 19q-65 0 -118 -26.5t-83 -75
t-30 -110.5q0 -67 37.5 -118t97.5 -76l-179 -100zM431 124q96 -124 274 -124q42 0 70 28t28 70t-28.5 70t-70.5 28q-35 0 -65 14q-28 13 -46 34t-30 54q-11 31 -17 61t-9 72l-10 115q-5 44 -14.5 99t-22.5 95l-188 -53q39 -138 39 -251q0 -127 -79.5 -183.5t-240.5 -56.5
h-17q-42 0 -70 -28.5t-28 -69.5q0 -42 28 -70t70 -28h17q283 0 410 124z" />
    <glyph glyph-name="uniFE8E" unicode="&#x627;" horiz-adv-x="624" arabic-form="final" 
d="M417 363v15v18l1 8v18v23v248q0 130 -1 169q0 445 -36 652l-196 -36q16 -78 25 -201q6 -94 8 -162.5t2 -178.5v-81v-17q1 -39 1 -167v-74q-1 -31 -1 -65q0 -43 -1 -73l-1 -60v-19q0 -43 1 -58q7 -162 112 -242t295 -80q41 0 70 28.5t29 69.5q0 42 -28.5 70.5t-70.5 28.5
h-9q-73 2 -116.5 16t-64 46t-20.5 90z" />
    <glyph glyph-name="uniFE90" unicode="&#x628;" horiz-adv-x="2245" arabic-form="final" 
d="M2236 197q-284 0 -293 263v8q0 47 34 190l-190 52q-38 -131 -85 -214t-120 -139q-106 -86 -258.5 -123.5t-375.5 -37.5q-244 2 -398.5 50.5t-217.5 155.5q-37 59 -37 153q0 119 53 236l9 20l-173 95q-96 -196 -96 -362q0 -137 67 -252q90 -152 288 -222.5t505 -72.5
q569 0 833 276q23 -63 62 -109q125 -161 385 -164h8q41 0 70 28.5t29 69.5t-29 70t-70 29zM827 -361l164 -164l163 163l-164 164z" />
    <glyph glyph-name="uniFE91" unicode="&#x628;" horiz-adv-x="722" arabic-form="initial" 
d="M236 3q130 8 221 69q166 111 166 323q0 102 -40 241t-99 268l-5 11l-4 7l-1 2l-178 -88l33 -75l29 -69q51 -128 66 -256q2 -18 2 -40q0 -109 -74.5 -155t-220.5 -46q-9 0 -17 1h-18h-103q-41 0 -69.5 -29t-28.5 -69t28.5 -69t69.5 -29h146q46 0 97 3zM130 -375l164 -164
l163 163l-164 164z" />
    <glyph glyph-name="uniFE92" unicode="&#x628;" horiz-adv-x="718" arabic-form="medial" 
d="M431 124q96 -124 274 -124q42 0 70 28t28 70t-28.5 70t-70.5 28q-35 0 -65 14q-28 13 -46 34t-30 54q-11 31 -17 61t-9 72l-10 115q-5 44 -14.5 99t-22.5 95l-188 -53q39 -138 39 -251q0 -127 -79.5 -183.5t-240.5 -56.5h-17q-42 0 -70 -28.5t-28 -69.5q0 -42 28 -70
t70 -28h17q283 0 410 124zM225 -360l164 -164l163 163l-164 164z" />
    <glyph glyph-name="uniFE94" unicode="&#x629;" horiz-adv-x="1126" arabic-form="final" 
d="M260 1427l164 -163l162 162l-164 164zM670 1426l164 -164l162 163l-164 163zM929.5 38.5q78.5 -38.5 197.5 -38.5q42 0 70.5 28t28.5 70q0 41 -29 69.5t-70 28.5q-81 0 -123.5 28t-60.5 92q-40 140 -71 446q-3 25 -10 104q-12 143 -25 228l-196 -41l1 -4q0 -7 1 -13
l2 -20q1 -21 7 -66q1 -15 2 -26t2 -19q-348 -127 -467 -370q-20 -48 -20 -103q0 -102 53 -167q101 -125 359 -125q106 0 219 19q51 -82 129.5 -120.5zM732 348q-81 -14 -143 -14q-47 0 -80 3.5t-69 12.5q-38 10 -59 33t-21 56q0 29 17 61q19 35 49 62l29 25q12 11 36 24
q33 19 35 20q11 8 39 21q19 9 28.5 13t16.5 7l33 14l36 16q32 -249 53 -354z" />
    <glyph glyph-name="uniFE96" unicode="&#x62a;" horiz-adv-x="2253" arabic-form="final" 
d="M659 985l164 -163l162 162l-164 164zM1069 984l164 -164l162 163l-164 163zM2236 197q-284 0 -293 263v8q0 47 34 190l-190 52q-38 -131 -85 -214t-120 -139q-106 -86 -258.5 -123.5t-375.5 -37.5q-244 2 -398.5 50.5t-217.5 155.5q-37 59 -37 153q0 119 53 236l9 20
l-173 95q-96 -196 -96 -362q0 -137 67 -252q90 -152 288 -222.5t505 -72.5q569 0 833 276q23 -63 62 -109q125 -161 385 -164h8q41 0 70 28.5t29 69.5t-29 70t-70 29z" />
    <glyph glyph-name="uniFE97" unicode="&#x62a;" horiz-adv-x="804" arabic-form="initial" 
d="M55 1247l164 -163l162 162l-164 164zM465 1246l164 -164l162 163l-164 163zM-106.5 168q-28.5 -28 -28.5 -70t28.5 -70t69.5 -28h216q86 0 170 10q233 26 321 224q30 69 30 161q0 102 -40 241t-99 268l-5 11l-4 7l-1 2l-178 -88l33 -75l29 -69q51 -128 66 -256
q3 -22 3 -42q0 -49 -21 -87q-21 -36 -53 -57.5t-82 -33.5q-47 -11 -92 -15.5t-106 -4.5h-187q-41 0 -69.5 -28z" />
    <glyph glyph-name="uniFE98" unicode="&#x62a;" horiz-adv-x="870" arabic-form="medial" 
d="M76 1089l164 -163l162 162l-164 164zM486 1088l164 -164l162 163l-164 163zM458 318q-48 -66 -144 -93.5t-245 -27.5h-76q-41 0 -69.5 -29t-28.5 -70q0 -42 28 -70t70 -28h76q375 0 509 128q98 -128 275 -128q42 0 70 28t28 70t-29 70t-71 28q-156 0 -166 235
q-5 147 -48 312l-187 -53q39 -133 39 -250q0 -82 -31 -122z" />
    <glyph glyph-name="uniFE9A" unicode="&#x62b;" horiz-adv-x="2233" arabic-form="final" 
d="M1166 1269l-149 149l-148 -148l149 -149zM954 968l-164 164l-162 -163l164 -164zM1393 966l-164 164l-162 -162l164 -164zM2236 197q-284 0 -293 263v8q0 47 34 190l-190 52q-38 -131 -85 -214t-120 -139q-106 -86 -258.5 -123.5t-375.5 -37.5q-244 2 -398.5 50.5
t-217.5 155.5q-37 59 -37 153q0 119 53 236l9 20l-173 95q-96 -196 -96 -362q0 -137 67 -252q90 -152 288 -222.5t505 -72.5q569 0 833 276q23 -63 62 -109q125 -161 385 -164h8q41 0 70 28.5t29 69.5t-29 70t-70 29z" />
    <glyph glyph-name="uniFE9B" unicode="&#x62b;" horiz-adv-x="832" arabic-form="initial" 
d="M608 1543l-149 149l-148 -148l149 -149zM396 1242l-164 164l-162 -163l164 -164zM835 1240l-164 164l-162 -162l164 -164zM-69.5 168q-28.5 -28 -28.5 -70t28.5 -70t69.5 -28h216q86 0 170 10q233 26 321 224q30 69 30 161q0 102 -40 241t-99 268l-5 11l-4 7l-1 2
l-178 -88l33 -75l29 -69q51 -128 66 -256q3 -22 3 -42q0 -49 -21 -87q-21 -36 -53 -57.5t-82 -33.5q-47 -11 -92 -15.5t-106 -4.5h-187q-41 0 -69.5 -28z" />
    <glyph glyph-name="uniFE9C" unicode="&#x62b;" horiz-adv-x="864" arabic-form="medial" 
d="M569 1393l-149 149l-148 -148l149 -149zM357 1092l-164 164l-162 -163l164 -164zM796 1090l-164 164l-162 -162l164 -164zM458 318q-48 -66 -144 -93.5t-245 -27.5h-76q-41 0 -69.5 -29t-28.5 -70q0 -42 28 -70t70 -28h76q375 0 509 128q98 -128 275 -128q42 0 70 28
t28 70t-29 70t-71 28q-156 0 -166 235q-5 147 -48 312l-187 -53q39 -133 39 -250q0 -82 -31 -122z" />
    <glyph glyph-name="uniFE9E" unicode="&#x62c;" horiz-adv-x="1696" arabic-form="final" 
d="M600 -530q-132 70 -191 172.5t-59 221.5q0 82 26 148q52 133 187 236q196 146 572 191q-1 -5 -1 -18t1 -20q3 -67 24 -125q52 -144 185 -210t356 -66q41 0 70 28t29 68q0 42 -28.5 71t-70.5 29q-62 0 -117 5q-53 5 -101.5 19.5t-78.5 38.5q-33 25 -52 68t-19 99
q0 13 2 31q102 5 160 5q16 0 27 -1l19 -1h18l38 192q-107 36 -226 88t-273 128l-50 25q-106 51 -166 77t-123.5 42.5t-128.5 16.5q-158 0 -292 -110q-62 -51 -118 -127t-70 -119l184 -76q25 61 88 132q98 101 210 101q65 0 141 -29.5t204 -94.5q22 -10 33 -16l108 -52
q-559 -67 -811 -360q-100 -139 -133 -272q-20 -83 -20 -161q0 -148 69.5 -270.5t191.5 -211.5q208 -154 498 -154q394 0 635 216l-129 152q-194 -182 -494 -182q-184 0 -324 75zM735 -121l164 -164l163 163l-164 164z" />
    <glyph glyph-name="uniFE9F" unicode="&#x62c;" horiz-adv-x="1548" arabic-form="initial" 
d="M496 28q377 74 788 282q177 90 283 133l-38 190q-61 0 -121 13t-134 39q-65 22 -100.5 37.5t-130.5 60.5q-146 69 -200 91q-41 16 -99 29t-110 13q-95 0 -184 -47q-76 -40 -148.5 -121.5t-121.5 -177.5q-7 -15 -9 -17l180 -81q0 4 10 20q41 70 70 104q49 60 96.5 91.5
t106.5 31.5q54 0 111 -21t205 -90l29 -13q150 -68 235 -99q-288 -145 -538 -222.5t-479 -77.5h-198q-42 0 -71 -28t-29 -70q0 -43 28.5 -70.5t71.5 -27.5h198q156 0 299 28zM601 -364l164 -164l163 163l-164 164z" />
    <glyph glyph-name="uniFEA0" unicode="&#x62c;" horiz-adv-x="1663" arabic-form="medial" 
d="M448 22q168 31 326.5 90.5t359.5 159.5q53 -133 187.5 -202.5t331.5 -69.5h14q42 0 70.5 27.5t28.5 69.5t-28 70.5t-71 28.5h-14q-134 0 -225.5 41t-114.5 123q94 46 182 84l-39 189q-66 0 -122 13q-86 19 -181 57.5t-214 96.5q-118 56 -210 86.5t-168 30.5
q-95 0 -183 -48q-79 -43 -151.5 -123.5t-120.5 -174.5q-7 -13 -7 -16l181 -82q54 104 121 174.5t160 70.5q29 0 69 -10q111 -26 276 -107q168 -82 236 -105l-156 -77q-58 -29 -147.5 -68t-158.5 -63q-264 -92 -497 -92h-183q-42 0 -70.5 -28t-28.5 -71q0 -41 29 -69t70 -28
l183 -1q141 0 265 23zM625 -362l164 -164l163 163l-164 164z" />
    <glyph glyph-name="uniFEA2" unicode="&#x62d;" horiz-adv-x="1702" arabic-form="final" 
d="M600 -530q-132 70 -191 172.5t-59 221.5q0 82 26 148q52 133 187 236q196 146 572 191q-1 -5 -1 -18t1 -20q3 -67 24 -125q52 -144 185 -210t356 -66q41 0 70 28t29 68q0 42 -28.5 71t-70.5 29q-62 0 -117 5q-53 5 -101.5 19.5t-78.5 38.5q-33 25 -52 68t-19 99
q0 13 2 31q102 5 160 5q16 0 27 -1l19 -1h18l38 192q-107 36 -226 88t-273 128l-50 25q-106 51 -166 77t-123.5 42.5t-128.5 16.5q-158 0 -292 -110q-62 -51 -118 -127t-70 -119l184 -76q25 61 88 132q98 101 210 101q65 0 141 -29.5t204 -94.5q22 -10 33 -16l108 -52
q-559 -67 -811 -360q-100 -139 -133 -272q-20 -83 -20 -161q0 -148 69.5 -270.5t191.5 -211.5q208 -154 498 -154q394 0 635 216l-129 152q-194 -182 -494 -182q-184 0 -324 75z" />
    <glyph glyph-name="uniFEA3" unicode="&#x62d;" horiz-adv-x="1587" arabic-form="initial" 
d="M496 28q377 74 788 282q177 90 283 133l-38 190q-61 0 -121 13t-134 39q-65 22 -100.5 37.5t-130.5 60.5q-146 69 -200 91q-41 16 -99 29t-110 13q-95 0 -184 -47q-76 -40 -148.5 -121.5t-121.5 -177.5q-7 -15 -9 -17l180 -81q0 4 10 20q41 70 70 104q49 60 96.5 91.5
t106.5 31.5q54 0 111 -21t205 -90l29 -13q150 -68 235 -99q-288 -145 -538 -222.5t-479 -77.5h-198q-42 0 -71 -28t-29 -70q0 -43 28.5 -70.5t71.5 -27.5h198q156 0 299 28z" />
    <glyph glyph-name="uniFEA4" unicode="&#x62d;" horiz-adv-x="1667" arabic-form="medial" 
d="M448 22q168 31 326.5 90.5t359.5 159.5q53 -133 187.5 -202.5t331.5 -69.5h14q42 0 70.5 27.5t28.5 69.5t-28 70.5t-71 28.5h-14q-134 0 -225.5 41t-114.5 123q94 46 182 84l-39 189q-66 0 -122 13q-86 19 -181 57.5t-214 96.5q-118 56 -210 86.5t-168 30.5
q-95 0 -183 -48q-79 -43 -151.5 -123.5t-120.5 -174.5q-7 -13 -7 -16l181 -82q54 104 121 174.5t160 70.5q29 0 69 -10q111 -26 276 -107q168 -82 236 -105l-156 -77q-58 -29 -147.5 -68t-158.5 -63q-264 -92 -497 -92h-183q-42 0 -70.5 -28t-28.5 -71q0 -41 29 -69t70 -28
l183 -1q141 0 265 23z" />
    <glyph glyph-name="uniFEA6" unicode="&#x62e;" horiz-adv-x="1707" arabic-form="final" 
d="M437 1363l164 -164l163 163l-164 164zM600 -530q-132 70 -191 172.5t-59 221.5q0 82 26 148q52 133 187 236q196 146 572 191q-1 -5 -1 -18t1 -20q3 -67 24 -125q52 -144 185 -210t356 -66q41 0 70 28t29 68q0 42 -28.5 71t-70.5 29q-62 0 -117 5q-53 5 -101.5 19.5
t-78.5 38.5q-33 25 -52 68t-19 99q0 13 2 31q102 5 160 5q16 0 27 -1l19 -1h18l38 192q-107 36 -226 88t-273 128l-50 25q-106 51 -166 77t-123.5 42.5t-128.5 16.5q-158 0 -292 -110q-62 -51 -118 -127t-70 -119l184 -76q25 61 88 132q98 101 210 101q65 0 141 -29.5
t204 -94.5q22 -10 33 -16l108 -52q-559 -67 -811 -360q-100 -139 -133 -272q-20 -83 -20 -161q0 -148 69.5 -270.5t191.5 -211.5q208 -154 498 -154q394 0 635 216l-129 152q-194 -182 -494 -182q-184 0 -324 75z" />
    <glyph glyph-name="uniFEA7" unicode="&#x62e;" horiz-adv-x="1548" arabic-form="initial" 
d="M428 1286l164 -164l163 163l-164 164zM496 28q377 74 788 282q177 90 283 133l-38 190q-61 0 -121 13t-134 39q-65 22 -100.5 37.5t-130.5 60.5q-146 69 -200 91q-41 16 -99 29t-110 13q-95 0 -184 -47q-76 -40 -148.5 -121.5t-121.5 -177.5q-7 -15 -9 -17l180 -81
q0 4 10 20q41 70 70 104q49 60 96.5 91.5t106.5 31.5q54 0 111 -21t205 -90l29 -13q150 -68 235 -99q-288 -145 -538 -222.5t-479 -77.5h-198q-42 0 -71 -28t-29 -70q0 -43 28.5 -70.5t71.5 -27.5h198q156 0 299 28z" />
    <glyph glyph-name="uniFEA8" unicode="&#x62e;" horiz-adv-x="1669" arabic-form="medial" 
d="M370 1246l164 -164l163 163l-164 164zM448 22q168 31 326.5 90.5t359.5 159.5q53 -133 187.5 -202.5t331.5 -69.5h14q42 0 70.5 27.5t28.5 69.5t-28 70.5t-71 28.5h-14q-134 0 -225.5 41t-114.5 123q94 46 182 84l-39 189q-66 0 -122 13q-86 19 -181 57.5t-214 96.5
q-118 56 -210 86.5t-168 30.5q-95 0 -183 -48q-79 -43 -151.5 -123.5t-120.5 -174.5q-7 -13 -7 -16l181 -82q54 104 121 174.5t160 70.5q29 0 69 -10q111 -26 276 -107q168 -82 236 -105l-156 -77q-58 -29 -147.5 -68t-158.5 -63q-264 -92 -497 -92h-183q-42 0 -70.5 -28
t-28.5 -71q0 -41 29 -69t70 -28l183 -1q141 0 265 23z" />
    <glyph glyph-name="uniFEAA" unicode="&#x62f;" horiz-adv-x="1262" arabic-form="final" 
d="M1262 0q41 0 70 28.5t29 69.5t-29 69.5t-70 28.5q-66 0 -108 16q-22 8 -38 21q-19 13 -29.5 25t-21.5 33q-11 20 -18 36.5t-16 40.5l-16 41q-237 569 -306 739l-182 -76l316 -760q-50 -50 -124 -81t-154 -31q-41 0 -83 9q-126 28 -242 135l-113 -159q179 -185 404 -185
q124 0 221.5 33t187.5 100q103 -133 322 -133z" />
    <glyph glyph-name="uniFEAC" unicode="&#x630;" horiz-adv-x="1264" arabic-form="final" 
d="M463 1469l164 -164l163 163l-164 164zM1262 0q41 0 70 28.5t29 69.5t-29 69.5t-70 28.5q-66 0 -108 16q-22 8 -38 21q-19 13 -29.5 25t-21.5 33q-11 20 -18 36.5t-16 40.5l-16 41q-237 569 -306 739l-182 -76l316 -760q-50 -50 -124 -81t-154 -31q-41 0 -83 9
q-126 28 -242 135l-113 -159q179 -185 404 -185q124 0 221.5 33t187.5 100q103 -133 322 -133z" />
    <glyph glyph-name="uniFEAE" unicode="&#x631;" horiz-adv-x="816" arabic-form="final" 
d="M895.5 27.5q28.5 27.5 28.5 69.5t-28 70.5t-71 28.5h-5q-55 0 -94 24t-78 76q-44 57 -77.5 133t-72.5 197l-188 -58q93 -284 116 -462l2 -38q0 -55 -13 -98q-38 -140 -166 -272t-371 -259l86 -177q187 94 320 206q166 140 253.5 291t87.5 310v4q73 -73 199 -73h1
q42 0 70.5 27.5z" />
    <glyph glyph-name="uniFEB0" unicode="&#x632;" horiz-adv-x="837" arabic-form="final" 
d="M216 1043l164 -164l163 163l-164 164zM895.5 27.5q28.5 27.5 28.5 69.5t-28 70.5t-71 28.5h-5q-55 0 -94 24t-78 76q-44 57 -77.5 133t-72.5 197l-188 -58q93 -284 116 -462l2 -38q0 -55 -13 -98q-38 -140 -166 -272t-371 -259l86 -177q187 94 320 206q166 140 253.5 291
t87.5 310v4q73 -73 199 -73h1q42 0 70.5 27.5z" />
    <glyph glyph-name="uniFEB2" unicode="&#x633;" horiz-adv-x="2889" arabic-form="final" 
d="M2324 235q-19 -23 -35.5 -32.5t-43.5 -9.5q-39 0 -61 19q-40 32 -54.5 93.5t-14.5 165.5q0 30 1 53v52l2 29q1 13 1 29l-203 15q0 -17 -1 -30q-2 -59 -4 -97t-8 -97q-4 -40 -11.5 -65.5t-15.5 -41.5t-29 -52t-56 -52t-85 -16q-68 0 -114 34q-79 59 -128 206
q-50 146 -84 225l-166 -108q4 -6 9 -20l8 -21q92 -210 92 -424q0 -148 -34 -256q-91 -277 -516 -298h-34q-226 0 -333 134q-56 70 -77 142.5t-21 158.5q0 171 74 357q36 93 64 129l-159 118q-47 -63 -88.5 -167.5t-66.5 -221.5t-25 -213q0 -66 10 -119q24 -157 107.5 -274
t216 -180t301.5 -63q10 0 19 1t20 1q289 12 470 135q265 175 265 549v19q-1 8 -1 18q76 -61 185 -61h13q193 11 296 133q22 -33 49 -56q92 -77 183 -77q105 0 180 56t117 153q125 -209 333 -209h20q42 0 70.5 28t28.5 70t-28.5 71t-70.5 29h-20q-124 0 -187 149t-83 334
l-1 19q-1 10 -1 26l-2 11l-196 -14l1 -2v-7v-8l2 -50q2 -46 2 -57q0 -275 -82 -363z" />
    <glyph glyph-name="uniFEB3" unicode="&#x633;" horiz-adv-x="1658" arabic-form="initial" 
d="M1302.5 586q44.5 -140 44.5 -226q0 -67 -25 -110h1q-34 -66 -124 -66q-18 0 -39 3q-107 11 -107 191q0 30 5 80q7 69 22 156l11 68l-192 35q-44 -292 -139 -429q-71 -101 -163 -101q-108 0 -108 142q0 47 11 113q4 22 28 107l30 97l-198 42q-45 -216 -105 -319
q-28 -48 -59 -84q-33 -38 -85 -63.5t-111 -25.5q-40 -3 -66 -30.5t-26 -68.5q0 -42 25 -68.5t67 -29.5h16q100 1 176 35.5t142 103.5q30 -67 102 -108.5t161 -41.5q166 0 297 152q24 -35 51 -60q103 -92 215 -92h10q180 0 278 98t98 277q0 131 -39 247q-21 62 -36 100
t-45 107q-12 26 -41 92l-175 -92q48 -91 92.5 -231z" />
    <glyph glyph-name="uniFEB4" unicode="&#x633;" horiz-adv-x="1851" arabic-form="medial" 
d="M1088 637q1 4 3 20l3 24q1 8 5 12l-195 37l-3 -16q-77 -387 -218 -494q-34 -25 -73 -25q-30 0 -50.5 15.5t-29.5 43.5q-9 27 -12.5 54.5t-3.5 65.5q0 117 40 270q0 -1 2 9q1 11 5 15l-192 53q0 -9 -19 -67q-87 -261 -198 -378q-77 -80 -151 -80h-10q-42 -3 -70.5 -30.5
t-28.5 -67.5q0 -42 28.5 -70t70.5 -28h10q149 0 273 121q31 29 67 75q5 -13 9.5 -23.5t6.5 -14.5q31 -75 97 -118t156 -43q179 0 311 195q88 -192 287 -192q204 0 298 207q128 -207 333 -207h20q42 0 70 28.5t28 69.5q0 42 -28 70t-70 28h-20q-142 0 -221 244
q-26 87 -49 241q-2 50 -4 56l-196 -16l1 -3v-6v-8q0 -15 3 -50l2 -56q0 -150 -29 -254q-22 -74 -52.5 -109.5t-85.5 -35.5q-42 0 -70 21t-42 61q-13 38 -18.5 79t-5.5 96q0 89 16 181z" />
    <glyph glyph-name="uniFEB6" unicode="&#x634;" horiz-adv-x="2889" arabic-form="final" 
d="M2164 1405l-149 149l-148 -148l149 -149zM1952 1104l-164 164l-162 -163l164 -164zM2391 1102l-164 164l-162 -162l164 -164zM2324 235q-19 -23 -35.5 -32.5t-43.5 -9.5q-39 0 -61 19q-40 32 -54.5 93.5t-14.5 165.5q0 30 1 53v52l2 29q1 13 1 29l-203 15q0 -17 -1 -30
q-2 -59 -4 -97t-8 -97q-4 -40 -11.5 -65.5t-15.5 -41.5t-29 -52t-56 -52t-85 -16q-68 0 -114 34q-79 59 -128 206q-50 146 -84 225l-166 -108q4 -6 9 -20l8 -21q92 -210 92 -424q0 -148 -34 -256q-91 -277 -516 -298h-34q-226 0 -333 134q-56 70 -77 142.5t-21 158.5
q0 171 74 357q36 93 64 129l-159 118q-47 -63 -88.5 -167.5t-66.5 -221.5t-25 -213q0 -66 10 -119q24 -157 107.5 -274t216 -180t301.5 -63q10 0 19 1t20 1q289 12 470 135q265 175 265 549v19q-1 8 -1 18q76 -61 185 -61h13q193 11 296 133q22 -33 49 -56q92 -77 183 -77
q105 0 180 56t117 153q125 -209 333 -209h20q42 0 70.5 28t28.5 70t-28.5 71t-70.5 29h-20q-124 0 -187 149t-83 334l-1 19q-1 10 -1 26l-2 11l-196 -14l1 -2v-7v-8l2 -50q2 -46 2 -57q0 -275 -82 -363z" />
    <glyph glyph-name="uniFEB7" unicode="&#x634;" horiz-adv-x="1669" arabic-form="initial" 
d="M1074 1490l-149 149l-148 -148l149 -149zM862 1189l-164 164l-162 -163l164 -164zM1301 1187l-164 164l-162 -162l164 -164zM1302.5 586q44.5 -140 44.5 -226q0 -67 -25 -110h1q-34 -66 -124 -66q-18 0 -39 3q-107 11 -107 191q0 30 5 80q7 69 22 156l11 68l-192 35
q-44 -292 -139 -429q-71 -101 -163 -101q-108 0 -108 142q0 47 11 113q4 22 28 107l30 97l-198 42q-45 -216 -105 -319q-28 -48 -59 -84q-33 -38 -85 -63.5t-111 -25.5q-40 -3 -66 -30.5t-26 -68.5q0 -42 25 -68.5t67 -29.5h16q100 1 176 35.5t142 103.5q30 -67 102 -108.5
t161 -41.5q166 0 297 152q24 -35 51 -60q103 -92 215 -92h10q180 0 278 98t98 277q0 131 -39 247q-21 62 -36 100t-45 107q-12 26 -41 92l-175 -92q48 -91 92.5 -231z" />
    <glyph glyph-name="uniFEB8" unicode="&#x634;" horiz-adv-x="1876" arabic-form="medial" 
d="M1164 1458l-149 149l-148 -148l149 -149zM952 1157l-164 164l-162 -163l164 -164zM1391 1155l-164 164l-162 -162l164 -164zM1095 637q1 4 3 20l3 24q1 8 5 12l-195 37l-3 -16q-77 -387 -218 -494q-34 -25 -73 -25q-30 0 -50.5 15.5t-29.5 43.5q-9 27 -12.5 54.5
t-3.5 65.5q0 117 40 270q0 -1 2 9q1 11 5 15l-192 53q0 -9 -19 -67q-87 -261 -198 -378q-77 -80 -151 -80h-10q-42 -3 -70.5 -30.5t-28.5 -67.5q0 -42 28.5 -70t70.5 -28h10q149 0 273 121q31 29 67 75q5 -13 9.5 -23.5t6.5 -14.5q31 -75 97 -118t156 -43q179 0 311 195
q89 -192 287 -192q204 0 298 207q128 -207 333 -207h20q42 0 70 28.5t28 69.5q0 42 -28 70t-70 28h-20q-142 0 -221 244q-26 87 -49 241q-2 50 -4 56l-196 -16v-3l1 -6v-8q0 -15 3 -50l2 -56q0 -150 -29 -254q-22 -74 -52.5 -109.5t-85.5 -35.5q-42 0 -70 21t-42 61
q-13 38 -18.5 79t-5.5 96q0 89 16 181z" />
    <glyph glyph-name="uniFEBA" unicode="&#x635;" horiz-adv-x="2868" arabic-form="final" 
d="M438 372q17 37 25 50l-167 108q-162 -298 -168 -598v-16q0 -322 245 -465q118 -74 328 -97l51 -3q11 -1 49 -1q289 0 474 155q225 198 225 537q0 40 -3 82q213 -159 563 -159q146 0 279.5 34.5t234.5 96.5q45 -45 124 -70.5t170 -25.5q41 0 70 28.5t29 68.5
q0 42 -28.5 70.5t-70.5 28.5h-8q-49 0 -94 11t-56 30q65 110 65 232q0 158 -131 276q-125 113 -301 113q-155 0 -315 -85q-258 -137 -440 -470q-37 27 -73 79q-94 135 -156 285l-182 -75q1 -1 3 -8t4 -9q32 -90 45.5 -130.5t33.5 -110.5q40 -144 40 -291q0 -123 -39 -220
q-110 -275 -468 -275q-471 0 -471 379q0 202 113 445zM1762 208q30 56 70 117q38 56 87 112t98 96q53 44 121 75.5t138 43.5q33 6 62 6q114 0 187 -73l26 -32q10 -15 18.5 -38.5t8.5 -45.5v-10q-5 -77 -49.5 -136.5t-117.5 -93.5q-144 -67 -338 -67q-179 0 -311 46z" />
    <glyph glyph-name="uniFEBB" unicode="&#x635;" horiz-adv-x="1920" arabic-form="initial" 
d="M405 171q63 -79 137 -122.5t175 -52.5q95 -16 259 -16q458 0 675 178q149 120 161 311q0 7 1 12v12q0 95 -55.5 184.5t-153 146t-217.5 56.5q-53 0 -110 -11q-165 -28 -314 -137q-228 -165 -375 -477q-57 74 -57 209q0 52 11 104h-1l9 42q4 18 13 40l-189 57
q-16 -49 -43 -170q-4 -19 -8 -38.5t-9 -38.5q-8 -43 -12 -56q-27 -107 -99.5 -157.5t-202.5 -50.5q-41 0 -70 -28.5t-29 -69.5t29 -69.5t70 -28.5h9q278 3 396 171zM791 213q6 13 11 22t8 15q62 118 149 214q90 99 203 158.5t219 59.5q66 0 118 -27q52 -26 84 -71t32 -102
q-9 -105 -90 -171q-83 -67 -226.5 -101t-319.5 -34q-103 0 -202 12z" />
    <glyph glyph-name="uniFEBC" unicode="&#x635;" horiz-adv-x="1933" arabic-form="medial" 
d="M412 175q11 -19 24 -30q104 -130 293 -149q183 -15 257 -15q231 0 412 49q39 -17 108 -24t175 -7l252 1q42 0 71 28t29 69q0 42 -29 70.5t-71 28.5h-231q108 109 120 273q0 6 1 11v11q0 71 -30.5 142.5t-101.5 134.5q-127 112 -302 112q-153 0 -315 -84
q-147 -76 -267 -215.5t-208 -325.5l-6 11q-52 67 -52 203q0 57 10 98h-1q14 62 22 82l-189 58q-12 -42 -32 -139q-23 -109 -45 -172t-56 -106q-30 -39 -57 -57.5t-68.5 -26.5t-116.5 -10h-9q-41 0 -69.5 -29t-28.5 -70q0 -40 28.5 -68.5t69.5 -28.5q281 0 413 175zM868 332
q197 300 455 343q33 6 64 6q73 0 127.5 -28.5t83 -72.5t28.5 -88v-10q-6 -102 -90 -169q-83 -67 -228.5 -101.5t-324.5 -34.5q-91 0 -196 11q50 97 81 144z" />
    <glyph glyph-name="uniFEBE" unicode="&#x636;" horiz-adv-x="2867" arabic-form="final" 
d="M2132 1202l164 -164l163 163l-164 164zM438 372q17 37 25 50l-167 108q-162 -298 -168 -598v-16q0 -322 245 -465q118 -74 328 -97l51 -3q11 -1 49 -1q289 0 474 155q225 198 225 537q0 40 -3 82q213 -159 563 -159q146 0 279.5 34.5t234.5 96.5q45 -45 124 -70.5
t170 -25.5q41 0 70 28.5t29 68.5q0 42 -28.5 70.5t-70.5 28.5h-8q-49 0 -94 11t-56 30q65 110 65 232q0 158 -131 276q-125 113 -301 113q-155 0 -315 -85q-258 -137 -440 -470q-37 27 -73 79q-94 135 -156 285l-182 -75q1 -1 3 -8t4 -9q32 -90 45.5 -130.5t33.5 -110.5
q40 -144 40 -291q0 -123 -39 -220q-110 -275 -468 -275q-471 0 -471 379q0 202 113 445zM1762 208q30 56 70 117q38 56 87 112t98 96q53 44 121 75.5t138 43.5q33 6 62 6q114 0 187 -73l26 -32q10 -15 18.5 -38.5t8.5 -45.5v-10q-5 -77 -49.5 -136.5t-117.5 -93.5
q-144 -67 -338 -67q-179 0 -311 46z" />
    <glyph glyph-name="uniFEBF" unicode="&#x636;" horiz-adv-x="1931" arabic-form="initial" 
d="M1135 1251l164 -164l163 163l-164 164zM405 171q63 -79 137 -122.5t175 -52.5q95 -16 259 -16q458 0 675 178q149 120 161 311q0 7 1 12v12q0 95 -55.5 184.5t-153 146t-217.5 56.5q-53 0 -110 -11q-165 -28 -314 -137q-228 -165 -375 -477q-57 74 -57 209q0 52 11 104
h-1l9 42q4 18 13 40l-189 57q-16 -49 -43 -170q-4 -19 -8 -38.5t-9 -38.5q-8 -43 -12 -56q-27 -107 -99.5 -157.5t-202.5 -50.5q-41 0 -70 -28.5t-29 -69.5t29 -69.5t70 -28.5h9q278 3 396 171zM791 213q6 13 11 22t8 15q62 118 149 214q90 99 203 158.5t219 59.5
q66 0 118 -27q52 -26 84 -71t32 -102q-9 -105 -90 -171q-83 -67 -226.5 -101t-319.5 -34q-103 0 -202 12z" />
    <glyph glyph-name="uniFEC0" unicode="&#x636;" horiz-adv-x="1931" arabic-form="medial" 
d="M1190 1229l164 -164l163 163l-164 164zM412 175q11 -19 24 -30q104 -130 293 -149q183 -15 257 -15q231 0 412 49q39 -17 108 -24t175 -7l252 1q42 0 71 28t29 69q0 42 -29 70.5t-71 28.5h-231q108 109 120 273q0 6 1 11v11q0 71 -30.5 142.5t-101.5 134.5
q-127 112 -302 112q-153 0 -315 -84q-147 -76 -267 -215.5t-208 -325.5l-6 11q-52 67 -52 203q0 57 10 98h-1q14 62 22 82l-189 58q-12 -42 -32 -139q-23 -109 -45 -172t-56 -106q-30 -39 -57 -57.5t-68.5 -26.5t-116.5 -10h-9q-41 0 -69.5 -29t-28.5 -70q0 -40 28.5 -68.5
t69.5 -28.5q281 0 413 175zM868 332q197 300 455 343q33 6 64 6q73 0 127.5 -28.5t83 -72.5t28.5 -88v-10q-6 -102 -90 -169q-83 -67 -228.5 -101.5t-324.5 -34.5q-91 0 -196 11q50 97 81 144z" />
    <glyph glyph-name="uniFEC2" unicode="&#x637;" horiz-adv-x="1867" arabic-form="final" 
d="M1938 168q-28 28 -70 28l-354 2q36 27 58 49l1 2q101 108 135 255q9 42 9 83q0 131 -81 215q-57 60 -138 96t-171 36q-43 0 -77 -7q-220 -33 -461 -262q0 29 -1 52l-2 49v64q0 12 -2 44l-9 128q-9 116 -13 156l-19 186l-18 165q-2 11 -4 33l-3 26l-196 -36l6 -40
q31 -199 58 -640q3 -58 3 -112q0 -141 -25 -317q-24 -36 -66 -88q-46 -60 -66 -90q-128 32 -258 83l-72 -185q319 -123 634 -140h5q50 -3 77 -3h26q11 -1 23 -1h41q32 0 41 1h919q42 0 70 28.5t28 69.5q0 42 -28 70zM1433 388q-193 -175 -503 -190l-278 9l151 191
q134 148 254.5 232t222.5 101q18 3 39 3q89 0 144 -40t55 -111q0 -104 -85 -195z" />
    <glyph glyph-name="uniFEC3" unicode="&#x637;" horiz-adv-x="1576" arabic-form="initial" 
d="M995.5 58.5q171.5 59.5 306.5 180.5l4 6q101 109 134 257q9 41 9 82q0 81 -31 144q-46 95 -133.5 149.5t-204.5 54.5q-42 0 -100 -8q-218 -38 -460 -262l2 148q0 380 -47 739l-202 -36l6 -59q42 -400 42 -665q0 -216 -25 -369q-35 -44 -69 -95q-23 -35 -54 -88l-25 -41
h-151q-41 0 -70 -28.5t-29 -69.5q0 -42 28.5 -70t70.5 -28l601 -1q226 0 397.5 59.5zM1165 382q-101 -82 -202 -122t-210.5 -52t-278.5 -12h-48h-15h-18h-15l66 92l42 51q68 82 150 158q96 90 188.5 150.5t186.5 80.5q25 5 54 5q86 0 140 -47t54 -127q0 -98 -94 -177z" />
    <glyph glyph-name="uniFEC4" unicode="&#x637;" horiz-adv-x="1583" arabic-form="medial" 
d="M959 42q129 -43 382 -43q32 0 58 1h57h132v1h1q41 0 69.5 28.5t28.5 69.5t-28.5 69t-69.5 28h-334l7 4l8 7l7 5q61 40 106.5 117t66.5 169q10 41 10 87q0 145 -109 238q-128 104 -284 104q-38 0 -77 -6q-217 -33 -461 -262v43q0 451 -61 839l-195 -36q12 -69 27 -258
q27 -376 27 -575v-65q0 -159 -29 -200q-80 -98 -154 -211h-152q-42 0 -70 -28t-28 -70t28 -70t70 -28h613q210 0 354 42zM625 476q106 105 203 170t193 82l35 2q91 0 146.5 -40.5t55.5 -112.5q0 -54 -23.5 -105.5t-61.5 -89.5q-81 -71 -159 -110t-191 -57.5t-292 -18.5h-143
l67 91q77 98 170 189z" />
    <glyph glyph-name="uniFEC6" unicode="&#x638;" horiz-adv-x="1868" arabic-form="final" 
d="M1938 168q-28 28 -70 28l-354 2q36 27 58 49l1 2q101 108 135 255q9 42 9 83q0 131 -81 215q-57 60 -138 96t-171 36q-43 0 -77 -7q-220 -33 -461 -262q0 29 -1 52l-2 49v64q0 12 -2 44l-9 128q-9 116 -13 156l-19 186l-18 165q-2 11 -4 33l-3 26l-196 -36l6 -40
q31 -199 58 -640q3 -58 3 -112q0 -141 -25 -317q-24 -36 -66 -88q-46 -60 -66 -90q-128 32 -258 83l-72 -185q319 -123 634 -140h5q50 -3 77 -3h26q11 -1 23 -1h41q32 0 41 1h919q42 0 70 28.5t28 69.5q0 42 -28 70zM1119 1356l164 -164l163 163l-164 164zM1433 388
q-193 -175 -503 -190l-278 9l151 191q134 148 254.5 232t222.5 101q18 3 39 3q89 0 144 -40t55 -111q0 -104 -85 -195z" />
    <glyph glyph-name="uniFEC7" unicode="&#x638;" horiz-adv-x="1543" arabic-form="initial" 
d="M995.5 58.5q171.5 59.5 306.5 180.5l4 6q101 109 134 257q9 41 9 82q0 81 -31 144q-46 95 -133.5 149.5t-204.5 54.5q-42 0 -100 -8q-218 -38 -460 -262l2 148q0 380 -47 739l-202 -36l6 -59q42 -400 42 -665q0 -216 -25 -369q-35 -44 -69 -95q-23 -35 -54 -88l-25 -41
h-151q-41 0 -70 -28.5t-29 -69.5q0 -42 28.5 -70t70.5 -28l601 -1q226 0 397.5 59.5zM857 1372l164 -164l163 163l-164 164zM1165 382q-101 -82 -202 -122t-210.5 -52t-278.5 -12h-48h-15h-18h-15l66 92l42 51q68 82 150 158q96 90 188.5 150.5t186.5 80.5q25 5 54 5
q86 0 140 -47t54 -127q0 -98 -94 -177z" />
    <glyph glyph-name="uniFEC8" unicode="&#x638;" horiz-adv-x="1592" arabic-form="medial" 
d="M959 42q129 -43 382 -43q32 0 58 1h57h132v1h1q41 0 69.5 28.5t28.5 69.5t-28.5 69t-69.5 28h-334l7 4l8 7l7 5q61 40 106.5 117t66.5 169q10 41 10 87q0 145 -109 238q-128 104 -284 104q-38 0 -77 -6q-217 -33 -461 -262v43q0 451 -61 839l-195 -36q12 -69 27 -258
q27 -376 27 -575v-65q0 -159 -29 -200q-80 -98 -154 -211h-152q-42 0 -70 -28t-28 -70t28 -70t70 -28h613q210 0 354 42zM893 1355l164 -164l163 163l-164 164zM625 476q106 105 203 170t193 82l35 2q91 0 146.5 -40.5t55.5 -112.5q0 -54 -23.5 -105.5t-61.5 -89.5
q-81 -71 -159 -110t-191 -57.5t-292 -18.5h-143l67 91q77 98 170 189z" />
    <glyph glyph-name="uniFECA" unicode="&#x639;" horiz-adv-x="1357" arabic-form="final" 
d="M1355 196q-104 0 -199.5 34t-211.5 103q130 60 223.5 151t98.5 243v9q0 83 -52 144q-51 60 -145 93t-209 33q-111 0 -221 -24q-264 -66 -355 -210l12 -122l26 -30q127 -141 237 -239q-126 -53 -229 -133q-117 -94 -176 -203t-59 -259q0 -156 62 -260q91 -153 261.5 -236
t400.5 -83q91 0 150 7q104 11 186.5 44t201.5 103l-102 170q-84 -61 -201 -94t-250 -33q-136 0 -212 30q-66 26 -135.5 77t-117.5 124.5t-48 158.5q0 93 40 160q54 92 152.5 160.5t246.5 126.5q172 -121 325 -181.5t300 -60.5q42 2 69.5 29.5t27.5 68.5q0 42 -28 70
q-29 29 -69 29zM658.5 783.5q95.5 26.5 190.5 26.5q79 0 147 -20q4 -1 12 -4t14 -6l13 -6q10 -4 15.5 -9t7.5 -7q10 -10 10 -26q-1 -79 -81 -144q-14 -11 -35 -26q-54 -35 -192 -94q-111 93 -256 248q59 41 154.5 67.5z" />
    <glyph glyph-name="uniFECB" unicode="&#x639;" horiz-adv-x="1138" arabic-form="initial" 
d="M-71 168q-29 -28 -29 -70t29 -70t71 -28l218 2q482 0 794 85l-24 190q-44 -10 -92 -18q-140 -25 -221 -25q-66 0 -117 14q-94 27 -152 93.5t-58 161.5q0 71 28.5 124.5t82 82.5t124.5 29q75 0 152 -32.5t141 -102.5l123 151q-54 51 -115 90q-148 90 -301 90
q-90 0 -171 -35q-120 -53 -190 -155.5t-70 -241.5q0 -99 32 -171t100 -133l-284 -3q-42 0 -71 -28z" />
    <glyph glyph-name="uniFECC" unicode="&#x639;" horiz-adv-x="1144" arabic-form="medial" 
d="M939 397.5q68 87.5 103 180.5q18 47 18 87q0 15 -1 19q0 83 -82 150q-128 106 -367 106q-315 0 -509 -177l-10 -139l99 -116q73 -89 124.5 -146t101.5 -103q-157 -63 -415 -63q-42 0 -70.5 -29t-28.5 -71q0 -40 29 -68.5t70 -28.5q341 0 601 123q209 -123 544 -123
q41 0 70 28.5t29 68.5q0 42 -28.5 71t-70.5 29q-223 0 -358 52q83 62 151 149.5zM599 743q156 0 262 -70q0 -19 -11 -43q-19 -40 -58.5 -95t-89.5 -104t-98 -74q-55 46 -107 99q-45 45 -71 75.5t-90 108.5l-25 30q124 73 288 73z" />
    <glyph glyph-name="uniFECE" unicode="&#x63a;" horiz-adv-x="1351" arabic-form="final" 
d="M589 1342l164 -164l163 163l-164 164zM1348 196q-104 0 -199.5 34t-211.5 103q130 60 223.5 151t98.5 243v9q0 83 -52 144q-51 60 -145 93t-209 33q-112 0 -221 -24q-264 -66 -355 -210l12 -122l26 -30q127 -141 237 -239q-126 -53 -229 -133q-117 -94 -176 -203
t-59 -259q0 -156 62 -260q91 -153 261.5 -236t400.5 -83q91 0 150 7q104 11 186.5 44t201.5 103l-102 170q-84 -61 -201 -94t-250 -33q-136 0 -212 30q-66 26 -135.5 77t-117.5 124.5t-48 158.5q0 93 40 160q54 92 152.5 160.5t246.5 126.5q172 -121 325 -181.5t300 -60.5
q42 2 69.5 29.5t27.5 68.5q0 42 -28 70q-29 29 -69 29zM651.5 783.5q95.5 26.5 190.5 26.5q79 0 147 -20q4 -1 12 -4t14 -6l13 -6q10 -4 15.5 -9t7.5 -7q10 -10 10 -26q-1 -79 -81 -144q-14 -11 -35 -26q-54 -35 -192 -94q-111 93 -256 248q59 41 154.5 67.5z" />
    <glyph glyph-name="uniFECF" unicode="&#x63a;" horiz-adv-x="1127" arabic-form="initial" 
d="M398 1337l164 -164l163 163l-164 164zM-71 168q-29 -28 -29 -70t29 -70t71 -28l218 2q482 0 794 85l-24 190q-44 -10 -92 -18q-140 -25 -221 -25q-66 0 -117 14q-94 27 -152 93.5t-58 161.5q0 71 28.5 124.5t82 82.5t124.5 29q75 0 152 -32.5t141 -102.5l123 151
q-54 51 -115 90q-148 90 -301 90q-90 0 -171 -35q-120 -53 -190 -155.5t-70 -241.5q0 -99 32 -171t100 -133l-284 -3q-42 0 -71 -28z" />
    <glyph glyph-name="uniFED0" unicode="&#x63a;" horiz-adv-x="1144" arabic-form="medial" 
d="M434 1319l164 -164l163 163l-164 164zM931 397.5q68 87.5 103 180.5q18 47 18 87q0 15 -1 19q0 83 -82 150q-128 106 -367 106q-315 0 -509 -177l-10 -139l99 -116q73 -89 124.5 -146t101.5 -103q-157 -63 -415 -63q-42 0 -70.5 -29t-28.5 -71q0 -40 29 -68.5t70 -28.5
q342 0 601 123q209 -123 544 -123q41 0 70 28.5t29 68.5q0 42 -28.5 71t-70.5 29q-223 0 -358 52q83 62 151 149.5zM591 743q156 0 262 -70q0 -19 -11 -43q-19 -40 -58.5 -95t-89.5 -104t-98 -74q-55 46 -107 99q-45 45 -71 75.5t-90 108.5l-25 30q124 73 288 73z" />
    <glyph glyph-name="uniFED2" unicode="&#x641;" horiz-adv-x="2150" arabic-form="final" 
d="M1498 1336l164 -164l163 163l-164 164zM1962.5 737.5q-39.5 91.5 -116 146t-183.5 54.5q-78 0 -145 -37q-106 -57 -169.5 -172t-63.5 -260q0 -151 137 -264q-171 -34 -397 -34q-98 0 -173 5t-149 19q-80 15 -139.5 38t-109.5 60q-57 43 -88.5 100t-31.5 144q0 126 55 235
l9 19l-174 95q-2 -7 -15 -32q-74 -153 -74 -308q0 -153 67 -263q100 -170 316.5 -240.5t487.5 -70.5q136 0 265.5 14t228.5 34q36 7 100 28q61 20 77 24q214 -72 471 -72q42 0 70.5 28t28.5 70q0 41 -29 69.5t-70 28.5q-114 0 -251 24q105 105 105 316q0 110 -39.5 201.5z
M1529 376q-45 47 -45 93q0 75 27 137t69 97.5t83 35.5q48 0 82 -30q58 -51 58 -173q0 -94 -32 -152t-102 -98l-13 7q-82 36 -127 83z" />
    <glyph glyph-name="uniFED3" unicode="&#x641;" horiz-adv-x="947" arabic-form="initial" 
d="M233 1471l164 -164l163 163l-164 164zM752 212q62 74 83 214h1q5 52 5 84q0 154 -46 282q-33 91 -86 166t-125 121t-156 46q-60 0 -116 -30q-66 -36 -114.5 -106.5t-74 -154.5t-25.5 -160q0 -47 11 -88q32 -116 135.5 -177t261.5 -61h101l-16 -18q-28 -34 -79 -55
t-142 -41q-172 -38 -371 -38q-42 0 -71 -28t-29 -70q0 -40 28.5 -69t69.5 -29h17q565 7 738 212zM480 910q68 -51 109.5 -146t50.5 -216q-58 -2 -78 -2q-79 0 -132 7q-33 4 -54.5 12t-41.5 23q-39 29 -39 88q0 101 63 197q36 54 70 54q29 0 52 -17z" />
    <glyph glyph-name="uniFED4" unicode="&#x641;" horiz-adv-x="1072" arabic-form="medial" 
d="M386 1347l164 -164l163 163l-164 164zM547 71q231 -71 500 -71h9q43 0 71 27.5t28 70.5q0 41 -29 69.5t-70 28.5q-167 0 -287 24q53 57 84 139.5t31 171.5q0 65 -18 131q-34 121 -120.5 195.5t-212.5 80.5h-12q-93 0 -177.5 -64t-136 -172.5t-51.5 -232.5
q0 -144 130 -258q-130 -15 -290 -15q-43 0 -70.5 -27.5t-27.5 -70.5q0 -42 28 -70t70 -28h8q357 0 543 71zM594 714q38 -34 60.5 -90t22.5 -120q0 -77 -36.5 -133.5t-100.5 -84.5q-188 83 -188 183q0 73 27.5 135.5t69 99.5t82.5 37q33 0 63 -27z" />
    <glyph glyph-name="uniFED6" unicode="&#x642;" horiz-adv-x="1617" arabic-form="final" 
d="M686 1159l164 -163l162 162l-164 164zM1096 1158l164 -164l162 163l-164 163zM1682 167.5q-29 28.5 -70 28.5h-56q-36 0 -45 1q-13 332 -188 520q-117 129 -260 129q-67 0 -125 -33q-87 -50 -146 -149t-79 -226q-8 -50 -8 -85q0 -106 54 -185.5t146 -120.5
q114 -50 368 -50h24q-16 -85 -66 -183q-132 -252 -433 -252q-147 0 -255 53t-166.5 152t-58.5 236q0 33 3 67q18 177 130 387l-175 93q-157 -298 -157 -546q0 -80 17 -157q33 -149 123 -258t227.5 -167.5t311.5 -58.5q232 0 398 115q117 82 197.5 220t104.5 302h114
q42 0 70.5 28t28.5 70q0 41 -29 69.5zM937 512q19 50 56 93t70 43q35 0 64 -21q84 -62 132 -174t55 -257h-21q-10 -1 -23 -1t-24 1h-25h-15q-78 3 -118 7t-85 17q-98 29 -98 135q0 70 32 157z" />
    <glyph glyph-name="uniFED7" unicode="&#x642;" horiz-adv-x="908" arabic-form="initial" 
d="M39 1482l164 -163l162 162l-164 164zM449 1481l164 -164l162 163l-164 163zM752 212q62 74 83 214h1q5 52 5 84q0 154 -46 282q-33 91 -86 166t-125 121t-156 46q-60 0 -116 -30q-66 -36 -114.5 -106.5t-74 -154.5t-25.5 -160q0 -47 11 -88q32 -116 135.5 -177t261.5 -61
h101l-16 -18q-28 -34 -79 -55t-142 -41q-172 -38 -371 -38q-42 0 -71 -28t-29 -70q0 -40 28.5 -69t69.5 -29h17q565 7 738 212zM480 910q68 -51 109.5 -146t50.5 -216q-58 -2 -78 -2q-79 0 -132 7q-33 4 -54.5 12t-41.5 23q-39 29 -39 88q0 101 63 197q36 54 70 54
q29 0 52 -17z" />
    <glyph glyph-name="uniFED8" unicode="&#x642;" horiz-adv-x="1062" arabic-form="medial" 
d="M160 1330l164 -163l162 162l-164 164zM570 1329l164 -164l162 163l-164 163zM550 71q231 -71 500 -71h9q43 0 71 27.5t28 70.5q0 41 -29 69.5t-70 28.5q-167 0 -287 24q53 57 84 139.5t31 171.5q0 65 -18 131q-34 121 -120.5 195.5t-212.5 80.5h-12q-93 0 -177.5 -64
t-136 -172.5t-51.5 -232.5q0 -144 130 -258q-130 -15 -290 -15q-43 0 -70.5 -27.5t-27.5 -70.5q0 -42 28 -70t70 -28h8q357 0 543 71zM597 714q38 -34 60.5 -90t22.5 -120q0 -77 -36.5 -133.5t-100.5 -84.5q-188 83 -188 183q0 73 27.5 135.5t69 99.5t82.5 37q33 0 63 -27z
" />
    <glyph glyph-name="uniFEDA" unicode="&#x643;" horiz-adv-x="2075" arabic-form="final" 
d="M2076 0h4q41 0 69.5 28.5t28.5 69.5t-28.5 69.5t-69.5 28.5h-4q-102 0 -144 52q-38 46 -53.5 116.5t-21.5 192.5q-1 53 -10 202q-10 136 -11 179q-10 260 -38 557l-196 -21l6 -54q16 -160 29 -489l13 -204q11 -155 12 -227q-3 -73 -27 -115q-47 -88 -182 -143
q-181 -71 -500 -71q-284 2 -456.5 53.5t-222.5 150.5q-19 37 -19 86q0 60 26 130.5t62 119.5l-159 118q-56 -82 -92 -180t-36 -188q0 -95 42 -176q148 -306 855 -313q568 0 784 220q101 -192 339 -192zM849 789q0 35 20 63t51 41v-2q27 12 62 12q46 0 92 -13l28 92
q-76 19 -120 19q-65 0 -118 -26.5t-83 -75t-30 -110.5q0 -66 37.5 -117.5t97.5 -76.5l-179 -100l48 -87l227 126l52 28q58 31 98 55q48 28 92 59l-59 78q-16 -13 -42.5 -29t-42.5 -25q-15 -9 -44 -18.5t-52 -9.5q-41 0 -78 24t-50 58l1 -1q-8 22 -8 36z" />
    <glyph glyph-name="uniFEDB" unicode="&#x643;" horiz-adv-x="1023" arabic-form="initial" 
d="M-77 168.5q-31 -27.5 -31 -71.5q0 -42 31 -69.5t77 -27.5h323q55 0 87 7q263 48 338 281q20 65 20 137q0 106 -38 205.5t-114 201.5q-70 93 -136.5 159.5t-174.5 157.5l716 301l-77 182l-822 -352l-23 -205q260 -208 411 -427q70 -101 70 -196q0 -38 -8 -73
q-9 -34 -23.5 -58.5t-37.5 -43.5q-26 -21 -50 -33.5t-57 -21.5q-38 -9 -68 -14t-73 -8q-59 -4 -158 -4h-105q-46 0 -77 -27.5z" />
    <glyph glyph-name="uniFEDC" unicode="&#x643;" horiz-adv-x="1188" arabic-form="medial" 
d="M710 219q84 -111 196 -165t273 -54h8q42 0 70 28t28 70q0 41 -28 69.5t-70 28.5h-42q-76 2 -140 32t-105 75q-37 39 -71 95.5t-108 195.5q-67 126 -105 189q-126 216 -319 370l793 333l-77 182l-884 -381l-26 -221q255 -196 388 -433q71 -127 71 -219q0 -54 -26 -98
q-32 -53 -87.5 -86.5t-119.5 -33.5h-339q-42 0 -70.5 -28t-28.5 -70q0 -41 29 -69.5t70 -28.5h326q281 10 394 219z" />
    <glyph glyph-name="uniFEDE" unicode="&#x644;" horiz-adv-x="1532" arabic-form="final" 
d="M1602 28q29 28 29 69q0 43 -28 71t-71 28q-93 0 -145 59.5t-59 161.5q-14 383 -44 1112l-196 -8q19 -441 26 -630q2 -58 9 -224l9 -255q9 -263 9 -466q0 -82 -23 -148q-45 -125 -165.5 -191t-298.5 -66q-69 0 -149 39q-103 49 -161.5 134t-58.5 204q0 285 105 421
l-174 101q-37 -51 -64 -123q-63 -169 -63 -399q0 -192 86 -328q74 -116 196 -180.5t283 -64.5q165 0 300 44q383 128 383 557v47q0 40 -1 52q83 -45 196 -45q41 0 70 28z" />
    <glyph glyph-name="uniFEDF" unicode="&#x644;" horiz-adv-x="569" arabic-form="initial" 
d="M362.5 109q102.5 109 102.5 355v14q0 127 -8 310l-3 72l-4 87q-10 260 -38 557l-196 -21l6 -53q16 -162 29 -490l7 -155q10 -204 10 -309v-37q0 -92 -19.5 -144t-65 -75.5t-127.5 -23.5h-56q-41 0 -69.5 -28t-28.5 -70q0 -41 28.5 -69.5t69.5 -28.5h56q204 0 306.5 109z
" />
    <glyph glyph-name="uniFEE0" unicode="&#x644;" horiz-adv-x="649" arabic-form="medial" 
d="M352 84l19 19q94 -103 263 -103h15q42 0 71 28t29 70q0 43 -28.5 70.5t-71.5 27.5q-187 0 -187 193q0 76 3 244q3 167 3 251v210q0 313 -20 450l-195 -25q6 -49 9 -123q8 -230 8 -346v-188q0 -80 -3 -239q-4 -143 -4 -230q-4 -93 -29 -141q-9 -19 -22.5 -29.5
t-36.5 -15.5q-20 -5 -37.5 -7t-33 -3t-22.5 -1h-95q-41 0 -69.5 -29t-28.5 -69t28.5 -69t69.5 -29h118q163 0 247 84z" />
    <glyph glyph-name="uniFEE2" unicode="&#x645;" horiz-adv-x="1387" arabic-form="final" 
d="M388 199l240 -95q144 -58 218 -73q25 -5 38 -5q14 0 27 5q99 16 158 126q115 -147 311 -157h11q43 0 71 27.5t28 70.5t-28 70.5t-71 27.5h-9q-105 6 -170 82t-84 198q-21 164 -108 260t-237 105h-8q-94 0 -179 -67q-132 -102 -224 -360q-39 11 -73 11q-23 0 -45 -5
q-75 -19 -116 -77.5t-41 -147.5l38 -926l199 9l-37 936q0 4 1 7l1 6q32 -7 89 -28zM623.5 504q41.5 73 94.5 114q32 25 57 25h3q23 0 51 -15q51 -27 80 -81.5t29 -125.5q0 -57 -17.5 -117.5t-43.5 -76.5q-36 9 -88 26q-43 14 -75.5 27t-77.5 32q7 -3 -78 32q24 87 65.5 160z
" />
    <glyph glyph-name="uniFEE3" unicode="&#x645;" horiz-adv-x="1165" arabic-form="initial" 
d="M1024 600q-42 102 -124 163t-188 61q-128 0 -218 -110q-31 -36 -63.5 -95t-58.5 -119q-24 -57 -59 -113.5t-72 -96.5q-40 -43 -102.5 -68.5t-137.5 -25.5h-1q-40 -2 -68.5 -30.5t-28.5 -67.5q0 -41 28 -69.5t69 -28.5h1q225 0 388 163q112 -81 203 -116q89 -37 172 -37
q95 0 165 51q68 49 102 131t34 187q0 119 -41 221zM670 228q-75 30 -166 97l54 109q59 117 82 145q35 47 72 47q60 0 96 -40t50 -94.5t14 -104.5q0 -80 -27.5 -130t-83.5 -50q-38 0 -91 21z" />
    <glyph glyph-name="uniFEE4" unicode="&#x645;" horiz-adv-x="1311" arabic-form="medial" 
d="M192.5 38q73.5 35 151.5 113l4 6l4 4q181 -135 346 -153l38 -2q164 0 242 174q135 -180 334 -180q41 0 70.5 28t29.5 68q0 42 -29 71t-71 29q-40 0 -74.5 11.5t-59.5 30.5q-22 17 -42 46t-34 58q-17 38 -33 78l-11 29q-17 43 -37 90q-14 33 -26 55t-16 30q-19 35 -53 76
q-54 62 -112 92t-138 30q-128 0 -220 -111q-29 -36 -50 -78q-25 -48 -44 -86l-21 -42q-52 -105 -100 -171t-107 -102t-135 -36h-2q-42 0 -70 -28.5t-28 -71.5q0 -40 29 -68t69 -28h13q109 3 182.5 38zM618 228q-60 28 -151 95q18 31 55 107q36 76 52 104q23 38 26 42
q11 17 32 32t42 15q30 0 54 -12q54 -27 87.5 -87t33.5 -132q0 -50 -16.5 -93t-48 -69t-73.5 -26t-93 24z" />
    <glyph glyph-name="uniFEE6" unicode="&#x646;" horiz-adv-x="1751" arabic-form="final" 
d="M648 575l164 -164l163 163l-164 164zM1749 196q-91 0 -157 48q-55 40 -98.5 98.5t-97.5 158.5q-44 94 -71 136l-167 -106q0 -2 6 -10q11 -14 31 -58l23 -50q94 -219 94 -416v-16q-7 -445 -544 -471q-2 -1 -10 -1h-24q-165 0 -269 75q-164 119 -164 363q0 124 40 257
q17 59 27 86q11 33 31.5 76t40.5 67l-160 116q-26 -37 -60 -107q-116 -240 -116 -492q0 -188 72 -326q77 -148 220 -229.5t339 -81.5h41q341 18 534 183q98 84 150 211.5t52 290.5l-2 64q107 -62 239 -62q42 0 70.5 28t28.5 70t-28 70t-71 28z" />
    <glyph glyph-name="uniFEE7" unicode="&#x646;" horiz-adv-x="706" arabic-form="initial" 
d="M166 1249l164 -164l163 163l-164 164zM236 3q130 8 221 69q166 111 166 323q0 102 -40 241t-99 268l-5 11l-4 7l-1 2l-178 -88l33 -75l29 -69q51 -128 66 -256q2 -18 2 -40q0 -109 -74.5 -155t-220.5 -46q-9 0 -17 1h-18h-103q-41 0 -69.5 -29t-28.5 -69t28.5 -69
t69.5 -29h146q46 0 97 3z" />
    <glyph glyph-name="uniFEE8" unicode="&#x646;" horiz-adv-x="705" arabic-form="medial" 
d="M220 1150l164 -164l163 163l-164 164zM431 124q96 -124 274 -124q42 0 70 28t28 70t-28.5 70t-70.5 28q-35 0 -65 14q-28 13 -46 34t-30 54q-11 31 -17 61t-9 72l-10 115q-5 44 -14.5 99t-22.5 95l-188 -53q39 -138 39 -251q0 -127 -79.5 -183.5t-240.5 -56.5h-17
q-42 0 -70 -28.5t-28 -69.5q0 -42 28 -70t70 -28h17q283 0 410 124z" />
    <glyph glyph-name="uniFEEA" unicode="&#x647;" horiz-adv-x="1090" arabic-form="final" 
d="M892.5 38.5q78.5 -38.5 197.5 -38.5q42 0 70.5 28t28.5 70q0 41 -29 69.5t-70 28.5q-81 0 -123.5 28t-60.5 92q-40 140 -71 446q-3 25 -10 104q-12 143 -25 228l-196 -41v-4q3 -13 4 -33q1 -21 7 -66q1 -15 2 -26t2 -19q-348 -127 -467 -370q-20 -48 -20 -103
q0 -102 53 -167q101 -125 359 -125q106 0 219 19q51 -82 129.5 -120.5zM695 348q-81 -14 -143 -14q-47 0 -80 3.5t-69 12.5q-38 10 -59 33t-21 56q0 29 17 61q19 35 49 62l29 25q12 11 36 24q33 19 35 20q11 8 39 21q19 9 28.5 13t16.5 7l33 14l36 16q32 -249 53 -354z" />
    <glyph glyph-name="uniFEEB" unicode="&#x647;" horiz-adv-x="1522" arabic-form="initial" 
d="M562 57q147 -60 338 -60q200 0 306 61l-1 -1q98 52 153.5 134.5t55.5 190.5q0 132 -92 260q-66 86 -236 179q-82 45 -139.5 72t-180.5 80l-348 143l-95 -180l79 -31q-60 -28 -103 -73q-127 -133 -127 -309q0 -72 38.5 -152t111.5 -159q-96 -16 -315 -16h-9
q-43 0 -72.5 -27.5t-29.5 -69.5q0 -43 29 -71t73 -28h9q375 0 555 57zM696.5 391.5q-54.5 -81.5 -144.5 -120.5q-43 28 -72 55q-57 50 -86 100t-29 114q0 47 19 94q28 73 78.5 118t117.5 45q85 0 128 -58t43 -160q0 -106 -54.5 -187.5zM1094.5 612q64.5 -54 98.5 -111
t34 -107q0 -40 -18 -78q-30 -62 -103 -94.5t-177 -32.5h-48q-46 0 -92 7q77 82 122 186.5t45 188.5q0 91 -13 136q87 -41 151.5 -95z" />
    <glyph glyph-name="uniFEEC" unicode="&#x647;" horiz-adv-x="1005" arabic-form="medial" 
d="M738 -196q25 58 66 101q89 92 193 95h8q42 0 70.5 28t28.5 70t-28.5 70t-70.5 28q-58 0 -115 -18q-88 -28 -167 -86t-129 -144.5t-50 -191.5q0 -23 1 -30q-28 17 -61 56q-68 82 -131 233q149 24 254.5 101.5t147.5 199.5q29 60 29 160q0 136 -45 247t-123 162
q-44 29 -98 29q-70 0 -132 -42q-75 -51 -138 -153.5t-100.5 -231t-37.5 -253.5q0 -29 1 -38h-112q-42 0 -70 -28.5t-28 -69.5q0 -42 28 -70t70 -28h149l9 -25q132 -402 513 -633l125 152q-82 82 -82 191q0 61 25 119zM598 510q0 -56 -22 -115q-32 -86 -92.5 -137.5
t-144.5 -51.5l-31 2q-3 21 -3 44t3 50q20 170 96 306q51 91 108 97q86 -62 86 -195z" />
    <glyph glyph-name="uniFEEE" unicode="&#x648;" horiz-adv-x="1043" arabic-form="final" 
d="M1115 168q-28 28 -72 28h-75q-3 159 -53 295q-35 95 -93 176t-135.5 130.5t-167.5 49.5q-64 0 -124 -33q-87 -48 -146.5 -149t-78.5 -229q-6 -42 -6 -80q0 -126 65 -209q63 -77 168.5 -112t264.5 -35h100q-10 -74 -62.5 -153.5t-136.5 -145.5q-191 -150 -485 -210
l46 -193q206 32 380.5 126.5t292.5 242t156 333.5h90q42 0 71 27.5t29 69.5q0 43 -28 71zM567 638q20 -10 30 -18t21 -19l15 -15q125 -142 137 -384q-85 -6 -138 -6q-253 0 -269 130q-2 18 -2 40q0 71 24.5 137t61.5 106.5t72 40.5q24 0 48 -12z" />
    <glyph glyph-name="uniFEF0" unicode="&#x649;" horiz-adv-x="1715" arabic-form="final" 
d="M1786 28.5q29 28.5 29 69.5t-29 69.5t-70 28.5l-770 1l-15 -194l22 -4q13 -2 41 -9q252 -58 348 -136l23 -19q8 -7 16 -20.5t8 -24.5q0 -88 -119 -150q-85 -43 -203.5 -69t-236.5 -26l-114 2q-182 4 -301.5 89t-119.5 312q0 50 5 95q24 218 152 535l-183 74
q-81 -194 -126 -373t-45 -328q0 -222 97 -361q76 -127 234.5 -184.5t400.5 -57.5q188 0 350 46q177 49 290.5 149.5t115.5 246.5q0 66 -27.5 115t-81.5 95h239q41 0 70 28.5z" />
    <glyph glyph-name="uniFEF2" unicode="&#x64a;" horiz-adv-x="1713" arabic-form="final" 
d="M1786 28.5q29 28.5 29 69.5t-29 69.5t-70 28.5l-770 1l-15 -194l22 -4q13 -2 41 -9q252 -58 348 -136l23 -19q8 -7 16 -20.5t8 -24.5q0 -88 -119 -150q-85 -43 -203.5 -69t-236.5 -26l-114 2q-182 4 -301.5 89t-119.5 312q0 50 5 95q24 218 152 535l-183 74
q-81 -194 -126 -373t-45 -328q0 -222 97 -361q76 -127 234.5 -184.5t400.5 -57.5q188 0 350 46q177 49 290.5 149.5t115.5 246.5q0 66 -27.5 115t-81.5 95h239q41 0 70 28.5zM453 -971l164 -163l162 162l-164 164zM863 -972l164 -164l162 163l-164 163z" />
    <glyph glyph-name="uniFEF3" unicode="&#x64a;" horiz-adv-x="882" arabic-form="initial" 
d="M-66.5 168q-28.5 -28 -28.5 -70t28.5 -70t69.5 -28h216q86 0 170 10q233 26 321 224q30 69 30 161q0 102 -40 241t-99 268l-5 11l-4 7l-1 2l-178 -88l33 -75l29 -69q51 -128 66 -256q3 -22 3 -42q0 -49 -21 -87q-21 -36 -53 -57.5t-82 -33.5q-47 -11 -92 -15.5t-106 -4.5
h-187q-41 0 -69.5 -28zM38 -345l164 -163l162 162l-164 164zM448 -346l164 -164l162 163l-164 163z" />
    <glyph glyph-name="uniFEF4" unicode="&#x64a;" horiz-adv-x="854" arabic-form="medial" 
d="M458 318q-48 -66 -144 -93.5t-245 -27.5h-76q-41 0 -69.5 -29t-28.5 -70q0 -42 28 -70t70 -28h76q375 0 509 128q98 -128 275 -128q42 0 70 28t28 70t-29 70t-71 28q-156 0 -166 235q-5 147 -48 312l-187 -53q39 -133 39 -250q0 -82 -31 -122zM-23 -379l164 -163l162 162
l-164 164zM387 -380l164 -164l162 163l-164 163z" />
    <glyph glyph-name=".notdef" horiz-adv-x="1229" 
d="M1126 1444h-1024v-1806h1024v1806zM1012 1329v-1577h-795v1577h795z" />
    <glyph glyph-name="uni0000" 
 />
    <glyph glyph-name="uni0000" 
 />
    <glyph glyph-name="uni000D" unicode="&#xd;" horiz-adv-x="602" 
 />
    <glyph glyph-name="space" unicode=" " horiz-adv-x="771" 
 />
    <glyph glyph-name="exclam" unicode="!" horiz-adv-x="579" 
d="M383 1333v304h-203v-304l33 -872h147zM130 147l155 -155l163 163l-156 156z" />
    <glyph glyph-name="quotedbl" unicode="&#x22;" horiz-adv-x="762" 
d="M299 1226v240h-205v-240l50 -279h110zM631 1226v240h-205v-240l49 -279h108z" />
    <glyph glyph-name="numbersign" unicode="#" horiz-adv-x="1139" 
d="M340 401h314l-86 -426h150l87 426h308v149h-278l75 363h203v149h-173l87 429h-151l-87 -429h-315l87 429h-150l-87 -429h-303v-149h273l-74 -363h-199v-149h169l-87 -426h150zM759 913l-75 -363h-314l74 363h315z" />
    <glyph glyph-name="dollar" unicode="$" horiz-adv-x="1100" 
d="M796 791q-36 17 -180 53v519q90 -18 139.5 -76t65.5 -161l186 28q-22 160 -121.5 252.5t-269.5 108.5v86h-106v-86q-187 -19 -296.5 -121.5t-109.5 -287.5q0 -114 48 -197q46 -80 144.5 -136.5t213.5 -78.5v-573q-105 11 -170 93t-86 227l-181 -34q11 -141 71 -237
q40 -64 89 -103.5t115 -62.5t162 -35v-180h106v182q123 6 220 64.5t152 158t55 223.5q0 265 -247 374zM339 960q-55 58 -55 160q0 98 62.5 163.5t163.5 81.5v-498q-116 35 -171 93zM764 602q52 -36 73 -82t21 -115q0 -75 -31 -136t-86 -100t-125 -48v548q96 -31 148 -67z
" />
    <glyph glyph-name="percent" unicode="%" horiz-adv-x="1771" 
d="M708.5 1307q-37.5 88 -109.5 136t-172 48q-97 0 -166.5 -49.5t-105.5 -135t-36 -192.5q0 -131 40 -220t110 -133.5t160 -44.5q97 0 168.5 49.5t110 137t38.5 200.5q0 116 -37.5 204zM1381 1491h-146l-802 -1545h149zM589 1110q0 -145 -41.5 -207.5t-115.5 -62.5
q-71 0 -113.5 61.5t-42.5 194.5q0 271 156 271q67 0 112 -58q45 -57 45 -199zM1547 -5q72 49 110 136.5t38 201.5q0 116 -37.5 204t-109.5 136t-172 48q-97 0 -167 -49.5t-106 -135t-36 -192.5q0 -120 36 -210t105.5 -139t168.5 -49q98 0 170 49zM1495.5 535.5
q42.5 -61.5 42.5 -195.5q0 -145 -41.5 -207.5t-116.5 -62.5q-71 0 -113.5 61.5t-42.5 194.5q0 145 41.5 208t115.5 63q72 0 114.5 -61.5z" />
    <glyph glyph-name="ampersand" unicode="&#x26;" horiz-adv-x="1395" 
d="M1220 650l-187 40q-26 -114 -70 -204l-263 335q277 148 277 357q0 88 -45 159.5t-123.5 112.5t-172.5 41q-102 0 -185.5 -44.5t-131 -120t-47.5 -162.5q0 -69 36 -141.5t129 -180.5q-349 -166 -349 -438q0 -105 55 -204t160.5 -162t248.5 -63q242 0 421 198
q116 -137 225 -207l121 143q-132 95 -229 225q82 124 130 316zM712 1321q38 -22 59.5 -61t21.5 -87q0 -45 -14.5 -80.5t-55 -73t-116.5 -82.5l-80 93q-70 82 -70 151q0 45 22.5 82t61.5 58.5t86 21.5t85 -22zM725.5 186.5q-84.5 -52.5 -171.5 -52.5q-81 0 -143 44t-95.5 110
t-33.5 127q0 78 54.5 151t193.5 158l330 -409q-50 -76 -134.5 -128.5z" />
    <glyph glyph-name="quotesingle" unicode="'" horiz-adv-x="397" 
d="M295 1221v245h-205v-245l46 -274h111z" />
    <glyph glyph-name="parenleft" unicode="(" horiz-adv-x="1029" 
d="M597 1477q-33 -31 -43 -42q-313 -328 -388 -699q-23 -120 -23 -220q0 -244 124.5 -490.5t375.5 -479.5l133 149q-432 401 -432 829v23q5 152 61.5 299t143.5 271.5t189 217.5q17 17 17 18q-98 119 -125 154z" />
    <glyph glyph-name="parenright" unicode=")" horiz-adv-x="952" 
d="M155 1353q0 -1 17 -18q36 -33 47 -45q253 -265 325 -570q24 -102 24 -199q0 -208 -107.5 -415t-326.5 -411l133 -149q251 233 375 480.5t124 492.5q0 110 -22 217q-74 371 -388 699l-42 41l-34 31q-27 -35 -125 -154z" />
    <glyph glyph-name="asterisk" unicode="*" horiz-adv-x="990" 
d="M904 701l-30 93q-76 -25 -298 -104l16 306h-180l11 -307l-290 104l-58 -175l299 -85l-194 -241l146 -105l177 254l177 -254l149 105q-49 59 -107.5 129.5t-93.5 111.5l305 83z" />
    <glyph glyph-name="plus" unicode="+" horiz-adv-x="1219" 
d="M683 639h399v168h-399v399h-170v-399h-399v-168h399v-402h170v402z" />
    <glyph glyph-name="comma" unicode="," horiz-adv-x="588" 
d="M255.5 -138q-25.5 -48 -85.5 -75l50 -77q86 37 126.5 106.5t40.5 183.5v205h-205v-205h102q-3 -90 -28.5 -138z" />
    <glyph glyph-name="hyphen" unicode="-" horiz-adv-x="1051" 
d="M877 621h-682v-181h682v181z" />
    <glyph glyph-name="period" unicode="." horiz-adv-x="567" 
d="M290 -27q31 0 58 12q93 41 93 138q0 32 -12 59q-19 41 -55.5 66.5t-83.5 25.5q-42 0 -76.5 -19.5t-54 -54t-19.5 -77.5q0 -65 43 -107q43 -43 107 -43z" />
    <glyph glyph-name="slash" unicode="/" horiz-adv-x="590" 
d="M569 1491h-144l-425 -1516h145z" />
    <glyph glyph-name="zero" unicode="0" horiz-adv-x="980" 
d="M196 470q41 -94 123 -150.5t190 -56.5q70 0 131 27q95 41 152 122.5t57 189.5q0 70 -27 132q-41 94 -123.5 151t-189.5 57q-72 0 -133 -27q-94 -41 -150 -122.5t-56 -190.5q0 -72 26 -132zM356 691.5q23 40.5 63.5 64t89.5 23.5q50 0 90.5 -23t63.5 -63.5t23 -90.5
q0 -34 -14 -68q-21 -49 -64 -78.5t-99 -29.5q-34 0 -68 14q-49 21 -78.5 63.5t-29.5 98.5q0 49 23 89.5z" />
    <glyph glyph-name="one" unicode="1" horiz-adv-x="711" 
d="M511 315q-6 161 -23.5 328t-44.5 298q-29 141 -76.5 270.5t-109.5 228.5l-166 -106q146 -231 190 -610q21 -185 28.5 -351t7.5 -399h199q0 169 -5 341z" />
    <glyph glyph-name="two" unicode="2" horiz-adv-x="1116" 
d="M791 1162q-8 -49 -27 -92q-20 -45 -59 -69.5t-95 -24.5q-82 0 -130 36q-31 23 -52.5 52t-41 69.5t-62.5 138.5q-51 116 -89 174l-167 -106q56 -98 99 -204q53 -134 80.5 -296.5t37.5 -364.5t10 -495h199q0 395 -47 827q69 -28 163 -28q180 0 277 123v-1q104 122 109 354
v28q0 62 -6 113q-1 5 -5 31t-4 35l-196 -36q14 -81 14 -149q0 -66 -8 -115z" />
    <glyph glyph-name="three" unicode="3" horiz-adv-x="1450" 
d="M1133 1112l-6 -36q-3 -15 -9.5 -33t-13.5 -25q-22 -22 -58 -22q-19 0 -37 15q-32 29 -53 93q-17 53 -23.5 92t-14.5 118l-3 32q-4 45 -5 52q-5 38 -5 51v9l-198 -24q1 -6 3 -32l2 -27q1 -16 3 -55t2 -71q0 -76 -14 -134t-49 -97q-18 -23 -35.5 -32t-49.5 -9
q-46 0 -75 11.5t-49.5 36t-42.5 69.5q-15 28 -48 101t-47 104q-5 8 -22 47l-12 24q-26 53 -42 78l-181 -107q59 -96 85 -171q159 -405 159 -1019v-85l-3 -85h199q0 338 -18 576q-5 64 -18 167q-5 35 -10 75q60 -20 125 -20q77 0 132 26.5t105 83.5l20 30q87 -122 220 -122
q63 0 116 24q172 79 172 359q0 127 -33 293l-194 -37q30 -159 30 -255q0 -46 -4 -69z" />
    <glyph glyph-name="four" unicode="4" horiz-adv-x="1258" 
d="M957 935q-78 -21 -161 -21q-73 0 -124 16q-56 16 -90 57.5t-34 102.5q0 65 42 117q31 36 76.5 58.5t95.5 22.5q24 0 56 -8q93 -27 195 -120l143 138q-55 55 -125 101q-135 87 -268 87q-96 0 -182.5 -41.5t-142.5 -110.5q-49 -55 -72 -126q-40 114 -120 247l-166 -105
q146 -231 190 -610q21 -185 28.5 -351t7.5 -399h199q0 498 -39 772l-10 69q130 -115 340 -115q225 0 374 113l-88 162q-47 -35 -125 -56z" />
    <glyph glyph-name="five" unicode="5" horiz-adv-x="1379" 
d="M1071.5 5q67.5 36 113.5 97q41 56 66 132t25 151q0 10 1 18v16q0 102 -29 200q-87 276 -284 528q-51 66 -111.5 129t-148.5 146q-85 79 -121 115l-140 -140l37 -37q-112 -177 -191.5 -331.5t-128 -315t-48.5 -315.5q0 -198 92 -311q43 -53 104 -85t127 -32q135 0 225 108
v-1q13 15 25 35q87 -143 239 -143h1q79 0 146.5 36zM876 190q-48 48 -73.5 140.5t-25.5 202.5l-161 2q-20 -130 -63 -248t-118 -118q-35 0 -76 41q-49 70 -49 186q0 68 20 177q39 165 107 310t189 341q317 -308 432 -664q21 -66 21 -140q0 -99 -33 -171q-18 -38 -49.5 -60
t-71.5 -23q-28 3 -49 24z" />
    <glyph glyph-name="six" unicode="6" horiz-adv-x="1176" 
d="M661 1500h-17q-72 0 -149.5 -28.5t-137.5 -73.5q-76 -59 -120 -140t-44 -176q0 -147 92.5 -235t250.5 -103q-56 -53 -118 -129q-199 -246 -294 -509l-9 -23q-10 -21 -10 -32v-6l185 -60q1 1 12 29q127 347 376 590q146 142 315 206l-1 -1l25 8q37 11 48 17l-58 189
l-54 -18v1l-22 -7q-191 -60 -323 -60h-21q-37 0 -69 9q-63 18 -95 49t-32 84q0 47 22 87q32 59 99 96.5t149 37.5q95 0 189 -58l101 172q-140 84 -290 84z" />
    <glyph glyph-name="seven" unicode="7" horiz-adv-x="1302" 
d="M790 254q30 195 83.5 360t122 311t197.5 397q8 15 14.5 27.5t11.5 22.5l-165 103q-40 -61 -90 -160q-175 -346 -292 -726q-60 226 -159.5 432t-258.5 454l-165 -103q159 -251 262 -465t160 -444t57 -486h198q3 143 24 277z" />
    <glyph glyph-name="eight" unicode="8" horiz-adv-x="1346" 
d="M570 1176q-31 -198 -86.5 -366.5t-129 -322.5t-212.5 -417l165 -102q36 54 89 158q174 337 293 719q60 -223 160 -429t258 -448l165 102q-163 255 -265.5 466t-158 435t-55.5 479h-198q-3 -138 -25 -274z" />
    <glyph glyph-name="nine" unicode="9" horiz-adv-x="1122" 
d="M677 501q15 -76 40 -164t51 -146q30 -68 73 -130t92 -101l101 166q-45 52 -77 125q-78 178 -125 500q-20 217 -57.5 363.5t-106.5 237.5q-48 63 -102.5 94.5t-129.5 31.5q-92 0 -169.5 -65t-122.5 -167.5t-45 -208.5q0 -112 54 -187q58 -65 147 -105.5t188 -40.5
q71 0 146 22l11 -60q14 -77 32 -165zM492 902q-116 0 -178 62q-15 33 -15 75q0 76 39 152q44 81 99 90q19 0 35 -13q98 -82 137 -340q-50 -26 -117 -26z" />
    <glyph glyph-name="colon" unicode=":" horiz-adv-x="564" 
d="M187 904.5q-39 -39.5 -39 -100.5t39 -99.5t100 -38.5t100 38.5t39 99.5q0 60 -39.5 100t-99.5 40q-61 0 -100 -39.5zM148 147q0 -61 39 -100t100 -39t100 39t39 100t-39 100t-100 39t-100 -39t-39 -100z" />
    <glyph glyph-name="semicolon" unicode=";" horiz-adv-x="586" 
d="M387 1062h-205v-205h205v205zM255.5 -138q-25.5 -48 -85.5 -75l50 -77q86 37 126.5 106.5t40.5 183.5v205h-205v-205h102q-3 -90 -28.5 -138z" />
    <glyph glyph-name="less" unicode="&#x3c;" horiz-adv-x="1296" 
d="M1083 405l-770 319l770 316v179l-971 -410v-168l971 -415v179z" />
    <glyph glyph-name="equal" unicode="=" horiz-adv-x="1282" 
d="M114 1030v-168h968v168h-968zM114 585v-168h968v168h-968z" />
    <glyph glyph-name="greater" unicode="&#x3e;" horiz-adv-x="1244" 
d="M112 1219v-179l769 -316l-769 -319v-179l971 415v168z" />
    <glyph glyph-name="question" unicode="?" horiz-adv-x="1144" 
d="M568 1343q74 0 139.5 -36t104.5 -96.5t39 -131.5q0 -43 -11 -71l-11 -29q-4 -11 -18 -28q-10 -12 -17 -24q-4 -6 -23 -24l-22 -21l-25 -22l-37 -32q-59 -53 -88 -84t-61 -77q-67 -96 -67 -252v-23q0 -23 1 -31h173q2 98 12 146q10 49 41.5 91.5t116.5 118.5
q87 77 135 137t67 115t19 122q0 111 -58.5 202t-165.5 144.5t-247 53.5q-207 0 -328.5 -110t-146.5 -313l185 -22q46 297 293 297zM666 205h-205v-205h205v205z" />
    <glyph glyph-name="at" unicode="@" horiz-adv-x="2090" 
d="M1382 384l144 671h-179l-34 -155q-52 87 -128.5 135.5t-173.5 48.5q-113 0 -235 -80q-80 -53 -144.5 -144t-102 -200.5t-37.5 -213.5q0 -100 36.5 -203t118 -174.5t207.5 -71.5q41 0 81 12q123 38 226 154q6 -61 19 -86q41 -81 174 -81q144 0 284 99.5t229 265t89 352.5
q0 204 -97 376q-107 192 -302 298t-455 106q-319 0 -544 -144q-131 -84 -232 -218.5t-158 -305t-57 -356.5q0 -219 84 -408q70 -157 201.5 -267t316 -167.5t410.5 -57.5q245 0 412 64q153 56 283 161.5t187 224.5h-181q-94 -135 -273.5 -218.5t-430.5 -83.5q-249 0 -447 85
q-198 82 -306 257t-108 426q0 236 106 438q67 128 174.5 223.5t249 148t304.5 52.5q205 0 374 -87q158 -81 249.5 -221.5t91.5 -322.5q0 -99 -32 -193.5t-88 -171.5t-127 -127q-85 -61 -139 -61q-29 0 -49.5 19t-20.5 47q0 16 30 155zM1219 443q-27 -74 -74 -142
t-112.5 -112t-141.5 -44q-64 0 -112.5 38.5t-75 104.5t-26.5 146q0 83 30.5 181.5t81.5 172.5q50 74 110 110.5t125 36.5q70 0 122.5 -37t81 -102t28.5 -147q0 -105 -37 -206z" />
    <glyph glyph-name="A" unicode="A" horiz-adv-x="1373" 
d="M364 444h613l171 -444h221l-600 1466h-209l-563 -1466h206zM660 1312q21 -77 104 -304l153 -406h-497l161 430q50 138 79 280z" />
    <glyph glyph-name="B" unicode="B" horiz-adv-x="1302" 
d="M1105 906q55 79 55 185q0 102 -58 193q-59 96 -160.5 139t-267.5 43h-550v-1466h559q267 0 397 97q64 47 107.5 138.5t43.5 189.5q0 137 -73 227t-203 128q95 47 150 126zM611 1293q159 0 223 -21q62 -18 98.5 -73t36.5 -131q0 -98 -45.5 -145.5t-114 -60t-174.5 -12.5
h-317v443h293zM657 677q145 0 214 -25q74 -24 116.5 -83t42.5 -144q0 -67 -28.5 -122.5t-74.5 -82.5q-49 -29 -96.5 -38t-147.5 -9h-365v504h339z" />
    <glyph glyph-name="C" unicode="C" horiz-adv-x="1499" 
d="M1040 1249q93 -76 142 -230l191 45q-58 200 -207 313.5t-372 113.5q-192 0 -356 -89q-160 -88 -248 -258t-88 -400q0 -206 77 -393q80 -187 229.5 -281.5t382.5 -94.5q238 0 393 129.5t214 360.5l-194 49q-20 -94 -59 -162q-118 -211 -370 -211q-133 0 -249 69
q-224 137 -224 535q0 256 118 415q59 79 154 122t216 43q157 0 250 -76z" />
    <glyph glyph-name="D" unicode="D" horiz-adv-x="1466" 
d="M923 25q221 56 334 239.5t113 476.5q0 403 -231 599q-58 50 -120.5 77t-146 38t-209.5 11h-505v-1466h529q137 0 236 25zM660 1293q123 0 198 -15t130.5 -57t105.5 -124q76 -121 76 -353q0 -322 -146 -468q-56 -56 -140 -79.5t-219 -23.5h-313v1120h308z" />
    <glyph glyph-name="E" unicode="E" horiz-adv-x="1330" 
d="M1256 173h-900v499h811v172h-811v449h866v173h-1060v-1466h1094v173z" />
    <glyph glyph-name="F" unicode="F" horiz-adv-x="1226" 
d="M362 666h688v173h-688v454h795v173h-989v-1466h194v666z" />
    <glyph glyph-name="G" unicode="G" horiz-adv-x="1581" 
d="M1275 302q-33 -30 -77 -54q-78 -43 -172.5 -70.5t-178.5 -27.5q-147 0 -274 64q-264 131 -264 524q0 154 56 295q58 141 178.5 216.5t300.5 75.5q110 0 202 -39q91 -38 139.5 -100t82.5 -178l175 48q-37 149 -111 240q-73 92 -201.5 143.5t-287.5 51.5q-234 0 -397 -95
q-107 -63 -182.5 -166t-115 -232.5t-39.5 -271.5q0 -215 90 -391q56 -110 153.5 -191t227 -125t278.5 -44q321 0 607 229v544l-621 -1v-172h431v-273z" />
    <glyph glyph-name="H" unicode="H" horiz-adv-x="1444" 
d="M358 691h762v-691h194v1466h-194v-602h-762v602h-194v-1466h194v691z" />
    <glyph glyph-name="I" unicode="I" horiz-adv-x="514" 
d="M385 1466h-194v-1466h194v1466z" />
    <glyph glyph-name="J" unicode="J" horiz-adv-x="963" 
d="M59 399q0 -205 100.5 -314.5t293.5 -109.5q128 0 226 53q101 54 143.5 156.5t42.5 282.5v999h-194v-1010q0 -121 -20 -184q-19 -56 -73 -90t-126 -34q-69 0 -115 27t-72.5 91t-30.5 174l-175 -24v-17z" />
    <glyph glyph-name="K" unicode="K" horiz-adv-x="1428" 
d="M344 508l240 234l522 -742h256l-642 872l615 594h-263l-728 -727v727h-194v-1466h194v508z" />
    <glyph glyph-name="L" unicode="L" horiz-adv-x="1176" 
d="M1066 173h-722v1293h-194v-1466h916v173z" />
    <glyph glyph-name="M" unicode="M" horiz-adv-x="1647" 
d="M339 1248l424 -1248h175l426 1227v-1227h187v1466h-261l-351 -1020l-22 -68l-23 -68l-33 -99q-13 45 -70 217l-347 1038h-292v-1466h187v1248z" />
    <glyph glyph-name="N" unicode="N" horiz-adv-x="1450" 
d="M342 1152l770 -1152h199v1466h-186v-1151l-770 1151h-199v-1466h186v1152z" />
    <glyph glyph-name="O" unicode="O" horiz-adv-x="1609" 
d="M183 348q55 -112 145.5 -196t211 -130.5t260.5 -46.5q191 0 356 90q106 59 183.5 157t119.5 227.5t42 281.5q0 216 -86 393q-54 111 -144.5 194t-210.5 128.5t-259 45.5q-206 0 -365 -93.5t-248 -269t-89 -415.5q0 -194 84 -366zM365 1060.5q66 137.5 179.5 201
t257.5 63.5q145 0 261 -74q116 -72 177 -204t61 -315q0 -184 -64 -317.5t-177.5 -203.5t-260.5 -70q-144 0 -257.5 69t-178 198t-64.5 303q0 212 66 349.5z" />
    <glyph glyph-name="P" unicode="P" horiz-adv-x="1362" 
d="M352 596h376q293 0 421 121t128 325q0 107 -44.5 199t-117.5 143q-69 49 -156.5 65.5t-247.5 16.5h-553v-1466h194v596zM352 1293h375q136 0 181 -13q79 -21 124 -85.5t45 -158.5q0 -139 -86 -203t-260 -64h-379v524z" />
    <glyph glyph-name="Q" unicode="Q" horiz-adv-x="1603" 
d="M1490 734q0 214 -86 391q-54 111 -144.5 193.5t-210.5 128t-259 45.5q-200 0 -364 -93q-103 -59 -179 -158t-117.5 -229.5t-41.5 -278.5q0 -218 87 -392q56 -111 146 -193t208.5 -127.5t256.5 -45.5q197 0 360 91q158 -123 315 -180l57 135q-114 43 -249 136
q221 215 221 577zM987 180q-91 -39 -196 -39q-147 0 -261 69.5t-178 203t-64 319.5q0 191 64.5 324t178 200.5t260.5 67.5q145 0 261 -74q117 -72 177.5 -203.5t60.5 -313.5q0 -313 -171 -469q-111 94 -277 140l-47 -141q101 -25 192 -84z" />
    <glyph glyph-name="R" unicode="R" horiz-adv-x="1499" 
d="M1272 1287q-43 70 -101 108.5t-143 54.5t-217 16h-650v-1466h194v651h225q95 0 144 -17q43 -16 84 -54.5t84 -93.5q34 -43 54.5 -74t68.5 -107l194 -305h244l-255 399q-36 57 -78 107q-54 64 -93.5 96.5t-106.5 64.5q196 27 304.5 127t108.5 272q0 121 -61 221zM819 1304
q165 0 238 -67q76 -67 76 -171q0 -70 -39 -132q-41 -62 -118.5 -88.5t-203.5 -26.5h-417v485h464z" />
    <glyph glyph-name="S" unicode="S" horiz-adv-x="1330" 
d="M1143 1284q-66 100 -190 153.5t-289 53.5q-143 0 -269 -50q-112 -46 -179.5 -139t-67.5 -215q0 -211 208 -319q45 -25 118 -48t191 -51q90 -22 140.5 -35t81.5 -24q35 -12 73 -32t59 -41q24 -24 38.5 -60t14.5 -79v-6q0 -50 -22 -90q-39 -72 -127 -112.5t-204 -40.5h-11
q-129 0 -225 43q-97 42 -145.5 110.5t-62.5 184.5l-183 -16q5 -150 80 -264q79 -118 212.5 -175t332.5 -57q158 0 282 57q118 55 189 154.5t71 227.5q0 133 -66 218q-45 58 -102.5 96t-151 69.5t-255.5 67.5q-237 54 -292 105q-57 51 -57 130q0 62 37 112t112.5 79t187.5 29
q166 0 253.5 -68.5t103.5 -212.5l186 14q-4 129 -72 231z" />
    <glyph glyph-name="T" unicode="T" horiz-adv-x="1275" 
d="M725 1293h485v173h-1162v-173h483v-1293h194v1293z" />
    <glyph glyph-name="U" unicode="U" horiz-adv-x="1412" 
d="M1080.5 334.5q-39.5 -101.5 -124 -143t-232.5 -41.5q-127 0 -212 49q-63 37 -96.5 88.5t-47 129.5t-13.5 203v846h-194v-847q0 -229 56 -368q116 -276 524 -276q212 0 342 81q88 56 138 129t71.5 176.5t21.5 257.5v847h-194v-846q0 -184 -39.5 -285.5z" />
    <glyph glyph-name="V" unicode="V" horiz-adv-x="1361" 
d="M1350 1466h-198l-396 -1065q-46 -122 -79 -240q-33 111 -77 240l-381 1065h-210l568 -1466h199z" />
    <glyph glyph-name="W" unicode="W" horiz-adv-x="1913" 
d="M923 1117q24 80 43 172l46 -172l309 -1117h187l402 1466h-195l-230 -942q-60 -245 -73 -319q-34 243 -114 519l-210 742h-234l-279 -990q-8 -26 -66 -271q-22 129 -62 300l-223 961h-199l389 -1466h198z" />
    <glyph glyph-name="X" unicode="X" horiz-adv-x="1407" 
d="M610 511l39 60l14 22l17 28l32 -49q11 -17 19 -30t13 -19l369 -523h240l-555 775l515 691h-211l-295 -389q-61 -77 -116 -167q-33 62 -118 180l-266 376h-231l500 -702l-567 -764h233z" />
    <glyph glyph-name="Y" unicode="Y" horiz-adv-x="1394" 
d="M765 621l585 845h-226l-284 -431q-91 -139 -160 -259q-61 111 -149 248l-289 442h-236l565 -845v-621h194v621z" />
    <glyph glyph-name="Z" unicode="Z" horiz-adv-x="1281" 
d="M1200 173h-936l89 103l823 1017v173h-1050v-173h818q-73 -76 -152 -174l-751 -939v-180h1159v173z" />
    <glyph glyph-name="bracketleft" unicode="[" horiz-adv-x="702" 
d="M536 -258h-217v1575h217v149h-397v-1873h397v149z" />
    <glyph glyph-name="backslash" unicode="\" horiz-adv-x="572" 
d="M145 1491h-145l425 -1516h144z" />
    <glyph glyph-name="bracketright" unicode="]" horiz-adv-x="526" 
d="M39 1466v-149h217v-1575h-217v-149h397v1873h-397z" />
    <glyph glyph-name="asciicircum" unicode="^" horiz-adv-x="997" 
d="M726 690h181l-355 801h-145l-353 -801h185l240 597z" />
    <glyph glyph-name="underscore" unicode="_" horiz-adv-x="1133" 
d="M1162 -277h-1193v-130h1193v130z" />
    <glyph glyph-name="grave" unicode="`" horiz-adv-x="584" 
d="M89 1474l231 -280h145l-135 280h-241z" />
    <glyph glyph-name="a" unicode="a" horiz-adv-x="1116" 
d="M986 851q-26 124 -125 179.5t-277 55.5q-133 0 -241 -38q-102 -37 -157.5 -104.5t-80.5 -184.5l176 -24q19 76 50.5 119.5t85.5 63t141 19.5q131 0 193.5 -50.5t62.5 -165.5v-17q0 -21 -1 -30q-104 -37 -321 -62q-108 -14 -160 -27q-118 -30 -188 -108.5t-70 -196.5
q0 -95 45.5 -163.5t127.5 -104.5t190 -36q119 0 207 36.5t184 118.5q8 -76 36 -131h188q-34 59 -45.5 134.5t-11.5 209.5v341q0 120 -9 166zM292 372q26 38 70 57q47 20 157 36q188 26 294 68v-66q0 -114 -29 -180q-40 -80 -118.5 -125t-185.5 -45q-99 0 -156.5 43
t-57.5 125q0 49 26 87z" />
    <glyph glyph-name="b" unicode="b" horiz-adv-x="1111" 
d="M596 -24q128 0 232.5 68t165.5 197t61 306q0 111 -32 215q-47 151 -153.5 237.5t-264.5 86.5q-177 0 -291 -143v523h-180v-1466h167v133q106 -157 295 -157zM337.5 753.5q38.5 90.5 104.5 137.5t147 47q80 0 144 -45t101 -136.5t37 -224.5q0 -130 -38.5 -222t-104.5 -139
t-147 -47q-141 0 -211.5 109t-70.5 306q0 124 38.5 214.5z" />
    <glyph glyph-name="c" unicode="c" horiz-adv-x="1051" 
d="M344 225q-79 101 -79 307q0 203 82.5 304.5t223.5 101.5q97 0 157.5 -56.5t84.5 -158.5l175 27q-31 161 -139.5 248.5t-284.5 87.5q-135 0 -254 -65q-113 -63 -171.5 -189.5t-58.5 -304.5q0 -175 59.5 -299t168.5 -188t255 -64q119 0 213 48.5t152.5 137t76.5 204.5
l-177 23q-18 -127 -85 -196t-182 -69q-138 0 -217 101z" />
    <glyph glyph-name="d" unicode="d" horiz-adv-x="1072" 
d="M282 1017q-101 -66 -156.5 -194t-55.5 -293q0 -167 58 -289q56 -120 160.5 -192.5t238.5 -72.5q196 0 297 158v-134h167v1466h-179v-526q-107 146 -293 146q-131 0 -237 -69zM291 757.5q36 91.5 99.5 135.5t145.5 44q84 0 150 -46t103.5 -140.5t37.5 -235.5
q0 -127 -37 -215t-101.5 -132t-144.5 -44t-145.5 46t-104.5 137.5t-39 222.5q0 136 36 227.5z" />
    <glyph glyph-name="e" unicode="e" horiz-adv-x="1133" 
d="M416 169q-70 45 -109.5 126.5t-45.5 189.5h792q1 7 1 28v20q0 172 -61 297t-170.5 190.5t-251.5 65.5q-147 0 -259 -67t-174.5 -194.5t-62.5 -302.5q0 -167 60 -290.5t174 -189.5t272 -66q185 0 303.5 89.5t163.5 253.5l-186 23q-38 -108 -105 -163t-175 -55
q-96 0 -166 45zM315.5 790.5q39.5 69.5 106 108.5t151.5 39q132 0 205 -83t86 -222h-593q5 88 44.5 157.5z" />
    <glyph glyph-name="f" unicode="f" horiz-adv-x="640" 
d="M613 1316l27 157q-91 18 -168 18q-62 0 -104 -11q-71 -19 -112 -55t-59.5 -96t-18.5 -154v-113h-159v-140h159v-922h179v922h207v140h-207v98q0 63 13.5 99t46 51.5t90.5 15.5q42 0 106 -10z" />
    <glyph glyph-name="g" unicode="g" horiz-adv-x="1119" 
d="M102 -99q0 -107 52.5 -181.5t147 -112.5t220.5 -38q154 0 267 59q78 42 123.5 99t67.5 155.5t22 261.5v918h-166v-128q-122 152 -310 152q-143 0 -246 -70q-100 -69 -157 -195t-57 -284q0 -149 54.5 -271.5t158.5 -194t246 -71.5q176 0 294 139v-31q0 -67 -3 -114
q-8 -141 -79.5 -208.5t-215.5 -67.5q-221 0 -244 168l-175 26v-11zM289 761.5q38 87.5 103 131.5t147 44q84 0 150.5 -45t105.5 -133.5t39 -214.5q0 -132 -38 -220.5t-103.5 -131.5t-150.5 -43q-86 0 -151.5 43.5t-102.5 133.5t-37 224q0 124 38 211.5z" />
    <glyph glyph-name="h" unicode="h" horiz-adv-x="1090" 
d="M1000 0v673q0 151 -38 238q-38 82 -125 128.5t-204 46.5q-192 0 -318 -146v526h-180v-1466h180v581q0 126 30 196q31 68 99.5 111t151.5 43q224 0 224 -258v-673h180z" />
    <glyph glyph-name="i" unicode="i" horiz-adv-x="427" 
d="M316 1466h-180v-207h180v207zM316 1062h-180v-1062h180v1062z" />
    <glyph glyph-name="j" unicode="j" horiz-adv-x="460" 
d="M314 1466h-180v-209h180v209zM47 -431q101 0 159 38.5t83 119.5t25 215v1120h-180v-1116q0 -146 -27 -182q-27 -37 -82 -37q-24 0 -85 14l-34 -153q63 -19 141 -19z" />
    <glyph glyph-name="k" unicode="k" horiz-adv-x="1053" 
d="M316 421l127 122l351 -543h222l-447 668l406 394h-233l-426 -432v836h-180v-1466h180v421z" />
    <glyph glyph-name="l" unicode="l" horiz-adv-x="438" 
d="M311 1466h-180v-1466h180v1466z" />
    <glyph glyph-name="m" unicode="m" horiz-adv-x="1658" 
d="M946 0v617q0 149 66.5 231t193.5 82q61 0 108 -29q34 -21 51 -48.5t23.5 -70t6.5 -113.5v-669h179v729q0 357 -328 357q-202 0 -328 -186q-67 186 -300 186q-103 0 -186.5 -46.5t-135.5 -126.5v149h-161v-1062h180v551q0 141 29 222q28 71 90 114t144 43q100 0 144 -59
t44 -181v-690h180z" />
    <glyph glyph-name="n" unicode="n" horiz-adv-x="1072" 
d="M315 580q0 350 282 350q73 0 125 -33q38 -22 58.5 -53t29 -77.5t8.5 -120.5v-646h180v653q0 69 -2 107q-11 157 -104 241.5t-257 84.5q-221 0 -338 -175v151h-162v-1062h180v580z" />
    <glyph glyph-name="o" unicode="o" horiz-adv-x="1138" 
d="M130 230q62 -125 174.5 -189.5t261.5 -64.5q137 0 256 65q126 69 183.5 189.5t57.5 315.5q0 166 -63 288t-175.5 187t-258.5 65q-138 0 -250.5 -59t-180 -183.5t-67.5 -312.5q0 -176 62 -301zM293 754.5q40 91.5 110.5 137t162.5 45.5q134 0 222 -102q90 -100 90 -298
q0 -134 -40 -227t-110.5 -139.5t-161.5 -46.5q-100 0 -170.5 50.5t-106.5 142.5t-36 214q0 132 40 223.5z" />
    <glyph glyph-name="p" unicode="p" horiz-adv-x="1116" 
d="M828 45q108 67 168.5 197t60.5 297q0 156 -49 276q-50 125 -154.5 198t-246.5 73q-106 0 -177 -39t-131 -123v138h-164v-1469h180v517q50 -63 121 -98.5t158 -35.5q123 0 234 69zM338 753q40 95 106.5 143.5t145.5 48.5q80 0 144 -45.5t101.5 -137t37.5 -222.5
q0 -136 -38.5 -229.5t-104.5 -140t-148 -46.5q-81 0 -145 44.5t-101.5 134.5t-37.5 222q0 133 40 228z" />
    <glyph glyph-name="q" unicode="q" horiz-adv-x="1111" 
d="M992 -407v1469h-162v-142q-112 166 -310 166q-126 0 -232 -66q-102 -62 -159 -188.5t-57 -290.5q0 -171 62 -299t167.5 -197t232.5 -69q84 0 159.5 38t118.5 99v-520h180zM293.5 762q36.5 92 100 137t143.5 45q81 0 147.5 -48.5t106 -144.5t39.5 -233q0 -128 -37 -217
t-101 -133t-143 -44q-82 0 -148.5 46.5t-105 139t-38.5 224.5q0 136 36.5 228z" />
    <glyph glyph-name="r" unicode="r" horiz-adv-x="793" 
d="M648 861l62 167q-94 58 -185 58q-45 0 -81 -15.5t-72 -55.5t-77 -114v161h-162v-1062h180v556q0 48 5 100q5 48 19.5 93.5t35.5 77.5q23 34 60 53.5t83 19.5q66 0 132 -39z" />
    <glyph glyph-name="s" unicode="s" horiz-adv-x="985" 
d="M141.5 613.5q48.5 -59.5 130 -90t251.5 -73.5q146 -38 184 -61q53 -35 53 -96q0 -80 -68 -124.5t-176 -44.5q-245 0 -275 221l-178 -28q31 -174 142 -257.5t312 -83.5q129 0 224 43q92 41 148 118t56 175q0 105 -44 163.5t-116.5 88t-216.5 67.5l-51 13q-66 18 -105 30
q-41 13 -58 19.5t-40 20.5q-25 15 -36 36t-11 51q0 60 56.5 98.5t173.5 38.5q207 0 232 -174l176 24q-16 101 -62 164q-45 63 -141.5 98.5t-217.5 35.5q-107 0 -194 -32q-90 -33 -143.5 -105t-53.5 -169q0 -107 48.5 -166.5z" />
    <glyph glyph-name="t" unicode="t" horiz-adv-x="607" 
d="M387 167q-19 12 -27 25.5t-10.5 36t-2.5 72.5v621h181v140h-181v371l-179 -108v-263h-132v-140h132v-611q0 -127 14.5 -192t67.5 -99t168 -34q68 0 136 16l-26 159q-35 -7 -79 -7q-40 0 -62 13z" />
    <glyph glyph-name="u" unicode="u" horiz-adv-x="1067" 
d="M992 1062h-180v-569q0 -136 -30 -208q-27 -67 -97 -110.5t-155 -43.5q-81 0 -136 40q-36 26 -53.5 62.5t-23.5 91t-6 148.5v589h-180v-658q0 -119 13.5 -182.5t52.5 -119.5q42 -55 124.5 -90.5t172.5 -35.5q213 0 337 180v-156h161v1062z" />
    <glyph glyph-name="v" unicode="v" horiz-adv-x="1030" 
d="M1000 1062h-185l-236 -648q-31 -85 -67 -202q-46 157 -68 214l-228 636h-190l404 -1062h168z" />
    <glyph glyph-name="w" unicode="w" horiz-adv-x="1500" 
d="M734 817l41 -181l169 -636h187l332 1062h-175l-243 -819l-109 423l-103 396h-185l-71 -261q-103 -374 -153 -580q-137 493 -232 841h-186l325 -1062h188z" />
    <glyph glyph-name="x" unicode="x" horiz-adv-x="1018" 
d="M512 419q47 -72 152 -230l62 -94l62 -95h221l-395 562l367 500h-215l-179 -251q-38 -51 -81 -117q-32 55 -74 119l-163 249h-225l359 -510l-388 -552h218z" />
    <glyph glyph-name="y" unicode="y" horiz-adv-x="1058" 
d="M243 -431q96 0 155 44q57 43 100 121.5t104 247.5l404 1080h-180l-227 -619q-38 -100 -74 -242q-35 135 -77 246l-221 615h-194l403 -1064l-7 -19q-8 -17 -9 -25q-5 -11 -8 -24q-17 -48 -29.5 -75t-32.5 -55q-42 -56 -140 -56q-49 0 -103 16l20 -169q60 -22 116 -22z" />
    <glyph glyph-name="z" unicode="z" horiz-adv-x="1034" 
d="M980 155h-491q-105 0 -227 -9q137 152 391 451l295 346v119h-868v-146h433q88 0 203 6l-676 -776v-146h940v155z" />
    <glyph glyph-name="braceleft" unicode="{" horiz-adv-x="717" 
d="M636 1491h-56q-76 0 -116 -8q-46 -10 -89.5 -40t-67.5 -82q-19 -40 -26 -69.5t-10 -81.5t-7 -199q-4 -191 -17 -249q-16 -70 -65 -109.5t-125 -40.5v-163q75 -1 124.5 -41.5t65.5 -109.5q19 -88 19 -296v-61q0 -87 16 -163.5t50 -117.5q30 -36 61 -55.5t74.5 -27.5
t112.5 -8h56v157h-31q-91 0 -125 25q-23 15 -33 45.5t-12 73t-2 128.5v82q0 142 -21.5 229.5t-66.5 138t-121 82.5q93 45 136 103q44 59 58.5 147t14.5 247v102q0 68 6 103t24 60q18 24 50 33t92 9h31v157z" />
    <glyph glyph-name="bar" unicode="|" horiz-adv-x="471" 
d="M345 1491h-157v-1922h157v1922z" />
    <glyph glyph-name="braceright" unicode="}" horiz-adv-x="673" 
d="M47 -431h56q76 0 115.5 8.5t80.5 34.5q54 33 78.5 78t31 105t8.5 184l2 71q4 190 17 248q16 70 64.5 110t125.5 41v163q-76 1 -125 40.5t-65 109.5q-15 67 -17 257v34q-1 141 -10 213.5t-45.5 126t-118.5 82.5q-39 16 -142 16h-56v-157h31q62 0 95.5 -10t49.5 -35.5
t22 -74.5q5 -70 5 -215v-18q0 -143 20 -227.5t64.5 -135t124.5 -88.5q-90 -38 -136 -103q-33 -46 -48 -96t-20 -137t-5 -262q0 -68 -6 -103t-23 -60q-18 -25 -50 -34t-93 -9h-31v-157z" />
    <glyph glyph-name="asciitilde" unicode="~" horiz-adv-x="1182" 
d="M852 748q-35 0 -70 9q-53 15 -131 49q-90 38 -156 57t-130 19q-172 0 -278 -120v-205q83 82 140 108q55 28 121 28q74 0 197 -53l22 -9l31 -13q37 -17 53.5 -23t52.5 -18q31 -10 61 -14t68 -4q87 0 150.5 27.5t126.5 86.5v212q-128 -137 -258 -137z" />
    <glyph glyph-name="exclamdown" unicode="&#xa1;" horiz-adv-x="660" 
d="M240 857h207v205h-207v-205zM232 -79v-325h223v325l-55 776h-116z" />
    <glyph glyph-name="cent" unicode="&#xa2;" horiz-adv-x="1119" 
d="M340 1023q-233 -128 -233 -497q0 -182 69 -313.5t192 -191.5l-115 -398l112 -32l118 395q61 -14 103 -14q117 0 211.5 50.5t155 140.5t81.5 206l-179 20q-10 -78 -46 -139.5t-94 -96t-132 -34.5q-28 0 -61 9l222 766q70 -58 96 -171l175 27q-22 114 -75.5 184t-150.5 113
l112 387l-110 32l-113 -387q-58 8 -100 8q-123 0 -238 -64zM292 535q0 173 66 286q33 58 92.5 90t137.5 32q19 0 50 -3l-223 -763q-123 92 -123 358z" />
    <glyph glyph-name="sterling" unicode="&#xa3;" horiz-adv-x="1241" 
d="M726.5 1310q57.5 -33 93 -91.5t45.5 -133.5l179 27q-18 116 -75.5 201.5t-151.5 131.5t-216 46q-120 0 -224 -48t-167 -142.5t-63 -227.5q0 -52 10 -105t41 -159h-154v-148h196q17 -68 17 -124q0 -136 -65.5 -238t-164.5 -154l69 -173q146 93 302 93q80 0 227 -45
q146 -45 214 -45q53 0 103 12.5t140 50.5l-58 165q-123 -56 -192 -56q-26 0 -64 7t-117 25q-76 17 -133 25.5t-106 8.5q-69 0 -144 -22q178 189 178 382q0 49 -19 88h284v148h-315q-57 179 -57 290q0 68 34.5 124t93.5 88t130 32q72 0 129.5 -33z" />
    <glyph glyph-name="currency" unicode="&#xa4;" horiz-adv-x="1209" 
d="M142 726q0 -126 71 -236l-139 -136l115 -119l139 140q106 -73 237 -73q134 0 237 73l139 -140l116 119l-139 136q71 110 71 236q0 125 -71 235l139 136l-116 119l-139 -139q-105 72 -237 72q-130 0 -237 -72l-139 139l-115 -119l139 -136q-71 -110 -71 -235zM823 726
q0 -70 -35 -130t-95 -95t-129 -35t-129 35t-95 95t-35 130q0 69 35.5 128.5t95 95t128.5 35.5q107 0 183 -76t76 -183z" />
    <glyph glyph-name="yen" unicode="&#xa5;" horiz-adv-x="1160" 
d="M657 325h412v139h-412v143h412v148h-341l405 711h-214l-274 -507q-70 -132 -82 -163q-24 59 -76 154l-290 516h-200l406 -711h-341v-148h415v-143h-415v-139h415v-325h180v325z" />
    <glyph glyph-name="brokenbar" unicode="&#xa6;" horiz-adv-x="562" 
d="M188 701h157v790h-157v-790zM188 -431h157v791h-157v-791z" />
    <glyph glyph-name="section" unicode="&#xa7;" horiz-adv-x="1205" 
d="M705 1290q49 -53 68 -165l187 19q-21 171 -126.5 259t-291.5 88q-107 0 -190 -43t-129 -115t-46 -158q0 -66 29 -123t100 -125q-100 -30 -162.5 -105.5t-62.5 -177.5q0 -95 40 -163t106 -118.5t193 -128.5q276 -167 340 -245q36 -44 36 -94q0 -51 -28.5 -91t-78 -61.5
t-110.5 -21.5q-77 0 -126.5 25t-79.5 76t-49 134l-181 -26q21 -174 133.5 -267.5t303.5 -93.5q107 0 197 38q91 38 145.5 114.5t54.5 175.5q0 161 -159 281q118 48 172.5 112.5t54.5 173.5q0 85 -35 147q-36 60 -104.5 115.5t-210.5 141.5q-249 151 -306 220q-36 44 -36 96
q0 44 28.5 80.5t76 57.5t100.5 21q98 0 147 -53zM497 392q-161 94 -207 152q-46 55 -46 120q0 58 34.5 102.5t115.5 91.5q68 -54 204 -138q172 -106 225 -169q52 -61 52 -120q0 -51 -37 -100.5t-110 -86.5q-99 69 -231 148z" />
    <glyph glyph-name="dieresis" unicode="&#xa8;" horiz-adv-x="750" 
d="M249 1475h-188v-205h188v205zM622 1475h-188v-205h188v205z" />
    <glyph glyph-name="copyright" unicode="&#xa9;" horiz-adv-x="1536" 
d="M182 1225.5q-87 -104.5 -133 -231.5t-46 -258q0 -139 48.5 -266t134 -226.5t196.5 -162.5q180 -99 376 -99q197 0 375 99q110 61 196 161t134.5 227.5t48.5 266.5q0 196 -101 378q-66 118 -170.5 203.5t-230 129.5t-252.5 44q-189 0 -371 -98q-118 -63 -205 -167.5z
M1067 1284q91 -48 164 -132.5t114.5 -192t41.5 -223.5q0 -161 -83 -313q-50 -91 -133.5 -163t-190 -112.5t-222.5 -40.5q-161 0 -313 83q-92 51 -164 134.5t-112.5 189.5t-40.5 222q0 164 85 315q52 92 135 163.5t188.5 111.5t221.5 40q158 0 309 -82zM564.5 504
q-65.5 83 -65.5 227q0 94 31.5 166t91 111.5t141.5 39.5q165 0 226 -153l119 29q-33 110 -122 173t-219 63h-8q-82 0 -156 -28q-114 -43 -177 -143t-63 -245v-10q0 -128 48 -225.5t138 -151t210 -53.5q92 0 167.5 34.5t126.5 96.5t70 143l-123 36q-21 -86 -88.5 -139.5
t-159.5 -53.5q-122 0 -187.5 83z" />
    <glyph glyph-name="ordfeminine" unicode="&#xaa;" horiz-adv-x="756" 
d="M169 1436.5q-82 -54.5 -95 -153.5l137 -34q20 125 166 125q59 0 94 -18q27 -13 39.5 -27t17 -37t6.5 -71q-12 -3 -49 -10l-47 -10l-147 -22q-60 -10 -99 -23t-73 -35q-72 -48 -72 -156q0 -66 31 -116t86.5 -76.5t127.5 -26.5q134 0 256 107q3 -52 22 -89h148
q-41 50 -41 184l1 61v240q0 130 -71.5 186t-227.5 56q-128 0 -210 -54.5zM224 1029q27 26 117 39q139 23 192 36l-3 -68q-2 -48 -30.5 -87t-74 -61t-99.5 -22q-58 0 -94 26t-36 73q0 39 28 64z" />
    <glyph glyph-name="guillemotleft" unicode="&#xab;" horiz-adv-x="1184" 
d="M453 984l-319 -456l319 -456h146l-259 456l261 456h-148zM839 984l-313 -456l313 -456h152l-264 456l264 456h-152z" />
    <glyph glyph-name="logicalnot" unicode="&#xac;" horiz-adv-x="1323" 
d="M114 1030v-168h798v-438h170v606h-968z" />
    <glyph glyph-name="uni00AD" unicode="&#xad;" horiz-adv-x="724" 
d="M618 621h-553v-181h553v181z" />
    <glyph glyph-name="registered" unicode="&#xae;" horiz-adv-x="1593" 
d="M182 1225.5q-87 -104.5 -133 -231.5t-46 -258q0 -139 48.5 -266t134 -226.5t196.5 -162.5q180 -99 376 -99q197 0 375 99q110 61 196 161t134.5 227.5t48.5 266.5q0 196 -101 378q-66 118 -170.5 203.5t-230 129.5t-252.5 44q-189 0 -371 -98q-118 -63 -205 -167.5z
M1067 1284q91 -48 164 -132.5t114.5 -192t41.5 -223.5q0 -161 -83 -313q-50 -91 -133.5 -163t-190 -112.5t-222.5 -40.5q-161 0 -313 83q-92 51 -164 134.5t-112.5 189.5t-40.5 222q0 164 85 315q52 92 135 163.5t188.5 111.5t221.5 40q158 0 309 -82zM1015 1030
q-28 41 -66 63t-94 30t-149 8h-279v-812h131v345h77q71 0 105 -28q51 -36 137 -189l72 -128h160l-99 159q-69 113 -120 161q-25 25 -69 43q64 4 117 35t84 81.5t31 112.5q0 63 -38 119zM707 1021q92 0 131 -14q34 -13 55 -41.5t21 -65.5q0 -61 -44 -92.5t-153 -31.5h-159
v245h149z" />
    <glyph glyph-name="macron" unicode="&#xaf;" horiz-adv-x="1129" 
d="M1162 1695h-1193v-129h1193v129z" />
    <glyph glyph-name="degree" unicode="&#xb0;" horiz-adv-x="830" 
d="M544 973.5q64 37.5 101.5 101.5t37.5 139t-37.5 138.5t-101.5 101t-139 37.5q-74 0 -138 -37.5t-101.5 -101t-37.5 -138.5t37.5 -139t101 -101.5t138.5 -37.5t139 37.5zM489.5 1360q38.5 -23 61.5 -62t23 -84t-23 -84t-61.5 -62t-83.5 -23q-46 0 -84.5 23t-61.5 61.5
t-23 84.5t23 84.5t61.5 61.5t84.5 23q45 0 83.5 -23z" />
    <glyph glyph-name="plusminus" unicode="&#xb1;" horiz-adv-x="1144" 
d="M647 663h399v167h-399v399h-170v-399h-399v-167h399v-403h170v403zM78 168v-168h968v168h-968z" />
    <glyph glyph-name="uni00B2" unicode="&#xb2;" horiz-adv-x="700" 
d="M228 1321q17 24 45 34.5t76 10.5q63 0 100.5 -29t37.5 -81q0 -44 -37 -84q-27 -30 -171 -135q-79 -58 -123 -99q-27 -25 -59 -59q-26 -28 -47.5 -68.5t-24.5 -77.5h623v121h-386q10 11 43 40q19 17 49 38l26 19q160 117 205 171q59 77 59 159q0 58 -32 104t-97.5 72.5
t-162.5 26.5q-133 0 -204.5 -51.5t-101.5 -164.5l151 -16q14 45 31 69z" />
    <glyph glyph-name="uni00B3" unicode="&#xb3;" horiz-adv-x="679" 
d="M473 1137q65 19 101.5 59.5t36.5 100.5q0 81 -66 133q-65 54 -209 54q-83 0 -136.5 -19t-88 -59.5t-61.5 -111.5l143 -23q22 56 52.5 79t89.5 23q53 0 86 -23.5t33 -65.5q0 -52 -42 -77t-114 -25l-22 -110h10l16 1q7 1 15 1q5 0 8 1h6q159 0 159 -110q0 -58 -45 -95.5
t-112 -37.5q-117 0 -154 112l-146 -15q43 -214 309 -214q86 0 155 28t109 80.5t40 122.5q0 147 -173 191z" />
    <glyph glyph-name="acute" unicode="&#xb4;" horiz-adv-x="839" 
d="M591 1474h-236l-133 -280h149z" />
    <glyph glyph-name="paragraph" unicode="&#xb6;" horiz-adv-x="1125" 
d="M51.5 836.5q50.5 -89.5 142 -141t211.5 -57.5v-1045h165v1700h223v-1700h170v1700h144v173h-633q-147 0 -253 -49t-163 -144t-57 -229q0 -118 50.5 -207.5z" />
    <glyph glyph-name="periodcentered" unicode="&#xb7;" horiz-adv-x="604" 
d="M443 842h-205v-205h205v205z" />
    <glyph glyph-name="cedilla" unicode="&#xb8;" horiz-adv-x="670" 
d="M344 -270q-38 -26 -132 -26q-35 0 -94 4l-11 -117q61 -12 144 -12q147 0 217 58q72 57 72 132q0 61 -47 99.5t-124 47.5l33 107h-134l-52 -177q40 -1 58.5 -2.5t44.5 -7.5t38.5 -19.5t15.5 -37.5q0 -29 -29 -49z" />
    <glyph glyph-name="uni00B9" unicode="&#xb9;" horiz-adv-x="607" 
d="M331 1287v-554h145v751h-108q-43 -58 -116 -110.5t-145 -76.5v-123q121 31 224 113z" />
    <glyph glyph-name="ordmasculine" unicode="&#xba;" horiz-adv-x="729" 
d="M85 917q40 -84 114 -130.5t175 -46.5q99 0 173 47.5t114 132.5t40 195t-40 195.5t-114 133t-174 47.5q-101 0 -175 -47.5t-113.5 -133.5t-39.5 -199q0 -110 40 -194zM237.5 936.5q-44.5 64.5 -44.5 178.5q0 243 180 243q90 0 135 -63t45 -175q0 -248 -180 -248
q-91 0 -135.5 64.5z" />
    <glyph glyph-name="guillemotright" unicode="&#xbb;" horiz-adv-x="1176" 
d="M291 72l314 456l-314 456h-151l264 -456l-264 -456h151zM678 72l319 456l-319 456h-148l261 -456l-260 -456h147z" />
    <glyph glyph-name="onequarter" unicode="&#xbc;" horiz-adv-x="1905" 
d="M1510 1491h-156l-1102 -1548h157zM331 1287v-554h145v751h-108q-43 -58 -116 -110.5t-145 -76.5v-123q121 31 224 113zM1574 123h104v108h-104v489h-122l-405 -474v-123h383v-154h144v154zM1430 494v-263h-230z" />
    <glyph glyph-name="onehalf" unicode="&#xbd;" horiz-adv-x="1916" 
d="M1486 1491h-157l-1101 -1548h157zM331 1287v-554h145v751h-108q-43 -58 -116 -110.5t-145 -76.5v-123q121 31 224 113zM1253 556.5q17 23.5 44.5 34t75.5 10.5q64 0 101 -28.5t37 -80.5q0 -44 -37 -84q-27 -32 -171 -135q-144 -104 -206 -191q-42 -57 -48 -113h623v121
h-386q28 28 129 104q101 75 121 93q65 55 98.5 110t33.5 120q0 58 -32 104t-97.5 72.5t-162.5 26.5q-130 0 -203 -52.5t-103 -164.5l151 -15q15 45 32 68.5z" />
    <glyph glyph-name="threequarters" unicode="&#xbe;" horiz-adv-x="1769" 
d="M1510 1491h-157l-1101 -1548h157zM473 1137q65 19 101.5 59.5t36.5 100.5q0 81 -66 133q-65 54 -209 54q-83 0 -136.5 -19t-88 -59.5t-61.5 -111.5l143 -23q22 56 52.5 79t89.5 23q53 0 86 -23.5t33 -65.5q0 -52 -42 -77t-114 -25l-22 -110l58 3q156 0 156 -110
q0 -58 -45 -95.5t-112 -37.5q-117 0 -154 112l-146 -15q43 -214 309 -214q86 0 155 28t109 80.5t40 122.5q0 147 -173 191zM1574 123h104v108h-104v489h-123l-404 -474v-123h382v-154h145v154zM1429 494v-263h-229z" />
    <glyph glyph-name="questiondown" unicode="&#xbf;" horiz-adv-x="1275" 
d="M528 857h205v205h-205v-205zM486 -245q-65 36 -104 96.5t-39 131.5q0 58 27 107q31 52 121 131q17 14 53 47q22 20 50 49t41 47q51 72 64 120q23 82 23 166v21q0 23 -1 30h-173q-1 -108 -15 -156q-11 -44 -30 -71q-5 -7 -15.5 -23t-27.5 -32l-25 -24q-12 -12 -28.5 -26.5
t-28.5 -24.5q-86 -76 -133.5 -135.5t-67 -115t-19.5 -122.5q0 -111 58 -202.5t165 -144.5t248 -53q207 0 328.5 111t145.5 312l-184 21q-22 -142 -94.5 -219t-198.5 -77q-75 0 -140 36z" />
    <glyph glyph-name="Agrave" unicode="&#xc0;" horiz-adv-x="1373" 
d="M369 1881l231 -280h145l-135 280h-241zM364 444h613l171 -444h221l-600 1466h-209l-563 -1466h206zM660 1312q21 -77 104 -304l153 -406h-497l161 430q50 138 79 280z" />
    <glyph glyph-name="Aacute" unicode="&#xc1;" horiz-adv-x="1373" 
d="M947 1796h-236l-133 -280h149zM364 444h613l171 -444h221l-600 1466h-209l-563 -1466h206zM660 1312q21 -77 104 -304l153 -406h-497l161 430q50 138 79 280z" />
    <glyph glyph-name="Acircumflex" unicode="&#xc2;" horiz-adv-x="1373" 
d="M977 1520l-225 280h-192l-216 -280h206l113 170l110 -170h204zM364 444h613l171 -444h221l-600 1466h-209l-563 -1466h206zM660 1312q21 -77 104 -304l153 -406h-497l161 430q50 138 79 280z" />
    <glyph glyph-name="Atilde" unicode="&#xc3;" horiz-adv-x="1373" 
d="M624 1642q104 -56 166 -56q91 0 142 61t54 167h-130q-7 -49 -21.5 -68t-51.5 -19q-35 0 -94 30q-107 54 -169 54q-59 0 -105.5 -29t-72 -79.5t-25.5 -114.5v-5h133v5q0 40 20.5 65t55.5 25q30 0 98 -36zM364 444h613l171 -444h221l-600 1466h-209l-563 -1466h206z
M660 1312q21 -77 104 -304l153 -406h-497l161 430q50 138 79 280z" />
    <glyph glyph-name="Adieresis" unicode="&#xc4;" horiz-adv-x="1373" 
d="M567 1711h-188v-205h188v205zM940 1711h-188v-205h188v205zM364 444h613l171 -444h221l-600 1466h-209l-563 -1466h206zM660 1312q21 -77 104 -304l153 -406h-497l161 430q50 138 79 280z" />
    <glyph glyph-name="Aring" unicode="&#xc5;" horiz-adv-x="1373" 
d="M741 1562q41 25 65 67t24 91t-24.5 91t-65.5 67t-90 25q-47 0 -88.5 -24.5t-66.5 -66t-25 -88.5q0 -51 24 -94t65.5 -68t91.5 -25q49 0 90 25zM727 1798q31 -32 31 -77q0 -44 -31.5 -76.5t-74.5 -32.5q-45 0 -75.5 32.5t-30.5 78.5q0 43 31.5 75t74.5 32q44 0 75 -32z
M364 444h613l171 -444h221l-600 1466h-209l-563 -1466h206zM660 1312q21 -77 104 -304l153 -406h-497l161 430q50 138 79 280z" />
    <glyph glyph-name="AE" unicode="&#xc6;" horiz-adv-x="2036" 
d="M411 423h566v-423h959v173h-764v497h685v172h-685v451h737v173h-1203l-705 -1466h210zM977 1293v-698h-484l339 698h145z" />
    <glyph glyph-name="Ccedilla" unicode="&#xc7;" horiz-adv-x="1557" 
d="M1040 1249q93 -76 142 -230l191 45q-58 200 -207 313.5t-372 113.5q-192 0 -356 -89q-160 -88 -248 -258t-88 -400q0 -206 77 -393q145 -341 531 -373l-39 -132q40 -1 58.5 -2.5t44.5 -7.5t38.5 -19.5t15.5 -37.5q0 -29 -29 -49q-38 -26 -132 -26q-35 0 -94 4l-11 -117
q61 -12 144 -12q147 0 217 58q72 57 72 132q0 61 -47 99.5t-124 47.5l19 61q218 14 359 142t196 346l-194 49q-20 -94 -59 -162q-118 -211 -370 -211q-133 0 -249 69q-224 137 -224 535q0 256 118 415q59 79 154 122t216 43q157 0 250 -76z" />
    <glyph glyph-name="Egrave" unicode="&#xc8;" horiz-adv-x="1380" 
d="M410 1829l231 -280h145l-135 280h-241zM1256 173h-900v499h811v172h-811v449h866v173h-1060v-1466h1094v173z" />
    <glyph glyph-name="Eacute" unicode="&#xc9;" horiz-adv-x="1380" 
d="M884 1925h-236l-133 -280h149zM1256 173h-900v499h811v172h-811v449h866v173h-1060v-1466h1094v173z" />
    <glyph glyph-name="Ecircumflex" unicode="&#xca;" horiz-adv-x="1380" 
d="M1017 1649l-225 280h-192l-216 -280h206l113 170l110 -170h204zM1256 173h-900v499h811v172h-811v449h866v173h-1060v-1466h1094v173z" />
    <glyph glyph-name="Edieresis" unicode="&#xcb;" horiz-adv-x="1335" 
d="M574 1848h-188v-205h188v205zM947 1848h-188v-205h188v205zM1256 173h-900v499h811v172h-811v449h866v173h-1060v-1466h1094v173z" />
    <glyph glyph-name="Igrave" unicode="&#xcc;" horiz-adv-x="562" 
d="M-3 1932l231 -280h145l-135 280h-241zM385 1466h-194v-1466h194v1466z" />
    <glyph glyph-name="Iacute" unicode="&#xcd;" horiz-adv-x="562" 
d="M543 1815h-236l-133 -280h149zM385 1466h-194v-1466h194v1466z" />
    <glyph glyph-name="Icircumflex" unicode="&#xce;" horiz-adv-x="562" 
d="M608 1536l-225 280h-192l-216 -280h206l113 170l110 -170h204zM385 1466h-194v-1466h194v1466z" />
    <glyph glyph-name="Idieresis" unicode="&#xcf;" horiz-adv-x="562" 
d="M190 1857h-188v-205h188v205zM563 1857h-188v-205h188v205zM385 1466h-194v-1466h194v1466z" />
    <glyph glyph-name="Eth" unicode="&#xd0;" horiz-adv-x="1508" 
d="M933.5 25.5q100.5 25.5 195.5 95.5q73 53 127.5 148t84 216.5t29.5 255.5q0 403 -231 599q-58 50 -121 77t-146 38t-208 11h-506v-667h-161v-132h161v-667h529q146 0 246.5 25.5zM756 667v132h-404v494h308q104 0 168 -9t111 -32.5t92 -68.5q139 -139 139 -440
q0 -321 -147 -468q-55 -55 -139.5 -78.5t-218.5 -23.5h-313v494h404z" />
    <glyph glyph-name="Ntilde" unicode="&#xd1;" horiz-adv-x="1541" 
d="M733 1721q104 -56 166 -56q91 0 142 61t54 167h-130q-7 -49 -21.5 -68t-51.5 -19q-36 0 -94 30q-106 54 -169 54q-59 0 -105.5 -29t-72 -79.5t-25.5 -114.5v-5h133v5q0 40 20.5 65t55.5 25q31 0 98 -36zM342 1152l770 -1152h199v1466h-186v-1151l-770 1151h-199v-1466
h186v1152z" />
    <glyph glyph-name="Ograve" unicode="&#xd2;" horiz-adv-x="1707" 
d="M499 1899l231 -280h145l-135 280h-241zM183 348q55 -112 145.5 -196t211 -130.5t260.5 -46.5q191 0 356 90q106 59 183.5 157t119.5 227.5t42 281.5q0 216 -86 393q-54 111 -144.5 194t-210.5 128.5t-259 45.5q-206 0 -365 -93.5t-248 -269t-89 -415.5q0 -194 84 -366z
M365 1060.5q66 137.5 179.5 201t257.5 63.5q145 0 261 -74q116 -72 177 -204t61 -315q0 -184 -64 -317.5t-177.5 -203.5t-260.5 -70q-144 0 -257.5 69t-178 198t-64.5 303q0 212 66 349.5z" />
    <glyph glyph-name="Oacute" unicode="&#xd3;" horiz-adv-x="1707" 
d="M1044 1811h-236l-133 -280h149zM183 348q55 -112 145.5 -196t211 -130.5t260.5 -46.5q191 0 356 90q106 59 183.5 157t119.5 227.5t42 281.5q0 216 -86 393q-54 111 -144.5 194t-210.5 128.5t-259 45.5q-206 0 -365 -93.5t-248 -269t-89 -415.5q0 -194 84 -366z
M365 1060.5q66 137.5 179.5 201t257.5 63.5q145 0 261 -74q116 -72 177 -204t61 -315q0 -184 -64 -317.5t-177.5 -203.5t-260.5 -70q-144 0 -257.5 69t-178 198t-64.5 303q0 212 66 349.5z" />
    <glyph glyph-name="Ocircumflex" unicode="&#xd4;" horiz-adv-x="1707" 
d="M1090 1541l-225 280h-192l-216 -280h206l113 170l110 -170h204zM183 348q55 -112 145.5 -196t211 -130.5t260.5 -46.5q191 0 356 90q106 59 183.5 157t119.5 227.5t42 281.5q0 216 -86 393q-54 111 -144.5 194t-210.5 128.5t-259 45.5q-206 0 -365 -93.5t-248 -269
t-89 -415.5q0 -194 84 -366zM365 1060.5q66 137.5 179.5 201t257.5 63.5q145 0 261 -74q116 -72 177 -204t61 -315q0 -184 -64 -317.5t-177.5 -203.5t-260.5 -70q-144 0 -257.5 69t-178 198t-64.5 303q0 212 66 349.5z" />
    <glyph glyph-name="Otilde" unicode="&#xd5;" horiz-adv-x="1707" 
d="M784 1706q104 -56 166 -56q91 0 142 61t54 167h-130q-7 -49 -21.5 -68t-51.5 -19q-36 0 -94 30q-106 54 -169 54q-59 0 -105.5 -29t-72 -79.5t-25.5 -114.5v-5h133v5q0 40 20.5 65t55.5 25q30 0 98 -36zM183 348q55 -112 145.5 -196t211 -130.5t260.5 -46.5q191 0 356 90
q106 59 183.5 157t119.5 227.5t42 281.5q0 216 -86 393q-54 111 -144.5 194t-210.5 128.5t-259 45.5q-206 0 -365 -93.5t-248 -269t-89 -415.5q0 -194 84 -366zM365 1060.5q66 137.5 179.5 201t257.5 63.5q145 0 261 -74q116 -72 177 -204t61 -315q0 -184 -64 -317.5
t-177.5 -203.5t-260.5 -70q-144 0 -257.5 69t-178 198t-64.5 303q0 212 66 349.5z" />
    <glyph glyph-name="Odieresis" unicode="&#xd6;" horiz-adv-x="1614" 
d="M655 1779h-188v-205h188v205zM1028 1779h-188v-205h188v205zM183 348q55 -112 145.5 -196t211 -130.5t260.5 -46.5q191 0 356 90q106 59 183.5 157t119.5 227.5t42 281.5q0 216 -86 393q-54 111 -144.5 194t-210.5 128.5t-259 45.5q-206 0 -365 -93.5t-248 -269
t-89 -415.5q0 -194 84 -366zM365 1060.5q66 137.5 179.5 201t257.5 63.5q145 0 261 -74q116 -72 177 -204t61 -315q0 -184 -64 -317.5t-177.5 -203.5t-260.5 -70q-144 0 -257.5 69t-178 198t-64.5 303q0 212 66 349.5z" />
    <glyph glyph-name="multiply" unicode="&#xd7;" horiz-adv-x="1215" 
d="M597 603l314 -314l122 122l-314 314l312 313l-120 121l-313 -313l-314 314l-122 -122l314 -314l-315 -315l121 -121z" />
    <glyph glyph-name="Oslash" unicode="&#xd8;" horiz-adv-x="1707" 
d="M1150 65q106 58 184 156t120.5 229t42.5 282q0 111 -15 192t-48 153.5t-93 160.5l176 198l-99 84l-168 -188q-115 89 -216 124t-235 35q-199 0 -362 -91q-106 -60 -182.5 -158.5t-118 -229t-41.5 -282.5q0 -102 14 -177.5t49 -152t101 -178.5l-176 -197l99 -84l168 188
q77 -58 141.5 -91t138 -48t171.5 -15q186 0 349 90zM313.5 537q-18.5 75 -18.5 196q0 191 64.5 324t178.5 200.5t262 67.5q64 0 114 -11.5t100.5 -38.5t115.5 -78l-746 -835q-52 100 -70.5 175zM1297 727q0 -182 -64 -314t-178 -202t-260 -70q-183 0 -326 121l743 832
q85 -157 85 -367z" />
    <glyph glyph-name="Ugrave" unicode="&#xd9;" horiz-adv-x="1522" 
d="M475 1924l231 -280h145l-135 280h-241zM1080.5 334.5q-39.5 -101.5 -124 -143t-232.5 -41.5q-127 0 -212 49q-63 37 -96.5 88.5t-47 129.5t-13.5 203v846h-194v-847q0 -229 56 -368q116 -276 524 -276q212 0 342 81q88 56 138 129t71.5 176.5t21.5 257.5v847h-194v-846
q0 -184 -39.5 -285.5z" />
    <glyph glyph-name="Uacute" unicode="&#xda;" horiz-adv-x="1522" 
d="M976 1820h-236l-133 -280h149zM1080.5 334.5q-39.5 -101.5 -124 -143t-232.5 -41.5q-127 0 -212 49q-63 37 -96.5 88.5t-47 129.5t-13.5 203v846h-194v-847q0 -229 56 -368q116 -276 524 -276q212 0 342 81q88 56 138 129t71.5 176.5t21.5 257.5v847h-194v-846
q0 -184 -39.5 -285.5z" />
    <glyph glyph-name="Ucircumflex" unicode="&#xdb;" horiz-adv-x="1522" 
d="M1077 1645l-225 280h-192l-216 -280h206l113 170l110 -170h204zM1080.5 334.5q-39.5 -101.5 -124 -143t-232.5 -41.5q-127 0 -212 49q-63 37 -96.5 88.5t-47 129.5t-13.5 203v846h-194v-847q0 -229 56 -368q116 -276 524 -276q212 0 342 81q88 56 138 129t71.5 176.5
t21.5 257.5v847h-194v-846q0 -184 -39.5 -285.5z" />
    <glyph glyph-name="Udieresis" unicode="&#xdc;" horiz-adv-x="1522" 
d="M638 1730h-188v-205h188v205zM1011 1730h-188v-205h188v205zM1080.5 334.5q-39.5 -101.5 -124 -143t-232.5 -41.5q-127 0 -212 49q-63 37 -96.5 88.5t-47 129.5t-13.5 203v846h-194v-847q0 -229 56 -368q116 -276 524 -276q212 0 342 81q88 56 138 129t71.5 176.5
t21.5 257.5v847h-194v-846q0 -184 -39.5 -285.5z" />
    <glyph glyph-name="Yacute" unicode="&#xdd;" horiz-adv-x="1394" 
d="M892 1816h-236l-133 -280h149zM765 621l585 845h-226l-284 -431q-91 -139 -160 -259q-61 111 -149 248l-289 442h-236l565 -845v-621h194v621z" />
    <glyph glyph-name="Thorn" unicode="&#xde;" horiz-adv-x="1440" 
d="M352 298h376q293 0 421 121t128 324q0 106 -44 198t-117 143q-66 46 -161.5 65t-243.5 19h-359v298h-194v-1466h194v298zM352 995h375q128 0 182 -14q78 -21 123 -86t45 -158q0 -139 -86 -202.5t-260 -63.5h-379v524z" />
    <glyph glyph-name="germandbls" unicode="&#xdf;" horiz-adv-x="1316" 
d="M760 1108l-9 -26q-11 -24 -27 -51l-16 -28q-2 -3 -16 -27q-20 -31 -37 -63q-6 -10 -15.5 -30.5t-13.5 -34.5q-12 -40 -12 -79q0 -62 40 -117q39 -59 205 -171q44 -30 73.5 -54t38.5 -34q32 -41 32 -96q0 -47 -25.5 -87t-67.5 -63.5t-91 -23.5q-27 0 -53 9
q-48 17 -81 52.5t-71 103.5l-155 -72q47 -109 142.5 -175t220.5 -66q104 0 187.5 45.5t130.5 122.5t47 169q0 70 -24 121t-75 97t-146 107q-40 26 -80 57q-34 29 -48.5 51t-14.5 52q0 24 12 55q19 56 86 162q23 38 38.5 89t15.5 101q0 77 -45.5 142.5t-129.5 105t-196 39.5
q-130 0 -234 -56q-72 -39 -114 -94.5t-60.5 -137.5t-18.5 -204v-999h180v991q0 141 30 218t82 105.5t131 28.5q54 0 100 -20t73 -56t27 -81q0 -39 -16 -78z" />
    <glyph glyph-name="agrave" unicode="&#xe0;" horiz-adv-x="1205" 
d="M300 1480l231 -280h145l-135 280h-241zM986 851q-26 124 -125 179.5t-277 55.5q-133 0 -241 -38q-102 -37 -157.5 -104.5t-80.5 -184.5l176 -24q19 76 50.5 119.5t85.5 63t141 19.5q131 0 193.5 -50.5t62.5 -165.5v-17q0 -21 -1 -30q-104 -37 -321 -62q-108 -14 -160 -27
q-118 -30 -188 -108.5t-70 -196.5q0 -95 45.5 -163.5t127.5 -104.5t190 -36q119 0 207 36.5t184 118.5q8 -76 36 -131h188q-34 59 -45.5 134.5t-11.5 209.5v341q0 120 -9 166zM292 372q26 38 70 57q47 20 157 36q188 26 294 68v-66q0 -114 -29 -180q-40 -80 -118.5 -125
t-185.5 -45q-99 0 -156.5 43t-57.5 125q0 49 26 87z" />
    <glyph glyph-name="aacute" unicode="&#xe1;" horiz-adv-x="1205" 
d="M787 1474h-236l-133 -280h149zM986 851q-26 124 -125 179.5t-277 55.5q-133 0 -241 -38q-102 -37 -157.5 -104.5t-80.5 -184.5l176 -24q19 76 50.5 119.5t85.5 63t141 19.5q131 0 193.5 -50.5t62.5 -165.5v-17q0 -21 -1 -30q-104 -37 -321 -62q-108 -14 -160 -27
q-118 -30 -188 -108.5t-70 -196.5q0 -95 45.5 -163.5t127.5 -104.5t190 -36q119 0 207 36.5t184 118.5q8 -76 36 -131h188q-34 59 -45.5 134.5t-11.5 209.5v341q0 120 -9 166zM292 372q26 38 70 57q47 20 157 36q188 26 294 68v-66q0 -114 -29 -180q-40 -80 -118.5 -125
t-185.5 -45q-99 0 -156.5 43t-57.5 125q0 49 26 87z" />
    <glyph glyph-name="acircumflex" unicode="&#xe2;" horiz-adv-x="1205" 
d="M919 1194l-225 280h-192l-216 -280h206l113 170l110 -170h204zM986 851q-26 124 -125 179.5t-277 55.5q-133 0 -241 -38q-102 -37 -157.5 -104.5t-80.5 -184.5l176 -24q19 76 50.5 119.5t85.5 63t141 19.5q131 0 193.5 -50.5t62.5 -165.5v-17q0 -21 -1 -30
q-104 -37 -321 -62q-108 -14 -160 -27q-118 -30 -188 -108.5t-70 -196.5q0 -95 45.5 -163.5t127.5 -104.5t190 -36q119 0 207 36.5t184 118.5q8 -76 36 -131h188q-34 59 -45.5 134.5t-11.5 209.5v341q0 120 -9 166zM292 372q26 38 70 57q47 20 157 36q188 26 294 68v-66
q0 -114 -29 -180q-40 -80 -118.5 -125t-185.5 -45q-99 0 -156.5 43t-57.5 125q0 49 26 87z" />
    <glyph glyph-name="atilde" unicode="&#xe3;" horiz-adv-x="1205" 
d="M575 1278q104 -56 166 -56q91 0 142 61t54 167h-130q-7 -49 -21.5 -68t-51.5 -19q-35 0 -94 30q-106 54 -169 54q-59 0 -105.5 -29t-72 -79.5t-25.5 -114.5v-5h133v5q0 40 20.5 65t55.5 25q31 0 98 -36zM986 851q-26 124 -125 179.5t-277 55.5q-133 0 -241 -38
q-102 -37 -157.5 -104.5t-80.5 -184.5l176 -24q19 76 50.5 119.5t85.5 63t141 19.5q131 0 193.5 -50.5t62.5 -165.5v-17q0 -21 -1 -30q-104 -37 -321 -62q-108 -14 -160 -27q-118 -30 -188 -108.5t-70 -196.5q0 -95 45.5 -163.5t127.5 -104.5t190 -36q119 0 207 36.5
t184 118.5q8 -76 36 -131h188q-34 59 -45.5 134.5t-11.5 209.5v341q0 120 -9 166zM292 372q26 38 70 57q47 20 157 36q188 26 294 68v-66q0 -114 -29 -180q-40 -80 -118.5 -125t-185.5 -45q-99 0 -156.5 43t-57.5 125q0 49 26 87z" />
    <glyph glyph-name="adieresis" unicode="&#xe4;" horiz-adv-x="1205" 
d="M510 1475h-188v-205h188v205zM883 1475h-188v-205h188v205zM986 851q-26 124 -125 179.5t-277 55.5q-133 0 -241 -38q-102 -37 -157.5 -104.5t-80.5 -184.5l176 -24q19 76 50.5 119.5t85.5 63t141 19.5q131 0 193.5 -50.5t62.5 -165.5v-17q0 -21 -1 -30
q-104 -37 -321 -62q-108 -14 -160 -27q-118 -30 -188 -108.5t-70 -196.5q0 -95 45.5 -163.5t127.5 -104.5t190 -36q119 0 207 36.5t184 118.5q8 -76 36 -131h188q-34 59 -45.5 134.5t-11.5 209.5v341q0 120 -9 166zM292 372q26 38 70 57q47 20 157 36q188 26 294 68v-66
q0 -114 -29 -180q-40 -80 -118.5 -125t-185.5 -45q-99 0 -156.5 43t-57.5 125q0 49 26 87z" />
    <glyph glyph-name="aring" unicode="&#xe5;" horiz-adv-x="1205" 
d="M689 1187q41 25 65 67t24 91t-24.5 91t-65.5 67t-90 25q-47 0 -88.5 -24.5t-66.5 -66t-25 -88.5q0 -51 24 -94t65.5 -68t91.5 -25q49 0 90 25zM675 1423q31 -32 31 -77q0 -44 -31.5 -76.5t-74.5 -32.5q-45 0 -75.5 32.5t-30.5 78.5q0 43 31.5 75t74.5 32q44 0 75 -32z
M986 851q-26 124 -125 179.5t-277 55.5q-133 0 -241 -38q-102 -37 -157.5 -104.5t-80.5 -184.5l176 -24q19 76 50.5 119.5t85.5 63t141 19.5q131 0 193.5 -50.5t62.5 -165.5v-17q0 -21 -1 -30q-104 -37 -321 -62q-108 -14 -160 -27q-118 -30 -188 -108.5t-70 -196.5
q0 -95 45.5 -163.5t127.5 -104.5t190 -36q119 0 207 36.5t184 118.5q8 -76 36 -131h188q-34 59 -45.5 134.5t-11.5 209.5v341q0 120 -9 166zM292 372q26 38 70 57q47 20 157 36q188 26 294 68v-66q0 -114 -29 -180q-40 -80 -118.5 -125t-185.5 -45q-99 0 -156.5 43
t-57.5 125q0 49 26 87z" />
    <glyph glyph-name="ae" unicode="&#xe6;" horiz-adv-x="1861" 
d="M1111 167q-54 33 -84 72t-43.5 97t-14.5 149h767l2 36v25q0 129 -49 254q-52 135 -159.5 210.5t-263.5 75.5q-114 0 -194 -35t-147 -108q-48 77 -136 110t-232 33q-131 0 -229 -39q-97 -41 -151 -109.5t-80 -183.5l175 -21q20 87 47 123q58 81 236 81q88 0 139 -21.5
t74 -71t23 -134.5v-18q0 -17 -1 -23q-69 -18 -109 -25.5t-142 -22.5q-108 -16 -173.5 -30.5t-110.5 -34.5q-84 -36 -135.5 -109.5t-51.5 -166.5q0 -85 43 -154.5t125 -109.5t195 -40q123 0 230 48.5t210 149.5q75 -100 169 -149t226 -49q182 0 299 91t169 258l-188 24
q-25 -105 -95 -165t-178 -60q-89 0 -162 43zM1011.5 793q37.5 69 102.5 106.5t151 37.5q132 0 204 -78.5t84 -225.5h-584q5 91 42.5 160zM310 402.5q51 41.5 161 57.5q248 40 322 73q0 -163 -15 -216q-17 -57 -63 -102.5t-111 -71t-138 -25.5q-93 0 -150 45t-57 123
q0 75 51 116.5z" />
    <glyph glyph-name="ccedilla" unicode="&#xe7;" horiz-adv-x="1119" 
d="M344 225q-79 101 -79 307q0 203 82.5 304.5t223.5 101.5q97 0 157.5 -56.5t84.5 -158.5l175 27q-31 161 -139.5 248.5t-284.5 87.5q-135 0 -254 -65q-113 -63 -171.5 -189.5t-58.5 -304.5q0 -171 54.5 -289t147 -181t209.5 -77l-39 -134q40 -1 58.5 -2.5t44.5 -7.5
t38.5 -19.5t15.5 -37.5q0 -29 -29 -49q-38 -26 -132 -26q-35 0 -94 4l-11 -117q62 -12 144 -12q147 0 217 58q72 57 72 132q0 61 -47 99.5t-124 47.5l20 63q103 12 183 63t130 134.5t67 189.5l-177 23q-18 -127 -85 -196t-182 -69q-138 0 -217 101z" />
    <glyph glyph-name="egrave" unicode="&#xe8;" horiz-adv-x="1194" 
d="M256 1447l231 -280h145l-135 280h-241zM416 169q-70 45 -109.5 126.5t-45.5 189.5h792q1 7 1 28v20q0 172 -61 297t-170.5 190.5t-251.5 65.5q-147 0 -259 -67t-174.5 -194.5t-62.5 -302.5q0 -167 60 -290.5t174 -189.5t272 -66q185 0 303.5 89.5t163.5 253.5l-186 23
q-38 -108 -105 -163t-175 -55q-96 0 -166 45zM315.5 790.5q39.5 69.5 106 108.5t151.5 39q132 0 205 -83t86 -222h-593q5 88 44.5 157.5z" />
    <glyph glyph-name="eacute" unicode="&#xe9;" horiz-adv-x="1194" 
d="M781 1474h-236l-133 -280h149zM416 169q-70 45 -109.5 126.5t-45.5 189.5h792q1 7 1 28v20q0 172 -61 297t-170.5 190.5t-251.5 65.5q-147 0 -259 -67t-174.5 -194.5t-62.5 -302.5q0 -167 60 -290.5t174 -189.5t272 -66q185 0 303.5 89.5t163.5 253.5l-186 23
q-38 -108 -105 -163t-175 -55q-96 0 -166 45zM315.5 790.5q39.5 69.5 106 108.5t151.5 39q132 0 205 -83t86 -222h-593q5 88 44.5 157.5z" />
    <glyph glyph-name="ecircumflex" unicode="&#xea;" horiz-adv-x="1194" 
d="M913 1194l-225 280h-192l-216 -280h206l113 170l110 -170h204zM416 169q-70 45 -109.5 126.5t-45.5 189.5h792q1 7 1 28v20q0 172 -61 297t-170.5 190.5t-251.5 65.5q-147 0 -259 -67t-174.5 -194.5t-62.5 -302.5q0 -167 60 -290.5t174 -189.5t272 -66q185 0 303.5 89.5
t163.5 253.5l-186 23q-38 -108 -105 -163t-175 -55q-96 0 -166 45zM315.5 790.5q39.5 69.5 106 108.5t151.5 39q132 0 205 -83t86 -222h-593q5 88 44.5 157.5z" />
    <glyph glyph-name="edieresis" unicode="&#xeb;" horiz-adv-x="1194" 
d="M504 1475h-188v-205h188v205zM877 1475h-188v-205h188v205zM416 169q-70 45 -109.5 126.5t-45.5 189.5h792q1 7 1 28v20q0 172 -61 297t-170.5 190.5t-251.5 65.5q-147 0 -259 -67t-174.5 -194.5t-62.5 -302.5q0 -167 60 -290.5t174 -189.5t272 -66q185 0 303.5 89.5
t163.5 253.5l-186 23q-38 -108 -105 -163t-175 -55q-96 0 -166 45zM315.5 790.5q39.5 69.5 106 108.5t151.5 39q132 0 205 -83t86 -222h-593q5 88 44.5 157.5z" />
    <glyph glyph-name="igrave" unicode="&#xec;" horiz-adv-x="515" 
d="M-7 1474l231 -280h145l-135 280h-241zM378 1062h-180v-1062h180v1062z" />
    <glyph glyph-name="iacute" unicode="&#xed;" horiz-adv-x="547" 
d="M535 1465h-236l-133 -280h149zM378 1062h-180v-1062h180v1062z" />
    <glyph glyph-name="icircumflex" unicode="&#xee;" horiz-adv-x="463" 
d="M604 1190l-225 280h-192l-216 -280h206l113 170l110 -170h204zM378 1062h-180v-1062h180v1062z" />
    <glyph glyph-name="idieresis" unicode="&#xef;" horiz-adv-x="463" 
d="M167 1405h-188v-205h188v205zM540 1405h-188v-205h188v205zM378 1062h-180v-1062h180v1062z" />
    <glyph glyph-name="eth" unicode="&#xf0;" horiz-adv-x="1229" 
d="M667 1038q-24 10 -60.5 17t-81.5 7q-130 0 -233 -64.5t-161 -187.5t-58 -293q0 -153 53.5 -275.5t163.5 -194.5t274 -72q143 0 255 66t175 189.5t63 290.5q0 392 -320 760l172 83l-45 102l-214 -102q-45 41 -125 102h-217q110 -75 207 -165l-239 -109l44 -103l275 127
q86 -96 142 -213zM830 307.5q-40 -91.5 -110 -138.5t-157 -47q-88 0 -157.5 44.5t-109 132t-39.5 213.5q0 136 38.5 228.5t106 138t155.5 45.5q132 0 222 -102q91 -100 91 -293q0 -130 -40 -221.5z" />
    <glyph glyph-name="ntilde" unicode="&#xf1;" horiz-adv-x="1117" 
d="M531 1278q104 -56 166 -56q91 0 142 61t54 167h-130q-7 -49 -21.5 -68t-51.5 -19q-35 0 -94 30q-107 54 -169 54q-59 0 -105.5 -29t-72 -79.5t-25.5 -114.5v-5h133v5q0 40 20.5 65t55.5 25q31 0 98 -36zM315 580q0 350 282 350q73 0 125 -33q38 -22 58.5 -53t29 -77.5
t8.5 -120.5v-646h180v653q0 69 -2 107q-11 157 -104 241.5t-257 84.5q-221 0 -338 -175v151h-162v-1062h180v580z" />
    <glyph glyph-name="ograve" unicode="&#xf2;" horiz-adv-x="1223" 
d="M423 1474l231 -280h145l-135 280h-241zM130 230q62 -125 174.5 -189.5t261.5 -64.5q137 0 256 65q126 69 183.5 189.5t57.5 315.5q0 166 -63 288t-175.5 187t-258.5 65q-138 0 -250.5 -59t-180 -183.5t-67.5 -312.5q0 -176 62 -301zM293 754.5q40 91.5 110.5 137
t162.5 45.5q134 0 222 -102q90 -100 90 -298q0 -134 -40 -227t-110.5 -139.5t-161.5 -46.5q-100 0 -170.5 50.5t-106.5 142.5t-36 214q0 132 40 223.5z" />
    <glyph glyph-name="oacute" unicode="&#xf3;" horiz-adv-x="1223" 
d="M852 1474h-236l-133 -280h149zM130 230q62 -125 174.5 -189.5t261.5 -64.5q137 0 256 65q126 69 183.5 189.5t57.5 315.5q0 166 -63 288t-175.5 187t-258.5 65q-138 0 -250.5 -59t-180 -183.5t-67.5 -312.5q0 -176 62 -301zM293 754.5q40 91.5 110.5 137t162.5 45.5
q134 0 222 -102q90 -100 90 -298q0 -134 -40 -227t-110.5 -139.5t-161.5 -46.5q-100 0 -170.5 50.5t-106.5 142.5t-36 214q0 132 40 223.5z" />
    <glyph glyph-name="ocircumflex" unicode="&#xf4;" horiz-adv-x="1223" 
d="M928 1194l-225 280h-192l-216 -280h206l113 170l110 -170h204zM130 230q62 -125 174.5 -189.5t261.5 -64.5q137 0 256 65q126 69 183.5 189.5t57.5 315.5q0 166 -63 288t-175.5 187t-258.5 65q-138 0 -250.5 -59t-180 -183.5t-67.5 -312.5q0 -176 62 -301zM293 754.5
q40 91.5 110.5 137t162.5 45.5q134 0 222 -102q90 -100 90 -298q0 -134 -40 -227t-110.5 -139.5t-161.5 -46.5q-100 0 -170.5 50.5t-106.5 142.5t-36 214q0 132 40 223.5z" />
    <glyph glyph-name="otilde" unicode="&#xf5;" horiz-adv-x="1223" 
d="M496 1256q104 -56 166 -56q91 0 142 61t54 167h-130q-7 -49 -21.5 -68t-51.5 -19q-36 0 -94 30q-106 54 -169 54q-59 0 -105.5 -29t-72 -79.5t-25.5 -114.5v-5h133v5q0 40 20.5 65t55.5 25q30 0 98 -36zM130 230q62 -125 174.5 -189.5t261.5 -64.5q137 0 256 65
q126 69 183.5 189.5t57.5 315.5q0 166 -63 288t-175.5 187t-258.5 65q-138 0 -250.5 -59t-180 -183.5t-67.5 -312.5q0 -176 62 -301zM293 754.5q40 91.5 110.5 137t162.5 45.5q134 0 222 -102q90 -100 90 -298q0 -134 -40 -227t-110.5 -139.5t-161.5 -46.5
q-100 0 -170.5 50.5t-106.5 142.5t-36 214q0 132 40 223.5z" />
    <glyph glyph-name="odieresis" unicode="&#xf6;" horiz-adv-x="1223" 
d="M454 1379h-188v-205h188v205zM827 1379h-188v-205h188v205zM130 230q62 -125 174.5 -189.5t261.5 -64.5q137 0 256 65q126 69 183.5 189.5t57.5 315.5q0 166 -63 288t-175.5 187t-258.5 65q-138 0 -250.5 -59t-180 -183.5t-67.5 -312.5q0 -176 62 -301zM293 754.5
q40 91.5 110.5 137t162.5 45.5q134 0 222 -102q90 -100 90 -298q0 -134 -40 -227t-110.5 -139.5t-161.5 -46.5q-100 0 -170.5 50.5t-106.5 142.5t-36 214q0 132 40 223.5z" />
    <glyph glyph-name="divide" unicode="&#xf7;" horiz-adv-x="1150" 
d="M664 1127h-205v-205h205v205zM78 807v-168h968v168h-968zM664 524h-205v-205h205v205z" />
    <glyph glyph-name="oslash" unicode="&#xf8;" horiz-adv-x="1223" 
d="M372 1025.5q-111 -60.5 -177 -188.5t-66 -321q0 -126 30 -217t94 -166l-108 -141l94 -71l105 135q122 -80 281 -80q136 0 249 57.5t181.5 181.5t68.5 315q0 91 -11 155t-36 118.5t-70 115.5l107 138l-96 70l-99 -128q-79 45 -146.5 66t-151.5 21q-138 0 -249 -60.5z
M314 531q0 131 40.5 222.5t111.5 137.5t161 46q100 0 191 -70l-452 -587q-52 100 -52 251zM930.5 658q9.5 -47 9.5 -126q0 -206 -91 -306q-90 -102 -229 -102q-98 0 -176 63l449 583q28 -65 37.5 -112z" />
    <glyph glyph-name="ugrave" unicode="&#xf9;" horiz-adv-x="1150" 
d="M262 1474l231 -280h145l-135 280h-241zM992 1062h-180v-569q0 -136 -30 -208q-27 -67 -97 -110.5t-155 -43.5q-81 0 -136 40q-36 26 -53.5 62.5t-23.5 91t-6 148.5v589h-180v-658q0 -119 13.5 -182.5t52.5 -119.5q42 -55 124.5 -90.5t172.5 -35.5q213 0 337 180v-156h161
v1062z" />
    <glyph glyph-name="uacute" unicode="&#xfa;" horiz-adv-x="1150" 
d="M759 1474h-236l-133 -280h149zM992 1062h-180v-569q0 -136 -30 -208q-27 -67 -97 -110.5t-155 -43.5q-81 0 -136 40q-36 26 -53.5 62.5t-23.5 91t-6 148.5v589h-180v-658q0 -119 13.5 -182.5t52.5 -119.5q42 -55 124.5 -90.5t172.5 -35.5q213 0 337 180v-156h161v1062z
" />
    <glyph glyph-name="ucircumflex" unicode="&#xfb;" horiz-adv-x="1150" 
d="M891 1194l-225 280h-192l-216 -280h206l113 170l110 -170h204zM992 1062h-180v-569q0 -136 -30 -208q-27 -67 -97 -110.5t-155 -43.5q-81 0 -136 40q-36 26 -53.5 62.5t-23.5 91t-6 148.5v589h-180v-658q0 -119 13.5 -182.5t52.5 -119.5q42 -55 124.5 -90.5t172.5 -35.5
q213 0 337 180v-156h161v1062z" />
    <glyph glyph-name="udieresis" unicode="&#xfc;" horiz-adv-x="1150" 
d="M482 1383h-188v-205h188v205zM855 1383h-188v-205h188v205zM992 1062h-180v-569q0 -136 -30 -208q-27 -67 -97 -110.5t-155 -43.5q-81 0 -136 40q-36 26 -53.5 62.5t-23.5 91t-6 148.5v589h-180v-658q0 -119 13.5 -182.5t52.5 -119.5q42 -55 124.5 -90.5t172.5 -35.5
q213 0 337 180v-156h161v1062z" />
    <glyph glyph-name="yacute" unicode="&#xfd;" horiz-adv-x="1058" 
d="M750 1428h-236l-133 -280h149zM243 -431q96 0 155 44q57 43 100 121.5t104 247.5l404 1080h-180l-227 -619q-38 -100 -74 -242q-35 135 -77 246l-221 615h-194l403 -1064l-7 -19q-8 -17 -9 -25q-5 -11 -8 -24q-17 -48 -29.5 -75t-32.5 -55q-42 -56 -140 -56
q-49 0 -103 16l20 -169q60 -22 116 -22z" />
    <glyph glyph-name="thorn" unicode="&#xfe;" horiz-adv-x="1177" 
d="M492 1073q-47 -13 -86.5 -41.5t-90.5 -81.5v516h-180v-1873h180v517q72 -75 134 -104.5t146 -29.5q122 0 233 69q108 67 168.5 197t60.5 297q0 156 -49 276q-50 125 -154.5 198t-246.5 73q-68 0 -115 -13zM338 753q40 95 106.5 143.5t145.5 48.5q80 0 144 -45.5
t101.5 -137t37.5 -222.5q0 -136 -38.5 -229.5t-104.5 -140t-148 -46.5q-81 0 -145 44.5t-101.5 134.5t-37.5 222q0 133 40 228z" />
    <glyph glyph-name="ydieresis" unicode="&#xff;" horiz-adv-x="1058" 
d="M436 1393h-188v-205h188v205zM809 1393h-188v-205h188v205zM243 -431q96 0 155 44q57 43 100 121.5t104 247.5l404 1080h-180l-227 -619q-38 -100 -74 -242q-35 135 -77 246l-221 615h-194l403 -1064l-7 -19q-8 -17 -9 -25q-5 -11 -8 -24q-17 -48 -29.5 -75t-32.5 -55
q-42 -56 -140 -56q-49 0 -103 16l20 -169q60 -22 116 -22z" />
    <glyph glyph-name="OE" unicode="&#x152;" horiz-adv-x="2201" 
d="M1302 673h599v172h-599v448h650v173h-831v-198q-136 223 -400 223q-199 0 -331.5 -97.5t-196.5 -267.5t-64 -391t65.5 -392.5t198.5 -269.5t328 -98q265 0 400 237v-212h862v173h-681v500zM918 1269.5q88 -64.5 140 -197t52 -327.5q0 -212 -51 -349t-139 -201t-200 -64
q-110 0 -198.5 64.5t-140.5 197t-52 327.5q0 205 45 342q28 87 84 148.5t125 92.5t137 31q110 0 198 -64.5z" />
    <glyph glyph-name="oe" unicode="&#x153;" horiz-adv-x="2034" 
d="M1684 65.5q116 89.5 159 254.5l-180 26q-30 -106 -98.5 -164t-175.5 -58q-94 0 -165 46t-110 127.5t-41 185.5h784v7q0 194 -60.5 328t-171 201t-258.5 67q-125 0 -224.5 -54t-164.5 -149q-53 92 -158 147.5t-236 55.5q-160 0 -273 -69t-171 -196.5t-58 -302.5
q0 -164 60.5 -286.5t173 -189t266.5 -66.5q245 0 396 199q64 -94 168.5 -146.5t239.5 -52.5q182 0 298 89.5zM267 533q0 111 33 201q33 92 106 148t171 56q132 0 222 -103q91 -100 91 -300q0 -118 -37.5 -211.5t-108.5 -146.5t-167 -53q-147 0 -239 126q-71 98 -71 283z
M1125 789.5q38 69.5 103.5 109t149.5 39.5q126 0 202 -83t87 -224h-587q7 89 45 158.5z" />
    <glyph glyph-name="Scaron" unicode="&#x160;" horiz-adv-x="1394" 
d="M349 1807l216 -280h192l225 280h-204l-110 -170l-113 170h-206zM1143 1284q-66 100 -190 153.5t-289 53.5q-143 0 -269 -50q-112 -46 -179.5 -139t-67.5 -215q0 -211 208 -319q45 -25 118 -48t191 -51q90 -22 140.5 -35t81.5 -24q35 -12 73 -32t59 -41q24 -24 38.5 -60
t14.5 -79v-6q0 -50 -22 -90q-39 -72 -127 -112.5t-204 -40.5h-11q-129 0 -225 43q-97 42 -145.5 110.5t-62.5 184.5l-183 -16q5 -150 80 -264q79 -118 212.5 -175t332.5 -57q158 0 282 57q118 55 189 154.5t71 227.5q0 133 -66 218q-45 58 -102.5 96t-151 69.5t-255.5 67.5
q-237 54 -292 105q-57 51 -57 130q0 62 37 112t112.5 79t187.5 29q166 0 253.5 -68.5t103.5 -212.5l186 14q-4 129 -72 231z" />
    <glyph glyph-name="scaron" unicode="&#x161;" horiz-adv-x="1025" 
d="M200 1454l216 -280h192l225 280h-204l-110 -170l-113 170h-206zM141.5 613.5q48.5 -59.5 130 -90t251.5 -73.5q146 -38 184 -61q53 -35 53 -96q0 -80 -68 -124.5t-176 -44.5q-245 0 -275 221l-178 -28q31 -174 142 -257.5t312 -83.5q129 0 224 43q92 41 148 118t56 175
q0 105 -44 163.5t-116.5 88t-216.5 67.5l-51 13q-66 18 -105 30q-41 13 -58 19.5t-40 20.5q-25 15 -36 36t-11 51q0 60 56.5 98.5t173.5 38.5q207 0 232 -174l176 24q-16 101 -62 164q-45 63 -141.5 98.5t-217.5 35.5q-107 0 -194 -32q-90 -33 -143.5 -105t-53.5 -169
q0 -107 48.5 -166.5z" />
    <glyph glyph-name="Ydieresis" unicode="&#x178;" horiz-adv-x="1394" 
d="M567 1765h-188v-205h188v205zM940 1765h-188v-205h188v205zM765 621l585 845h-226l-284 -431q-91 -139 -160 -259q-61 111 -149 248l-289 442h-236l565 -845v-621h194v621z" />
    <glyph glyph-name="Zcaron" unicode="&#x17d;" horiz-adv-x="1281" 
d="M302 1801l216 -280h192l225 280h-204l-110 -170l-113 170h-206zM1200 173h-936l89 103l823 1017v173h-1050v-173h818q-73 -76 -152 -174l-751 -939v-180h1159v173z" />
    <glyph glyph-name="zcaron" unicode="&#x17e;" horiz-adv-x="1067" 
d="M208 1454l216 -280h192l225 280h-204l-110 -170l-113 170h-206zM980 155h-491q-105 0 -227 -9q137 152 391 451l295 346v119h-868v-146h433q88 0 203 6l-676 -776v-146h940v155z" />
    <glyph glyph-name="florin" unicode="&#x192;" horiz-adv-x="1182" 
d="M270 -431q83 0 134.5 27t80.5 83.5t45 150.5l191 1092h204l25 140h-204l19 103q12 70 28 104t39 45t64 11q51 0 154 -24l35 153q-140 38 -215 38q-92 0 -149 -33q-39 -22 -63 -53t-40.5 -80t-31.5 -131l-24 -133h-201l-24 -140h201l-177 -1042q-10 -60 -23 -91.5t-37 -46
t-68 -14.5q-48 0 -152 22l-35 -155q133 -26 224 -26z" />
    <glyph glyph-name="circumflex" unicode="&#x2c6;" horiz-adv-x="677" 
d="M658 1194l-225 280h-192l-216 -280h206l113 170l110 -170h204z" />
    <glyph glyph-name="tilde" unicode="&#x2dc;" horiz-adv-x="700" 
d="M314 1278q104 -56 166 -56q91 0 142 61t54 167h-130q-7 -49 -21.5 -68t-51.5 -19q-35 0 -94 30q-106 54 -169 54q-59 0 -105.5 -29t-72 -79.5t-25.5 -114.5v-5h133v5q0 40 20.5 65t55.5 25q31 0 98 -36z" />
    <glyph glyph-name="uni03BC" unicode="&#x3bc;" horiz-adv-x="1242" 
d="M744.5 10q59.5 35 112.5 116v-126h161v1062h-177v-453q0 -239 -26 -314q-24 -68 -88 -112.5t-144 -44.5q-78 0 -135.5 43t-83.5 113q-26 78 -26 318v450h-178v-1469h178v514q39 -50 73.5 -78t77 -41t102.5 -13q94 0 153.5 35z" />
    <glyph glyph-name="uni060C" unicode="&#x60c;" horiz-adv-x="531" 
d="M347.5 21q39.5 20 64 54.5t24.5 73.5q-10 133 -137 151q-60 0 -86 -20q0 145 189 281q-65 54 -91 71q-238 -169 -238 -404q0 -65 23.5 -117t67.5 -81t101 -29q43 0 82.5 20z" />
    <glyph glyph-name="uni0615" unicode="&#x615;" 
d="M436 1531q-94 -15 -197 -112q-1 18 -1 59q0 25 -1 30q-5 35 -13 140q-5 68 -13 134l-3 24l-84 -16q30 -184 30 -352q0 -46 -12 -123l-28 -38l-28 -38q-56 16 -110 35l-32 -79q135 -54 272 -60h3q5 -1 25 -1h14q7 -1 15 -1q186 0 301 106l1 2q25 25 43 66t18 80
q0 65 -48.5 105.5t-120.5 40.5q-17 0 -31 -2zM515 1300q-91 -81 -226 -81q-53 0 -67 1h-2q-19 0 -40 3q96 127 174 181q65 44 119 44q31 0 55 -21t24 -54q0 -40 -37 -73z" />
    <glyph glyph-name="uni061B" unicode="&#x61b;" horiz-adv-x="512" 
d="M338.5 442q39.5 20 64 54.5t24.5 73.5q0 145 -137 145q-35 0 -86 -14q0 144 135 231q-51 42 -91 71q-184 -118 -184 -354q0 -65 23.5 -117t67.5 -81t101 -29q43 0 82.5 20zM187 233q-29 -17 -46 -46t-17 -62q0 -32 17.5 -60.5t46 -45.5t61.5 -17t61.5 17t46 45.5
t17.5 60.5t-17.5 61t-46.5 46.5t-61 17.5q-33 0 -62 -17z" />
    <glyph glyph-name="uni061F" unicode="&#x61f;" horiz-adv-x="1024" 
d="M758 1198h186q0 139 -52.5 245t-150 165t-228.5 59q-110 0 -214.5 -53.5t-170 -144.5t-65.5 -199q0 -166 104 -279l98 -81l98 -81q106 -94 106 -231v-143h186v143q0 206 -100 315l-34 24q-75 51 -127 94.5t-90.5 105t-38.5 134.5q0 55 34.5 103.5t92 77t121.5 28.5
q245 0 245 -282zM409 147l155 -155l163 163l-156 156z" />
    <glyph glyph-name="uni0621" unicode="&#x621;" horiz-adv-x="1019" 
d="M207 -82l341 126l80 29l30 11q50 17 117 43q77 30 137 63l-64 120q-110 -57 -209 -74q-21 -5 -30 -4l-30 3q-45 7 -82 31t-59 61.5t-22 81.5q0 43 22.5 77t61.5 53t85 19q74 0 165 -41l59 122q-119 54 -213 54q-98 0 -172 -41q-64 -38 -105.5 -103t-41.5 -140
q0 -81 42.5 -151.5t107.5 -108.5l-268 -101z" />
    <glyph glyph-name="uni0622" unicode="&#x622;" horiz-adv-x="580" 
d="M95.5 1598q7.5 16 21.5 36q28 43 78 43q12 0 34 -5t64 -21q49 -18 85 -27.5t70 -9.5q75 0 139 40.5t108 105.5l10 15l-114 74q-26 -33 -35 -42q-15 -18 -45.5 -35.5t-55.5 -17.5h-6q-47 1 -124 33q-76 30 -133 30h-21q-58 0 -104 -36q-43 -33 -63.5 -64t-44.5 -88
l-16 -40l132 -41q13 34 20.5 50zM490 609q0 308 -28 678q-5 55 -15 141t-12 96l-196 -30q0 -11 7 -54q4 -33 7 -63l12 -127q16 -175 21 -286q8 -202 8 -352q0 -278 -21 -608l197 -11q20 303 20 616z" />
    <glyph glyph-name="uni0623" unicode="&#x623;" horiz-adv-x="525" 
d="M51 1523l227 126l52 28q58 31 98 55q48 28 92 59l-59 78q-16 -13 -42.5 -29t-42.5 -25q-15 -9 -44 -18.5t-52 -9.5q-43 0 -79 23.5t-49 58.5l1 -1q-8 22 -8 36q0 34 20 62.5t51 41.5v-2q26 12 62 12q44 0 92 -13l28 92q-76 19 -120 19q-65 0 -118 -26.5t-83 -75
t-30 -110.5q0 -67 37.5 -118t97.5 -76l-179 -100zM417 609q0 308 -28 678q-5 55 -15 141t-12 96l-196 -30q0 -11 7 -54q4 -33 7 -63l12 -127q16 -175 21 -286q8 -202 8 -352q0 -278 -21 -608l197 -11q20 303 20 616z" />
    <glyph glyph-name="uni0624" unicode="&#x624;" horiz-adv-x="1056" 
d="M183 856l227 126l52 28q58 31 98 55q48 28 92 59l-59 78q-16 -13 -42.5 -29t-42.5 -25q-15 -9 -44 -18.5t-52 -9.5q-42 0 -78.5 24t-49.5 58l1 -1q-8 22 -8 36q0 33 20.5 62.5t50.5 41.5v-2q27 12 62 12q46 0 92 -13l28 92q-76 19 -120 19q-65 0 -118 -26.5t-83 -75
t-30 -110.5q0 -67 37.5 -118t97.5 -76l-179 -100zM527 -564q125 71 224.5 176.5t158.5 245.5t59 307q0 170 -51 314q-36 100 -94.5 183.5t-137 134t-168.5 50.5q-64 0 -124 -33q-87 -48 -147 -149.5t-79 -228.5q-6 -39 -6 -76q0 -130 66 -213q63 -77 169 -112t265 -35h99
q-16 -107 -104.5 -209t-238.5 -181.5t-341 -118.5l46 -193q225 36 404 138zM610 608l22 -22q125 -140 137 -384q-85 -6 -138 -6q-253 0 -269 130q-3 21 -3 42q0 69 24.5 134.5t61.5 106.5t73 41q50 0 92 -42z" />
    <glyph glyph-name="uni0625" unicode="&#x625;" horiz-adv-x="525" 
d="M397 609q0 308 -28 678q-5 55 -15 141t-12 96l-196 -30q0 -11 7 -54q4 -33 7 -63l12 -127q16 -175 21 -286q8 -202 8 -352q0 -278 -21 -608l197 -11q20 303 20 616zM70 -719l227 126l52 28q58 31 98 55q48 28 92 59l-59 78q-16 -13 -42.5 -29t-42.5 -25q-15 -9 -44 -18.5
t-52 -9.5q-43 0 -79 23.5t-49 58.5l1 -1q-8 22 -8 36q0 34 20 62.5t51 41.5v-2q26 12 62 12q44 0 92 -13l28 92q-76 19 -120 19q-65 0 -118 -26.5t-83 -75t-30 -110.5q0 -67 37.5 -118t97.5 -76l-179 -100z" />
    <glyph glyph-name="uni0626" unicode="&#x626;" horiz-adv-x="1778" 
d="M405 778l227 126l52 28q58 31 98 55q48 28 92 59l-59 78q-16 -13 -42.5 -29t-42.5 -25q-15 -9 -44 -18.5t-52 -9.5q-42 0 -78.5 24t-49.5 58l1 -1q-8 22 -8 36q0 33 20.5 62.5t50.5 41.5v-2q27 12 62 12q46 0 92 -13l28 92q-76 19 -120 19q-65 0 -118 -26.5t-83 -75
t-30 -110.5q0 -67 37.5 -118t97.5 -76l-179 -100zM941 83q44 -68 154 -114q41 -18 76 -28t96 -23q60 -15 90 -25q75 -28 75 -72q0 -43 -51 -98q-79 -84 -228.5 -126t-347.5 -42q-225 0 -361 90q-70 46 -108 124t-38 181q0 30 6 78q29 216 142 564l-191 67q-40 -118 -63 -195
q-27 -86 -53.5 -201.5t-37.5 -210.5q-6 -53 -6 -101q0 -89 21 -170q56 -208 235.5 -319.5t453.5 -111.5q219 0 398.5 53t292 151.5t136.5 229.5q6 37 6 68q0 52 -17 94q-29 70 -119 115q-35 16 -72 27.5t-105 27.5q-61 14 -107 30q-39 13 -65.5 28t-45.5 45.5t-19 81.5
q0 63 32 129q34 70 90.5 129.5t131.5 96t161 36.5q75 0 135 -23l19 -8l87 183q-103 52 -257 52q-197 0 -375 -155q-101 -89 -160.5 -206t-59.5 -253q0 -126 49 -199z" />
    <glyph glyph-name="uni0627" unicode="&#x627;" horiz-adv-x="536" 
d="M416 580q0 363 -27 754q-3 41 -13.5 135t-13.5 109l-196 -30l6 -54q47 -411 47 -897q0 -318 -19 -596l197 -11q19 284 19 590z" />
    <glyph glyph-name="uni0628" unicode="&#x628;" horiz-adv-x="2013" 
d="M544 251.5q-175 52.5 -225 150.5q-18 35 -18 86q0 63 26 135t61 115l-159 118q-56 -84 -92 -182t-36 -186q0 -95 42 -176q74 -149 280 -229q219 -80 575 -83h31q266 0 551 86q111 33 187 70q80 37 120 86.5t40 122.5q0 45 -14 106q-48 208 -179 404q-7 12 -12 17l-1 3
l-166 -108l14 -21q36 -56 76 -132q87 -167 99 -283q-277 -153 -746 -153q-279 1 -454 53.5zM847 -360l164 -164l163 163l-164 164z" />
    <glyph glyph-name="uni0629" unicode="&#x629;" horiz-adv-x="1023" 
d="M122 1366l164 -163l162 162l-164 164zM532 1365l164 -164l162 163l-164 163zM623 8q307 61 307 339q0 102 -61 225q-53 107 -133.5 203t-205.5 216l-38 34q-34 30 -36 32l-126 -153q0 -1 18 -16l48 -42q-63 -57 -117 -122q-163 -196 -163 -377q0 -103 49 -179t145.5 -122
t211.5 -46q58 0 101 8zM533 200l-11 -1q-15 0 -21 1q-92 10 -140 44t-48 103q0 51 24 103q60 131 197 254l2 -1l1 -1l1 -2q97 -110 146 -199t49 -154q0 -73 -49.5 -110t-136.5 -37h-14z" />
    <glyph glyph-name="uni062A" unicode="&#x62a;" horiz-adv-x="1997" 
d="M638 990l164 -163l162 162l-164 164zM1048 989l164 -164l162 163l-164 163zM524 251.5q-175 52.5 -225 150.5q-18 35 -18 86q0 63 26 135t61 115l-159 118q-56 -84 -92 -182t-36 -186q0 -95 42 -176q74 -149 280 -229q219 -80 575 -83h31q266 0 551 86q111 33 187 70
q80 37 120 86.5t40 122.5q0 45 -14 106q-48 208 -179 404q-7 12 -12 17l-1 3l-166 -108l14 -21q36 -56 76 -132q87 -167 99 -283q-277 -153 -746 -153q-279 1 -454 53.5z" />
    <glyph glyph-name="uni062B" unicode="&#x62b;" horiz-adv-x="2008" 
d="M1156 1269l-149 149l-148 -148l149 -149zM944 968l-164 164l-162 -163l164 -164zM1383 966l-164 164l-162 -162l164 -164zM531 251.5q-175 52.5 -225 150.5q-18 35 -18 86q0 63 26 135t61 115l-159 118q-56 -84 -92 -182t-36 -186q0 -95 42 -176q74 -149 280 -229
q219 -80 575 -83h31q266 0 551 86q111 33 187 70q80 37 120 86.5t40 122.5q0 45 -14 106q-48 208 -179 404l-6 10l-3 4.5t-2 2.5l-2 3l-166 -108l14 -21q36 -56 76 -132q87 -167 99 -283q-277 -153 -746 -153q-279 1 -454 53.5z" />
    <glyph glyph-name="uni062C" unicode="&#x62c;" horiz-adv-x="1696" 
d="M1454.5 693.5q-62.5 23.5 -133.5 63.5t-103 59.5t-119 77.5q-230 151 -443 152q-302 -23 -464 -292l162 -105q53 83 138.5 141.5t162.5 58.5q51 -1 101 -15q45 -13 73.5 -26t82.5 -43q43 -25 72 -40q21 -10 110 -61q79 -46 123 -66q-134 0 -265 -24q-261 -48 -447 -161.5
t-280 -260.5t-94 -294v-22q0 -149 58 -266q84 -172 260 -266.5t418 -94.5q358 0 671 215l-114 161q-121 -87 -244 -129.5t-275 -42.5q-165 0 -295.5 52.5t-205.5 152t-75 236.5v7q7 89 59 165q70 102 218 193t351.5 147.5t428.5 56.5h22q44 -3 116 -3l33 116q24 81 33 119
q-73 15 -135.5 38.5zM759 -84l164 -164l163 163l-164 164z" />
    <glyph glyph-name="uni062D" unicode="&#x62d;" horiz-adv-x="1647" 
d="M1417.5 693.5q-62.5 23.5 -133.5 63.5t-103 59.5t-119 77.5q-230 151 -443 152q-302 -23 -464 -292l162 -105q53 83 138.5 141.5t162.5 58.5q51 -1 101 -15q45 -13 73.5 -26t82.5 -43q43 -25 72 -40q21 -10 110 -61q80 -46 123 -66q-134 0 -265 -24q-261 -48 -447 -161.5
t-280 -260.5t-94 -294v-22q0 -149 58 -266q84 -172 260 -266.5t418 -94.5q358 0 671 215l-114 161q-121 -87 -244 -129.5t-275 -42.5q-165 0 -295.5 52.5t-205.5 152t-75 236.5v7q7 89 59 165q70 102 218 193t351.5 147.5t428.5 56.5h22q44 -3 116 -3l33 116q24 81 33 119
q-73 15 -135.5 38.5z" />
    <glyph glyph-name="uni062E" unicode="&#x62e;" horiz-adv-x="1680" 
d="M488 1443l164 -164l163 163l-164 164zM1451.5 693.5q-62.5 23.5 -133.5 63.5t-103 59.5t-119 77.5q-230 151 -443 152q-302 -23 -464 -292l162 -105q53 83 138.5 141.5t162.5 58.5q51 -1 101 -15q45 -13 73.5 -26t82.5 -43q43 -25 72 -40q21 -10 110 -61q79 -47 123 -66
q-134 0 -265 -24q-261 -48 -447 -161.5t-280 -260.5t-94 -294v-22q0 -149 58 -266q84 -172 260 -266.5t418 -94.5q358 0 671 215l-114 161q-121 -87 -244 -129.5t-275 -42.5q-165 0 -295.5 52.5t-205.5 152t-75 236.5v7q7 89 59 165q70 102 218 193t351.5 147.5t428.5 56.5
h22q43 -3 116 -3l33 116q24 81 33 119q-73 15 -135.5 38.5z" />
    <glyph glyph-name="uni062F" unicode="&#x62f;" horiz-adv-x="1127" 
d="M219 71.5q83 -30.5 175.5 -50.5t150.5 -20q290 0 426 165q61 70 61 186q0 46 -12 101q-29 126 -119 265q-190 298 -437 412l-81 -182q44 -19 92 -54q215 -161 315 -384q45 -97 45 -164q0 -35 -16 -54q-75 -88 -237 -88q-108 0 -212 31t-185 84l-82 -188q33 -29 116 -59.5
z" />
    <glyph glyph-name="uni0630" unicode="&#x630;" horiz-adv-x="1138" 
d="M298 1465l164 -164l163 163l-164 164zM219 71.5q83 -30.5 175.5 -50.5t150.5 -20q290 0 426 165q61 70 61 186q0 46 -12 101q-29 126 -119 265q-190 298 -437 412l-81 -182q44 -19 92 -54q215 -161 315 -384q45 -97 45 -164q0 -35 -16 -54q-75 -88 -237 -88
q-108 0 -212 31t-185 84l-82 -188q33 -29 116 -59.5z" />
    <glyph glyph-name="uni0631" unicode="&#x631;" horiz-adv-x="739" 
d="M394 270q29 -130 29 -180q0 -93 -45 -184.5t-126 -175.5q-149 -153 -381 -270l87 -176q87 41 166 93q256 167 375.5 352t119.5 361q0 25 -1 31q-12 101 -32 192t-36 149t-56 188l-190 -60q55 -170 90 -320z" />
    <glyph glyph-name="uni0632" unicode="&#x632;" horiz-adv-x="761" 
d="M212 1057l164 -164l163 163l-164 164zM394 270q29 -130 29 -180q0 -93 -45 -184.5t-126 -175.5q-149 -153 -381 -270l87 -176q87 41 166 93q256 167 375.5 352t119.5 361q0 25 -1 31q-12 101 -32 192t-36 149t-56 188l-190 -60q55 -170 90 -320z" />
    <glyph glyph-name="uni0633" unicode="&#x633;" horiz-adv-x="2692" 
d="M1598 226q-74 42 -124 129q-25 43 -40 75t-41 92q-44 95 -63 145l-167 -108q0 -3 17 -31q16 -25 42 -83q95 -220 95 -411v-15q-1 -7 -1 -16q-9 -228 -145.5 -340t-399.5 -123h-33q-182 0 -289 89t-137 256q-6 43 -6 89q0 82 20.5 179t52.5 180.5t66 127.5l-159 117
q-23 -29 -62 -108q-117 -234 -117 -491q0 -184 75 -327q79 -149 220 -230t339 -81q5 0 9 1h10h20q295 15 470 136q264 171 264 548v19q-1 8 -1 18q70 -61 188 -61h13q189 11 294 133q40 -59 101.5 -95.5t133.5 -36.5q71 0 128 21q55 20 94 55.5t66 88.5q50 99 52 247
q0 136 -69 323q-14 38 -45 102l-41 84l-175 -92q84 -161 115 -280q18 -73 18 -143q0 -58 -12 -105q-13 -49 -45 -80t-79 -31q-38 0 -63 22q-102 90 -102 398q0 22 -1 28l-2 30l-203 -20v-29q0 -57 1 -74q0 -13 1 -24v-24q0 -69 -7 -116t-24 -90q-38 -92 -149 -92
q-58 0 -103 24z" />
    <glyph glyph-name="uni0634" unicode="&#x634;" horiz-adv-x="2708" 
d="M2061 1480l-149 149l-148 -148l149 -149zM1849 1179l-164 164l-162 -163l164 -164zM2288 1177l-164 164l-162 -162l164 -164zM1598 226q-74 42 -124 129q-25 43 -40 75t-41 92q-44 95 -63 145l-167 -108q0 -3 17 -31q16 -25 42 -83q95 -220 95 -411v-15q-1 -7 -1 -16
q-9 -228 -145.5 -340t-399.5 -123h-33q-182 0 -289 89t-137 256q-6 43 -6 89q0 82 20.5 179t52.5 180.5t66 127.5l-159 117q-23 -29 -62 -108q-117 -234 -117 -491q0 -184 75 -327q79 -149 220 -230t339 -81q5 0 9 1h10h20q295 15 470 136q264 171 264 548v19q-1 8 -1 18
q70 -61 188 -61h13q189 11 294 133q40 -59 101.5 -95.5t133.5 -36.5q71 0 128 21q55 20 94 55.5t66 88.5q50 99 52 247q0 136 -69 323q-14 38 -45 102l-41 84l-175 -92q84 -161 115 -280q18 -73 18 -143q0 -58 -12 -105q-13 -49 -45 -80t-79 -31q-38 0 -63 22
q-102 90 -102 398q0 22 -1 28l-2 30l-203 -20v-29q0 -57 1 -74q0 -13 1 -24v-24q0 -69 -7 -116t-24 -90q-38 -92 -149 -92q-58 0 -103 24z" />
    <glyph glyph-name="uni0635" unicode="&#x635;" horiz-adv-x="2916" 
d="M1535 124q226 -158 558 -158q231 0 402 69q108 44 179.5 114.5t104.5 152.5t33 166q0 163 -131 277q-130 113 -302 113q-156 0 -316 -85q-258 -136 -439 -469q-45 37 -74 79q-109 174 -147 264l-8 23l-184 -77l4 -8q1 -6 5 -10q81 -209 109 -404q10 -69 10 -126
q0 -157 -60 -268.5t-173 -169.5t-271 -58q-236 0 -355 91.5t-119 285.5q0 155 73 352q42 112 65 144l-166 106q-8 -12 -25 -44q-144 -286 -144 -551v-8q0 -152 57 -272q159 -302 615 -302q218 0 375.5 86t241 248t83.5 385q0 42 -1 54zM1798 209q145 275 354 388
q116 62 223 62q70 0 125 -28q51 -25 83 -67t32 -93v-11q-7 -79 -52.5 -138.5t-120.5 -92.5q-144 -64 -343 -64q-174 0 -301 44z" />
    <glyph glyph-name="uni0636" unicode="&#x636;" horiz-adv-x="2927" 
d="M2110 1251l164 -164l163 163l-164 164zM1535 124q226 -158 558 -158q231 0 402 69q108 44 179.5 114.5t104.5 152.5t33 166q0 163 -131 277q-130 113 -302 113q-156 0 -316 -85q-258 -136 -439 -469q-45 37 -74 79q-109 174 -147 264l-8 23l-184 -77l4 -8q1 -6 5 -10
q81 -209 109 -404q10 -69 10 -126q0 -157 -60 -268.5t-173 -169.5t-271 -58q-236 0 -355 91.5t-119 285.5q0 155 73 352q42 112 65 144l-166 106q-8 -12 -25 -44q-144 -286 -144 -551v-8q0 -152 57 -272q159 -302 615 -302q218 0 375.5 86t241 248t83.5 385q0 42 -1 54z
M1798 209q145 275 354 388q116 62 223 62q70 0 125 -28q51 -25 83 -67t32 -93v-11q-7 -79 -52.5 -138.5t-120.5 -92.5q-144 -64 -343 -64q-174 0 -301 44z" />
    <glyph glyph-name="uni0637" unicode="&#x637;" horiz-adv-x="1816" 
d="M1378 118q112 59 183 130l1 2q103 109 136 255q9 42 9 81q0 64 -21.5 121t-59.5 96q-56 59 -137.5 96t-169.5 37q-42 0 -80 -8q-220 -33 -461 -262l-2 102q0 21 -1 35l-1 28q0 46 -14 231q-12 167 -50 481l-3 26l-196 -36q0 -4 5 -39q34 -219 59 -640q3 -58 3 -112
q0 -140 -25 -318q-86 -109 -132 -178q-129 32 -258 83l-72 -185q319 -123 634 -140h5q73 -4 126 -4q295 0 522 118zM1046.5 631q120.5 84 222.5 101q23 3 45 3q79 0 131.5 -35.5t63.5 -97.5v-13q0 -105 -87 -200q-212 -191 -528 -191q-83 0 -157 3h-2q-78 5 -94 7l151 191
q134 148 254.5 232z" />
    <glyph glyph-name="uni0638" unicode="&#x638;" horiz-adv-x="1806" 
d="M1378 118q112 59 183 130l1 2q103 109 136 255q9 42 9 81q0 64 -21.5 121t-59.5 96q-56 59 -137.5 96t-169.5 37q-42 0 -80 -8q-220 -33 -461 -262l-2 102q0 21 -1 35l-1 28q0 46 -14 231q-12 167 -50 481l-3 26l-196 -36q0 -4 5 -39q34 -219 59 -640q3 -58 3 -112
q0 -140 -25 -318q-86 -109 -132 -178q-129 32 -258 83l-72 -185q319 -123 634 -140h5q73 -4 126 -4q295 0 522 118zM1113 1350l164 -164l163 163l-164 164zM1046.5 631q120.5 84 222.5 101q23 3 45 3q79 0 131.5 -35.5t63.5 -97.5v-13q0 -105 -87 -200q-212 -191 -528 -191
q-83 0 -157 3h-2q-78 5 -94 7l151 191q134 148 254.5 232z" />
    <glyph glyph-name="uni0639" unicode="&#x639;" horiz-adv-x="1532" 
d="M531 -511q-228 118 -228 368q0 79 23 143q44 122 143 209.5t250 150.5q44 18 93 33q91 27 219 50q39 7 82.5 14t81.5 14q25 4 42.5 7t26.5 4q11 2 27 6q35 7 48 7l-42 192q-100 -19 -230 -36q-62 -8 -101 -8q-51 0 -96 9q-97 19 -147.5 58.5t-56.5 113.5v10q-1 4 -1 10
q0 88 54 152q33 40 85.5 64.5t111.5 24.5q52 0 95 -18q103 -41 180 -118l144 137l-5 5l-14 13l-18 16q-25 24 -89 67q-151 97 -294 97h-11l-10 -1q-125 -6 -222.5 -69t-151 -159t-53.5 -197q0 -214 161 -322l-44 -20q-199 -85 -334 -252q-74 -94 -109.5 -192.5t-35.5 -223.5
q0 -241 146 -401q217 -232 577 -232q190 0 332.5 51t273.5 159l-115 166q-202 -168 -490 -168q-170 0 -298 66z" />
    <glyph glyph-name="uni063A" unicode="&#x63a;" horiz-adv-x="1548" 
d="M695 1726l164 -164l163 163l-164 164zM541 -511q-228 118 -228 368q0 79 23 143q44 122 143 209.5t250 150.5q43 18 93 33q91 27 219 50q39 7 82.5 14t81.5 14q25 4 42.5 7t26.5 4q11 2 27 6q35 7 48 7l-42 192q-100 -19 -230 -36q-62 -8 -101 -8q-51 0 -96 9
q-97 19 -147.5 58.5t-56.5 113.5v10q-1 4 -1 10q0 88 54 152q33 40 85.5 64.5t111.5 24.5q52 0 95 -18q103 -41 180 -118l144 137l-5 5l-14 13l-18 16q-25 24 -89 67q-151 97 -294 97h-10q-5 -1 -11 -1q-125 -6 -222.5 -69t-151 -159t-53.5 -197q0 -214 161 -322l-44 -20
q-199 -85 -334 -252q-74 -94 -109.5 -192.5t-35.5 -223.5q0 -241 146 -401q217 -232 577 -232q190 0 332.5 51t273.5 159l-115 166q-202 -168 -490 -168q-170 0 -298 66z" />
    <glyph glyph-name="uni0640" unicode="&#x640;" horiz-adv-x="907" 
d="M984 28.5q29 28.5 29 69.5q0 42 -28.5 70t-70.5 28h-922q-43 0 -73 -28t-30 -70t30 -70t72 -28h923q41 0 70 28.5z" />
    <glyph glyph-name="uni0641" unicode="&#x641;" horiz-adv-x="1997" 
d="M1319 1466l164 -164l163 163l-164 164zM1474 1132q-69 0 -124 -34q-66 -40 -112.5 -113t-69.5 -155t-23 -149q0 -47 11 -89q32 -116 134.5 -176.5t261.5 -60.5h99q-32 -36 -86 -64q-184 -103 -571 -103q-409 0 -572 128q-61 47 -90 104t-29 141q0 124 55 233l9 19
l-174 95q-2 -7 -15 -32q-10 -21 -28 -72q-42 -126 -46 -228v-13q-1 -5 -1 -12q0 -133 68 -246q178 -304 784 -304q114 0 223 9q445 38 600 193q57 57 82.5 132.5t25.5 187.5q0 139 -48 273.5t-124 216.5q-107 119 -240 119zM1340 745q12 57 38 106t60 72q16 11 35 11
q48 0 94 -54q45 -49 71.5 -125.5t48.5 -199.5q-48 -4 -92 -4q-46 0 -81 3q-36 2 -71 12t-57 25q-23 16 -37 43.5t-14 64.5q0 16 5 46z" />
    <glyph glyph-name="uni0642" unicode="&#x642;" horiz-adv-x="1592" 
d="M637 1174l164 -163l162 162l-164 164zM1047 1173l164 -164l162 163l-164 163zM317 224q33 105 101 231l-175 94q-80 -150 -118.5 -278.5t-38.5 -274.5q0 -187 91 -335q78 -139 232 -218.5t354 -79.5h2q138 0 263 43t231 155q72 76 121 174t72 190t23 154h-2q5 55 5 89
q0 165 -50 307.5t-138 241.5q-61 65 -122 97t-139 32q-85 0 -159 -56.5t-124 -150.5t-67 -202q-8 -50 -8 -83q0 -120 69 -208q113 -147 431 -147q14 0 25 1h24h46q-26 -129 -93.5 -229t-164.5 -155.5t-208 -55.5q-27 0 -35 1h-2q-146 0 -254 52t-166.5 151t-58.5 237
q0 118 33 223zM904 512q19 51 55 93t70 42q35 0 65 -21q83 -59 131 -170t55 -256q-44 -4 -90 -4q-48 0 -65 1q-28 0 -65 3.5t-59 9.5q-27 7 -53 19t-40 27q-37 39 -37 98q0 70 33 158z" />
    <glyph glyph-name="uni0643" unicode="&#x643;" horiz-adv-x="2024" 
d="M1643 1321q30 -487 37 -804q-3 -73 -27 -115q-47 -88 -182 -143q-181 -71 -500 -71q-279 1 -454 53.5t-225 150.5q-18 35 -18 86q0 63 26 135t61 115l-159 118q-128 -194 -128 -368q0 -95 42 -176q148 -306 855 -313q684 0 857 320q45 87 48 199q0 86 -8 292
q-5 99 -6 155q-10 258 -38 557l-196 -21q8 -44 15 -170zM919 767q0 35 20 63t51 41v-2q27 12 62 12q46 0 92 -13l28 92q-76 19 -120 19q-65 0 -118 -26.5t-83 -75t-30 -110.5q0 -66 37.5 -117.5t97.5 -76.5l-179 -100l48 -87l227 126l52 28q58 31 98 55q48 28 92 59l-59 78
q-16 -13 -42.5 -29t-42.5 -25q-15 -9 -44 -18.5t-52 -9.5q-41 0 -78 24t-50 58l1 -1q-8 22 -8 36z" />
    <glyph glyph-name="uni0644" unicode="&#x644;" horiz-adv-x="1483" 
d="M168 297q-63 -175 -63 -373q0 -110 25 -188q45 -143 151.5 -238t262.5 -134q85 -20 164 -20q137 0 260 48q185 73 285.5 222t100.5 372q0 92 -2 188q-19 677 -51 1355l-196 -8q19 -419 26 -609q1 -57 9 -220l9 -249q9 -259 9 -457q0 -159 -82 -268q-58 -78 -159 -127.5
t-212 -49.5q-81 0 -150 25q-117 40 -185 130.5t-68 221.5q0 261 105 421l-179 80q-35 -50 -60 -122z" />
    <glyph glyph-name="uni0645" unicode="&#x645;" horiz-adv-x="1237" 
d="M568 745q-132 -138 -190 -331q-38 11 -75 11q-57 0 -102.5 -26t-71 -71.5t-25.5 -103.5v-28l37 -927h196l-36 935q0 9 3 24q9 0 29 -7q69 -23 190 -72l155 -63l34 -13l35 -14q45 -16 68 -20q38 -8 75 -8q72 0 131 55q53 50 84 136.5t31 187.5q0 126 -40.5 221.5
t-118.5 150.5t-189 59h-10q-112 0 -210 -96zM905 222q-48 10 -95 25q-37 11 -93 35l-21 9q-67 28 -70 29l-63 26q65 176 140 254q42 44 76 44h2q79 0 122 -67.5t43 -171.5q0 -118 -41 -183z" />
    <glyph glyph-name="uni0646" unicode="&#x646;" horiz-adv-x="1620" 
d="M655 642l164 -164l163 163l-164 164zM770 -687h10q142 7 262 40q217 61 342 218t132 393v34q0 119 -26.5 239.5t-69 223.5t-90.5 175l-166 -106q2 0 18 -30q136 -247 136 -501v-17q-7 -449 -546 -471h-2q-170 9 -283 82q-104 66 -142.5 156.5t-38.5 195.5q0 81 21 179
t53.5 182t64.5 126l-159 117q-49 -71 -90.5 -175.5t-65.5 -217.5t-24 -209q0 -192 78.5 -335.5t222.5 -221.5t334 -78h19q6 0 10 1z" />
    <glyph glyph-name="uni0647" unicode="&#x647;" horiz-adv-x="990" 
d="M586 8q307 61 307 339q0 102 -61 225q-53 107 -133.5 203t-205.5 216l-38 34q-34 30 -36 32l-126 -153q0 -1 18 -16l48 -42q-63 -57 -117 -122q-163 -196 -163 -377q0 -103 49 -179t145.5 -122t211.5 -46q58 0 101 8zM496 200l-11 -1q-15 0 -21 1q-92 10 -140 44t-48 103
q0 51 24 103q60 131 197 254l2 -1l1 -1l1 -2q97 -110 146 -199t49 -154q0 -73 -49.5 -110t-136.5 -37h-14z" />
    <glyph glyph-name="uni0648" unicode="&#x648;" horiz-adv-x="1078" 
d="M527 -564q125 71 224.5 176.5t158.5 245.5t59 307q0 170 -51 314q-36 100 -94.5 183.5t-137 134t-168.5 50.5q-64 0 -124 -33q-87 -48 -147 -149.5t-79 -228.5q-6 -39 -6 -76q0 -130 66 -213q63 -77 169 -112t265 -35h99q-16 -107 -104.5 -209t-238.5 -181.5t-341 -118.5
l46 -193q225 36 404 138zM610 608l22 -22q125 -140 137 -384q-85 -6 -138 -6q-253 0 -269 130q-3 21 -3 42q0 69 24.5 134.5t61.5 106.5t73 41q50 0 92 -42z" />
    <glyph glyph-name="uni0649" unicode="&#x649;" horiz-adv-x="1793" 
d="M941 30q44 -68 154 -114q41 -18 76 -28t96 -23q60 -15 90 -25q75 -28 75 -72q0 -43 -51 -98q-79 -84 -228.5 -126t-347.5 -42q-225 0 -361 90q-70 46 -108 124t-38 181q0 30 6 78q29 216 142 564l-191 67q-40 -118 -63 -195q-27 -86 -53.5 -201.5t-37.5 -210.5
q-6 -53 -6 -101q0 -89 21 -170q56 -208 235.5 -319.5t453.5 -111.5q219 0 398.5 53t292 151.5t136.5 229.5q6 37 6 68q0 52 -17 94q-29 70 -119 115q-35 16 -72 27.5t-105 27.5q-61 14 -107 30q-39 13 -65.5 28t-45.5 45.5t-19 81.5q0 63 32 129q34 70 90.5 129.5t131.5 96
t161 36.5q75 0 135 -23l19 -8l87 183q-103 52 -257 52q-197 0 -375 -155q-101 -89 -160.5 -206t-59.5 -253q0 -126 49 -199z" />
    <glyph glyph-name="uni064A" unicode="&#x64a;" horiz-adv-x="1781" 
d="M941 81q44 -68 154 -114q41 -18 76 -28t96 -23q60 -15 90 -25q75 -28 75 -72q0 -43 -51 -98q-79 -84 -228.5 -126t-347.5 -42q-225 0 -361 90q-70 46 -108 124t-38 181q0 30 6 78q29 216 142 564l-191 67q-40 -118 -63 -195q-27 -86 -53.5 -201.5t-37.5 -210.5
q-6 -53 -6 -101q0 -89 21 -170q56 -208 235.5 -319.5t453.5 -111.5q219 0 398.5 53t292 151.5t136.5 229.5q6 37 6 68q0 52 -17 94q-29 70 -119 115q-35 16 -72 27.5t-105 27.5q-61 14 -107 30q-39 13 -65.5 28t-45.5 45.5t-19 81.5q0 63 32 129q34 70 90.5 129.5t131.5 96
t161 36.5q75 0 135 -23l19 -8l87 183q-103 52 -257 52q-197 0 -375 -155q-101 -89 -160.5 -206t-59.5 -253q0 -126 49 -199zM439 -941l164 -163l162 162l-164 164zM849 -942l164 -164l162 163l-164 163z" />
    <glyph glyph-name="uni064B" unicode="&#x64b;" 
d="M4 1484v-111l422 174v104zM4 1225v-111l422 174v104z" />
    <glyph glyph-name="uni064C" unicode="&#x64c;" 
d="M405.5 1574q-18.5 41 -51 64.5t-73.5 23.5q-33 0 -69 -18q-46 -22 -75.5 -60t-29.5 -84q0 -60 42.5 -103t113.5 -66l5 -4q-70 -48 -203 -88q7 32 7 75q0 57 -34.5 94.5t-88.5 37.5q-35 0 -71.5 -17.5t-62.5 -43.5l61 -61q37 37 74 37q39 -4 39 -57q0 -25 -8.5 -56.5
t-18.5 -47.5l46 -65l28 7l125 38q50 16 108 47t92 65l47 -14l25 83q-5 1 -15 4t-13 4q19 66 19 115t-18.5 90zM324 1397l-24 11l-40 20q-35 16 -50 31.5t-15 38.5q0 18 13.5 35.5t34 29t38.5 11.5q55 0 55 -90q0 -37 -12 -87z" />
    <glyph glyph-name="uni064D" unicode="&#x64d;" 
d="M6 -318v-111l422 174v104zM6 -577v-111l422 174v104z" />
    <glyph glyph-name="uni064E" unicode="&#x64e;" 
d="M0 1243v-111l467 196v104z" />
    <glyph glyph-name="uni064F" unicode="&#x64f;" 
d="M354.5 1612q-39.5 50 -104.5 50q-44 0 -84 -24.5t-64.5 -62t-24.5 -74.5q0 -52 27 -83q19 -22 30 -32t33 -21q36 -19 74 -36q-96 -72 -272 -122l24 -84q101 24 190 69.5t147 103.5l27 -9l21 -7l25 83q-3 1 -13 4t-15 4q19 57 19 116q0 75 -39.5 125zM305 1488
q0 -36 -11 -89l-24 11l-30 15q-27 13 -34 17q-13 7 -25.5 20.5t-16.5 27.5q-1 2 -1 9t1.5 13t3.5 6q12 25 34.5 42t47.5 17q55 0 55 -89z" />
    <glyph glyph-name="uni0650" unicode="&#x650;" 
d="M9 -328v-111l455 188v104z" />
    <glyph glyph-name="uni0651" unicode="&#x651;" 
d="M462 1307q0 -71 -63 -76q-29 0 -45 25q-27 39 -40 153q0 1 -5 1q-13 0 -72 -8l1 -16v-20q0 -74 -19 -111.5t-67 -37.5q-29 0 -47.5 14.5t-18.5 40.5q0 48 25 105l-77 36q-13 -23 -23.5 -62t-10.5 -72q0 -66 41 -104.5t114 -42.5h6q79 0 125 67q42 -52 109 -52q43 0 79 22
t56.5 59.5t20.5 81.5q0 37 -15 81q-14 39 -26 61.5t-40 64.5l-71 -49q63 -76 63 -161z" />
    <glyph glyph-name="uni0652" unicode="&#x652;" 
d="M128 1540q-55 -29 -89 -81.5t-34 -118.5q0 -37 15 -76q25 -65 73.5 -104.5t113.5 -39.5q41 0 78 19q54 28 88.5 82t34.5 119q0 41 -14 77q-25 63 -74 102.5t-113 39.5q-42 0 -79 -19zM170 1238q-59 38 -59 102q0 43 29 77.5t67 34.5t66.5 -34.5t28.5 -77.5q0 -28 -13 -54
t-35 -42.5t-47 -16.5q-20 0 -37 11z" />
    <glyph glyph-name="uni0653" unicode="&#x653;" 
d="M140.5 1183q7.5 16 21.5 36q28 43 78 43q12 0 34 -5t64 -21q49 -18 85 -27.5t70 -9.5q75 0 139 40.5t108 105.5l10 15l-114 74q-26 -33 -35 -42q-15 -18 -45.5 -35.5t-55.5 -17.5h-6q-47 1 -124 33q-77 30 -133 30h-21q-57 0 -104 -36q-43 -33 -63.5 -64t-44.5 -88
l-16 -40l132 -41q13 34 20.5 50z" />
    <glyph glyph-name="uni0654" unicode="&#x654;" 
d="M44 1129l227 126l52 28q58 31 98 55q48 28 92 59l-59 78q-16 -13 -42.5 -29t-42.5 -25q-15 -9 -44 -18.5t-52 -9.5q-43 0 -79 23.5t-49 58.5l1 -1q-8 22 -8 36q0 34 20 62.5t51 41.5v-2q25 12 62 12q44 0 92 -13l28 92q-76 19 -120 19q-65 0 -118 -26.5t-83 -75
t-30 -110.5q0 -67 37.5 -118t97.5 -76l-179 -100z" />
    <glyph glyph-name="uni0655" unicode="&#x655;" 
d="M39 -749l227 126l52 28q58 31 98 55q48 28 92 59l-59 78q-16 -13 -42.5 -29t-42.5 -25q-15 -9 -44 -18.5t-52 -9.5q-43 0 -79 23.5t-49 58.5l1 -1q-8 22 -8 36q0 34 20 62.5t51 41.5v-2q26 12 62 12q44 0 92 -13l28 92q-76 19 -120 19q-65 0 -118 -26.5t-83 -75
t-30 -110.5q0 -67 37.5 -118t97.5 -76l-179 -100z" />
    <glyph glyph-name="uni0656" unicode="&#x656;" 
d="M116 -350q0 95 -23 179l-86 -27q22 -84 22 -172q0 -86 -22 -170l85 -27q24 120 24 217z" />
    <glyph glyph-name="uni0660" unicode="&#x660;" horiz-adv-x="990" 
d="M196 450q41 -94 123 -150.5t190 -56.5q70 0 131 27q95 41 152 122.5t57 189.5q0 70 -27 132q-41 94 -123.5 151t-189.5 57q-72 0 -133 -27q-94 -41 -150 -122.5t-56 -190.5q0 -72 26 -132zM356 671.5q23 40.5 63.5 64t89.5 23.5q50 0 90.5 -23t63.5 -63.5t23 -90.5
q0 -34 -14 -68q-21 -49 -64 -78.5t-99 -29.5q-34 0 -68 14q-49 21 -78.5 63.5t-29.5 98.5q0 49 23 89.5z" />
    <glyph glyph-name="uni0661" unicode="&#x661;" horiz-adv-x="662" 
d="M511 315q-6 161 -23.5 328t-44.5 298q-29 141 -76.5 270.5t-109.5 228.5l-166 -106q146 -231 190 -610q21 -185 28.5 -351t7.5 -399h199q0 169 -5 341z" />
    <glyph glyph-name="uni0662" unicode="&#x662;" horiz-adv-x="1137" 
d="M791 1162q-8 -49 -27 -92q-20 -45 -59 -69.5t-95 -24.5q-82 0 -130 36q-31 23 -52.5 52t-41 69.5t-62.5 138.5q-51 116 -89 174l-167 -106q56 -98 99 -204q53 -134 80.5 -296.5t37.5 -364.5t10 -495h199q0 395 -47 827q69 -28 163 -28q180 0 277 123v-1q104 122 109 354
v28q0 62 -6 113q-1 5 -5 31t-4 35l-196 -36q14 -81 14 -149q0 -66 -8 -115z" />
    <glyph glyph-name="uni0663" unicode="&#x663;" horiz-adv-x="1428" 
d="M1133 1112l-6 -36q-3 -15 -9.5 -33t-13.5 -25q-22 -22 -58 -22q-19 0 -37 15q-32 29 -53 93q-17 53 -23.5 92t-14.5 118l-3 32q-4 45 -5 52q-5 38 -5 51v9l-198 -24q1 -6 3 -32l2 -27q1 -16 3 -55t2 -71q0 -76 -14 -134t-49 -97q-18 -23 -35.5 -32t-49.5 -9
q-46 0 -75 11.5t-49.5 36t-42.5 69.5q-15 28 -48 101t-47 104q-5 8 -22 47l-12 24q-26 53 -42 78l-181 -107q59 -96 85 -171q159 -405 159 -1019v-85l-3 -85h199q0 338 -18 576q-5 64 -18 167q-5 35 -10 75q60 -20 125 -20q77 0 132 26.5t105 83.5l20 30q87 -122 220 -122
q63 0 116 24q172 79 172 359q0 127 -33 293l-194 -37q30 -159 30 -255q0 -46 -4 -69z" />
    <glyph glyph-name="uni0664" unicode="&#x664;" horiz-adv-x="1104" 
d="M652 186q-113 0 -192 44q-33 19 -48 39t-15 51q0 27 11 57q10 27 21 43t35 47q117 144 327 208l-32 196q-9 -1 -39 -1h-35q-205 0 -315 42q-85 34 -85 83q0 29 35 73q39 47 114 96q147 92 273 131l-63 190q-147 -46 -281 -127q-136 -81 -207.5 -173.5t-71.5 -186.5
q0 -69 26 -122.5t75 -88.5q49 -34 100.5 -56t120.5 -38q-57 -48 -102 -103q-107 -134 -107 -272q0 -59 23 -113q45 -104 160 -162t272 -58q172 0 347 71l-75 187q-139 -57 -272 -57z" />
    <glyph glyph-name="uni0665" unicode="&#x665;" horiz-adv-x="1240" 
d="M479 1235q-102 -108 -187 -249q-77 -129 -116.5 -242.5t-39.5 -230.5q0 -72 17 -143q42 -174 166.5 -273t316.5 -99q139 0 252 62.5t178.5 176.5t65.5 260q0 211 -153 443t-419 498l-140 -144q26 -24 59 -59zM374 694q84 223 242 393q77 -88 154 -199
q78 -116 119.5 -213.5t41.5 -177.5q0 -39 -15 -93q-27 -96 -99.5 -150.5t-180.5 -54.5q-143 0 -221 84t-78 233q0 80 37 178z" />
    <glyph glyph-name="uni0666" unicode="&#x666;" horiz-adv-x="1167" 
d="M474 1211q104 0 246 22q-9 -114 -9 -235q0 -145 14 -329q29 -351 147 -627q7 -16 13 -28l9 -20l3 -8l175 86l-2 5l-7 17q-8 16 -11 25q-58 139 -98 321q-22 96 -35 239t-13 278q0 221 14 338l6 47l-124 109q-4 0 -28 -7q-138 -38 -302 -38q-174 0 -299 55l-78 -178
q170 -72 379 -72z" />
    <glyph glyph-name="uni0667" unicode="&#x667;" horiz-adv-x="1291" 
d="M790 254q30 195 83.5 360t122 311t197.5 397q8 15 14.5 27.5t11.5 22.5l-165 103q-40 -61 -90 -160q-175 -346 -292 -726q-60 226 -159.5 432t-258.5 454l-165 -103q159 -251 262 -465t160 -444t57 -486h198q3 143 24 277z" />
    <glyph glyph-name="uni0668" unicode="&#x668;" horiz-adv-x="1351" 
d="M570 1176q-31 -198 -86.5 -366.5t-129 -322.5t-212.5 -417l165 -102q36 54 89 158q174 337 293 719q60 -223 160 -429t258 -448l165 102q-163 255 -265.5 466t-158 435t-55.5 479h-198q-3 -138 -25 -274z" />
    <glyph glyph-name="uni0669" unicode="&#x669;" horiz-adv-x="1100" 
d="M673 504q15 -76 40 -164t51 -146q30 -68 73 -130t92 -101l101 166q-45 52 -77 125q-78 178 -125 500q-20 217 -57.5 363.5t-106.5 237.5q-48 63 -102.5 94.5t-129.5 31.5q-92 0 -169.5 -65t-122.5 -167.5t-45 -208.5q0 -112 54 -187q58 -65 147 -105.5t188 -40.5
q71 0 146 22l11 -60q14 -77 32 -165zM488 905q-116 0 -178 62q-15 33 -15 75q0 76 39 152q43 81 99 90q19 0 35 -13q98 -82 137 -340q-50 -26 -117 -26z" />
    <glyph glyph-name="uni066A" unicode="&#x66a;" horiz-adv-x="1217" 
d="M998 1569h-222l-593 -1570h220zM82 1329l203 -203l202 201l-203 203zM713 209l203 -203l202 201l-203 203z" />
    <glyph glyph-name="uni066B" unicode="&#x66b;" horiz-adv-x="665" 
d="M638 869h-144l-482 -1084h145z" />
    <glyph glyph-name="uni066C" unicode="&#x66c;" horiz-adv-x="423" 
d="M308 -88q-36 39 -90 39q-32 0 -61 -17v6q0 136 209 243l-48 92q-274 -147 -274 -385v-13q2 -87 44 -142t114 -55h3q60 0 99.5 38t39.5 98q0 57 -36 96z" />
    <glyph glyph-name="uni066D" unicode="&#x66d;" horiz-adv-x="965" 
d="M383 774l-334 12l-4 -12l277 -186l-113 -316l8 -6l262 207l264 -207l9 6l-113 316l281 188l-5 10l-335 -12l-93 324h-12z" />
    <glyph glyph-name="uni066E" unicode="&#x66e;" horiz-adv-x="2013" 
d="M540 251.5q-175 52.5 -225 150.5q-18 35 -18 86q0 63 26 135t61 115l-159 118q-56 -84 -92 -182t-36 -186q0 -95 42 -176q74 -149 280 -229q219 -80 575 -83h31q266 0 551 86q111 33 187 70q80 37 120 86.5t40 122.5q0 45 -14 106q-48 208 -179 404q-7 12 -12 17l-1 3
l-166 -108l14 -21q36 -56 76 -132q87 -167 99 -283q-277 -153 -746 -153q-279 1 -454 53.5z" />
    <glyph glyph-name="uni066F" unicode="&#x66f;" horiz-adv-x="1581" 
d="M317 222q33 105 101 231l-175 94q-80 -150 -118.5 -278.5t-38.5 -274.5q0 -187 91 -335q78 -139 232 -218.5t354 -79.5h2q138 0 263 43t231 155q72 76 121 174t72 190t23 154h-2q5 55 5 89q0 165 -50 307.5t-138 241.5q-61 65 -122 97t-139 32q-85 0 -159 -56.5
t-124 -150.5t-67 -202q-8 -50 -8 -83q0 -120 69 -208q113 -147 431 -147q14 0 25 1h24h46q-26 -129 -93.5 -229t-164.5 -155.5t-208 -55.5q-27 0 -35 1h-2q-146 0 -254 52t-166.5 151t-58.5 237q0 118 33 223zM904 510q19 51 55 93t70 42q35 0 65 -21q83 -59 131 -170
t55 -256q-44 -4 -90 -4q-48 0 -65 1q-28 0 -65 3.5t-59 9.5q-27 7 -53 19t-40 27q-37 39 -37 98q0 70 33 158z" />
    <glyph glyph-name="uni0670" unicode="&#x670;" 
d="M106 1333q0 95 -23 179l-86 -27q22 -84 22 -172q0 -86 -22 -170l85 -27q24 120 24 217z" />
    <glyph glyph-name="uni0671" unicode="&#x671;" horiz-adv-x="573" 
d="M286 1802q-32 -33 -53.5 -63.5t-44.5 -73.5q-31 45 -90 45q-51 0 -121 -37l18 -68q62 41 100 41q21 0 34 -10q26 -36 68 -49.5t119 -13.5q67 0 130 17q66 17 108.5 54.5t42.5 86.5q0 60 -41 100t-101 40q-100 0 -169 -69zM251 1642q32 71 83.5 117.5t114.5 46.5
q35 0 57.5 -18t22.5 -48q-9 -101 -217 -101q-34 0 -61 3zM413 609q0 308 -28 678q-5 55 -15 141t-12 96l-196 -30q0 -11 7 -54q4 -33 7 -63l12 -127q16 -175 21 -286q8 -202 8 -352q0 -278 -21 -608l197 -11q20 303 20 616z" />
    <glyph glyph-name="uni0679" unicode="&#x679;" horiz-adv-x="2019" 
d="M1139 1177q-94 -15 -197 -112q-1 18 -1 59q0 25 -1 30q-5 35 -13 140q-5 68 -13 134l-3 24l-84 -16q30 -184 30 -352q0 -46 -12 -123l-28 -38q-22 -31 -28 -38q-56 16 -110 35l-32 -79q135 -54 272 -60h3q5 -1 25 -1h14q7 -1 15 -1q186 0 301 106l1 2q25 25 43 66t18 80
q0 65 -48.5 105.5t-120.5 40.5q-17 0 -31 -2zM1218 946q-91 -81 -226 -81q-53 0 -67 1h-2q-19 0 -40 3q96 127 174 181q65 44 119 44q31 0 55 -21t24 -54q0 -40 -37 -73zM538 251.5q-175 52.5 -225 150.5q-18 35 -18 86q0 63 26 135t61 115l-159 118q-56 -84 -92 -182
t-36 -186q0 -95 42 -176q74 -149 280 -229q219 -80 575 -83h31q266 0 551 86q111 33 187 70q80 37 120 86.5t40 122.5q0 45 -14 106q-48 208 -179 404q-7 12 -12 17l-1 3l-166 -108l14 -21q36 -56 76 -132q87 -167 99 -283q-277 -153 -746 -153q-279 1 -454 53.5z" />
    <glyph glyph-name="uni067E" unicode="&#x67e;" horiz-adv-x="2019" 
d="M537 251.5q-175 52.5 -225 150.5q-18 35 -18 86q0 63 26 135t61 115l-159 118q-56 -84 -92 -182t-36 -186q0 -95 42 -176q74 -149 280 -229q219 -80 575 -83h31q266 0 551 86q111 33 187 70q80 37 120 86.5t40 122.5q0 45 -14 106q-48 208 -179 404l-6 10l-3 4.5t-2 2.5
l-2 3l-166 -108l14 -21q36 -56 76 -132q87 -167 99 -283q-277 -153 -746 -153q-279 1 -454 53.5zM1226 -472l164 164l-162 162l-164 -164zM789 -474l164 164l-162 163l-164 -164zM1012 -760l149 149l-148 148l-149 -149z" />
    <glyph glyph-name="uni0686" unicode="&#x686;" horiz-adv-x="1702" 
d="M1462.5 693.5q-62.5 23.5 -133.5 63.5t-103 59.5t-119 77.5q-230 151 -443 152q-302 -23 -464 -292l162 -105q53 83 138.5 141.5t162.5 58.5q51 -1 101 -15q45 -13 73.5 -26t82.5 -43q43 -25 72 -40q21 -10 110 -61q79 -47 123 -66q-134 0 -265 -24q-261 -48 -447 -161.5
t-280 -260.5t-94 -294v-22q0 -149 58 -266q84 -172 260 -266.5t418 -94.5q358 0 671 215l-114 161q-121 -87 -244 -129.5t-275 -42.5q-165 0 -295.5 52.5t-205.5 152t-75 236.5v7q7 89 59 165q70 102 218 193t351.5 147.5t428.5 56.5h22q44 -3 116 -3l33 116q24 81 33 119
q-73 15 -135.5 38.5zM1164 -162l158 158l-156 156l-158 -158zM744 -164l157 158l-155 157l-158 -158zM958 -439l143 144l-142 142l-143 -143z" />
    <glyph glyph-name="uni0688" unicode="&#x688;" horiz-adv-x="1149" 
d="M640 1684q-94 -15 -197 -112q-1 18 -1 59q0 25 -1 30q-5 35 -13 140q-5 68 -13 134l-3 24l-84 -16q30 -184 30 -352q0 -46 -12 -123q-38 -54 -56 -76q-56 16 -110 35l-32 -79q135 -54 272 -60h3q5 -1 25 -1h14q7 -1 15 -1q186 0 301 106l1 2q25 25 43 66t18 80
q0 65 -48.5 105.5t-120.5 40.5q-17 0 -31 -2zM719 1453q-91 -81 -226 -81q-53 0 -67 1h-2q-19 0 -40 3q96 127 174 181q65 44 119 44q31 0 55 -21t24 -54q0 -40 -37 -73zM227 71.5q83 -30.5 175.5 -50.5t150.5 -20q290 0 426 165q61 70 61 186q0 46 -12 101
q-29 126 -119 265q-190 298 -437 412l-81 -182q44 -19 92 -54q215 -160 315 -384q45 -97 45 -164q0 -35 -16 -54q-75 -88 -237 -88q-108 0 -212 31t-185 84l-82 -188q33 -29 116 -59.5z" />
    <glyph glyph-name="uni0691" unicode="&#x691;" horiz-adv-x="782" 
d="M501 1233q-94 -15 -197 -112q-1 18 -1 59q0 25 -1 30q-5 35 -13 140q-5 68 -13 134l-3 24l-84 -16q30 -184 30 -352q0 -46 -12 -123l-28 -38l-28 -38q-56 16 -110 35l-32 -79q135 -54 272 -60h3q5 -1 25 -1h14q7 -1 15 -1q186 0 301 106l1 2q25 25 43 66t18 80
q0 65 -48.5 105.5t-120.5 40.5q-17 0 -31 -2zM580 1002q-91 -81 -226 -81q-53 0 -67 1h-2q-19 0 -40 3q96 127 174 181q65 44 119 44q31 0 55 -21t24 -54q0 -40 -37 -73zM394 270q29 -130 29 -180q0 -93 -45 -184.5t-126 -175.5q-149 -153 -381 -270l87 -176q87 41 166 93
q256 167 375.5 352t119.5 361q0 25 -1 31q-12 101 -32 192t-36 149t-56 188l-190 -60q55 -170 90 -320z" />
    <glyph glyph-name="uni0698" unicode="&#x698;" horiz-adv-x="892" 
d="M618 1383l-149 149l-148 -148l149 -149zM406 1082l-164 164l-162 -163l164 -164zM845 1080l-164 164l-162 -162l164 -164zM492 270q29 -130 29 -180q0 -93 -45 -184.5t-126 -175.5q-148 -153 -381 -270l87 -176q87 41 166 93q256 167 375.5 352t119.5 361q0 25 -1 31
q-12 101 -32 192t-36 149t-56 188l-190 -60q55 -170 90 -320z" />
    <glyph glyph-name="uni06A9" unicode="&#x6a9;" horiz-adv-x="2138" 
d="M1199 1283l-25 -229q44 -38 118 -99q92 -75 143 -121q80 -71 147 -150t90 -152q12 -37 12 -69q0 -61 -43 -111l-4 -7q-45 -45 -123 -76q-171 -70 -437 -70q-368 0 -555 55q-175 51 -225 150q-19 37 -19 88q0 54 16 102.5t49 108.5l23 37l-158 117q-67 -110 -90 -169
q-39 -105 -39 -200t42 -174q38 -77 111 -134q71 -56 158 -90t208 -55q112 -19 221.5 -26.5t254.5 -7.5q465 0 672 177q46 39 82.5 103t47.5 124q7 41 7 71q0 117 -84 244q-45 68 -122 152q-23 25 -72.5 71t-74.5 67l-82 69l-74 62l762 319l-77 182z" />
    <glyph glyph-name="uni06AA" unicode="&#x6aa;" horiz-adv-x="2461" 
d="M2264 56l72 6l81 134l-6 13l-3 9q-6 9 -12 23q-107 227 -256 312q-97 61 -285 61q-117 0 -307 -23l-124 -15q-119 -11 -304 -11h-1q-289 0 -377 45q5 66 90 144q88 80 249.5 156.5t346.5 133.5l35 11q-23 82 -50 188q-1 -1 -41 -12q-57 -17 -98 -31q-401 -140 -584 -312
q-142 -133 -142 -282q0 -22 1 -29v-2q2 -28 20 -62q27 -52 96.5 -83t186 -44.5t292.5 -13.5q91 0 206 5l65 5q43 4 69 4l5 1l22 3q188 27 329 27q96 0 159 -17.5t104.5 -55.5t72.5 -101q-904 -70 -1440 -70q-421 0 -673 43l-31 -192q276 -46 740 -46q599 0 1492 78z" />
    </font>
</defs>
</svg>
